<?xml version="1.0" encoding="utf-8" ?>
<svg baseProfile="full" height="1155.2241035371967" style="font-family: monospace;" version="1.1" width="704" xmlns="http://www.w3.org/2000/svg" xmlns:ev="http://www.w3.org/2001/xml-events" xmlns:xlink="http://www.w3.org/1999/xlink"><defs><marker id="arrow" markerHeight="4" markerUnits="strokeWidth" markerWidth="6" orient="auto" refX="6" refY="2.0"><polygon fill="black" points="0,0 6,2.0 0,4" stroke-width="0" /></marker></defs><rect fill="white" height="1155.2241035371967" stroke="grey" stroke-width="1" width="704" x="0" y="0" /><text fill="black" x="4" y="57.0">ubuf-0x555555666860</text><line stroke="grey" x1="0" x2="704" y1="45" y2="45" /><text fill="black" x="4" y="76.58351578844938">ubuf-0x555555667a70</text><line stroke="grey" x1="0" x2="704" y1="64.58351578844938" y2="64.58351578844938" /><text fill="black" x="4" y="115.47078285408456">ubuf-0x555555668700</text><line stroke="grey" x1="0" x2="704" y1="103.47078285408456" y2="103.47078285408456" /><text fill="black" x="4" y="154.28506787330318">ubuf-0x555555669380</text><line stroke="grey" x1="0" x2="704" y1="142.28506787330318" y2="142.28506787330318" /><text fill="black" x="4" y="193.08718921811902">ubuf-0x55555566a000</text><line stroke="grey" x1="0" x2="704" y1="181.08718921811902" y2="181.08718921811902" /><text fill="black" x="4" y="231.98661995815698">ubuf-0x55555566ac90</text><line stroke="grey" x1="0" x2="704" y1="219.98661995815698" y2="219.98661995815698" /><text fill="black" x="4" y="270.8982143725977">ubuf-0x55555566b920</text><line stroke="grey" x1="0" x2="704" y1="258.8982143725977" y2="258.8982143725977" /><text fill="black" x="4" y="309.7246630662191">ubuf-0x55555566c5a0</text><line stroke="grey" x1="0" x2="704" y1="297.7246630662191" y2="297.7246630662191" /><text fill="black" x="4" y="348.58760278304874">ubuf-0x55555566ebd0</text><line stroke="grey" x1="0" x2="704" y1="336.58760278304874" y2="336.58760278304874" /><text fill="black" x="4" y="364.58760278304874">ubuf-0x55555566f6c0</text><line stroke="grey" x1="0" x2="704" y1="352.58760278304874" y2="352.58760278304874" /><text fill="black" x="4" y="380.58760278304874">ubuf-0x555555690970</text><line stroke="grey" x1="0" x2="704" y1="368.58760278304874" y2="368.58760278304874" /><text fill="black" x="4" y="419.4991971974895">ubuf-0x555555691600</text><line stroke="grey" x1="0" x2="704" y1="407.4991971974895" y2="407.4991971974895" /><text fill="black" x="4" y="458.3986279375274">ubuf-0x555555692290</text><line stroke="grey" x1="0" x2="704" y1="446.3986279375274" y2="446.3986279375274" /><text fill="black" x="4" y="497.23724030555155">ubuf-0x555555692f20</text><line stroke="grey" x1="0" x2="704" y1="485.23724030555155" y2="485.23724030555155" /><text fill="black" x="4" y="547.8259621466453">ubuf-0x555555693f70</text><line stroke="grey" x1="0" x2="704" y1="535.8259621466453" y2="535.8259621466453" /><text fill="black" x="4" y="586.7740475842943">ubuf-0x7fffffffcdf0</text><line stroke="grey" x1="0" x2="704" y1="574.7740475842943" y2="574.7740475842943" /><text fill="black" x="4" y="610.7740475842943">/tmp/helios_leveldb/dbdir/000005.ldb</text><line stroke="grey" x1="0" x2="704" y1="598.7740475842943" y2="598.7740475842943" /><text fill="black" x="4" y="650.8047000437892">/tmp/helios_leveldb/dbdir/000061.ldb</text><line stroke="grey" x1="0" x2="704" y1="638.8047000437892" y2="638.8047000437892" /><text fill="black" x="4" y="702.986863231645">somefile00</text><line stroke="grey" x1="0" x2="704" y1="690.986863231645" y2="690.986863231645" /><text fill="black" x="4" y="722.5703790200944">somefile01</text><line stroke="grey" x1="0" x2="704" y1="710.5703790200944" y2="710.5703790200944" /><text fill="black" x="4" y="761.4576460857296">somefile02</text><line stroke="grey" x1="0" x2="704" y1="749.4576460857296" y2="749.4576460857296" /><text fill="black" x="4" y="800.2719311049482">somefile03</text><line stroke="grey" x1="0" x2="704" y1="788.2719311049482" y2="788.2719311049482" /><text fill="black" x="4" y="839.074052449764">somefile04</text><line stroke="grey" x1="0" x2="704" y1="827.074052449764" y2="827.074052449764" /><text fill="black" x="4" y="877.973483189802">somefile05</text><line stroke="grey" x1="0" x2="704" y1="865.973483189802" y2="865.973483189802" /><text fill="black" x="4" y="916.8850776042427">somefile06</text><line stroke="grey" x1="0" x2="704" y1="904.8850776042427" y2="904.8850776042427" /><text fill="black" x="4" y="955.7115262978641">somefile07</text><line stroke="grey" x1="0" x2="704" y1="943.7115262978641" y2="943.7115262978641" /><text fill="black" x="4" y="994.5744660146938">somefile08</text><line stroke="grey" x1="0" x2="704" y1="982.5744660146938" y2="982.5744660146938" /><text fill="black" x="4" y="1033.4860604291346">somefile09</text><line stroke="grey" x1="0" x2="704" y1="1021.4860604291346" y2="1021.4860604291346" /><text fill="black" x="4" y="1072.3854911691726">somefile10</text><line stroke="grey" x1="0" x2="704" y1="1060.3854911691726" y2="1060.3854911691726" /><line stroke="grey" x1="0" x2="704" y1="1099.2241035371967" y2="1099.2241035371967" /><line stroke="grey" stroke-width="8" x1="0" x2="704" y1="594.7740475842943" y2="594.7740475842943" /><line stroke="grey" x1="324" x2="324" y1="0" y2="1155.2241035371967" /><rect fill="white" height="16" stroke="black" stroke-width="2" width="16" x="330" y="1105.2241035371967" /><text fill="black" x="352" y="1117.2241035371967">Reading from resource</text><rect fill="lightgrey" height="16" stroke="black" stroke-width="2" width="16" x="330" y="1133.2241035371967" /><text fill="black" x="352" y="1145.2241035371967">Writing into resource</text><text fill="black" transform="rotate(270, 326, 41) translate(0, 10.0)" x="326" y="41">pread</text><rect fill="white" height="19.583515788449375" stroke="black" stroke-width="2" width="20" x="324" y="690.986863231645" /><rect fill="lightgrey" height="19.583515788449375" stroke="black" stroke-width="2" width="20" x="324" y="45.0" /><line marker-end="url(#arrow)" stroke="black" stroke-width="1" x1="334.0" x2="334.0" y1="700.7786211258697" y2="54.79175789422469" /><text fill="black" transform="rotate(270, 346, 41) translate(0, 10.0)" x="346" y="41">pread</text><rect fill="white" height="38.887267065635186" stroke="black" stroke-width="2" width="20" x="344" y="710.5703790200944" /><rect fill="lightgrey" height="38.887267065635186" stroke="black" stroke-width="2" width="20" x="344" y="64.58351578844938" /><line marker-end="url(#arrow)" stroke="black" stroke-width="1" x1="354.0" x2="354.0" y1="730.0140125529119" y2="84.02714932126696" /><text fill="black" transform="rotate(270, 366, 41) translate(0, 10.0)" x="366" y="41">pread</text><rect fill="white" height="38.81428501921861" stroke="black" stroke-width="2" width="20" x="364" y="749.4576460857296" /><rect fill="lightgrey" height="38.81428501921861" stroke="black" stroke-width="2" width="20" x="364" y="103.47078285408456" /><line marker-end="url(#arrow)" stroke="black" stroke-width="1" x1="374.0" x2="374.0" y1="768.864788595339" y2="122.87792536369386" /><text fill="black" transform="rotate(270, 386, 41) translate(0, 10.0)" x="386" y="41">pread</text><rect fill="white" height="38.802121344815845" stroke="black" stroke-width="2" width="20" x="384" y="788.2719311049482" /><rect fill="lightgrey" height="38.802121344815845" stroke="black" stroke-width="2" width="20" x="384" y="142.28506787330318" /><line marker-end="url(#arrow)" stroke="black" stroke-width="1" x1="394.0" x2="394.0" y1="807.6729917773561" y2="161.68612854571109" /><text fill="black" transform="rotate(270, 406, 41) translate(0, 10.0)" x="406" y="41">pread</text><rect fill="white" height="38.89943074003795" stroke="black" stroke-width="2" width="20" x="404" y="827.074052449764" /><rect fill="lightgrey" height="38.89943074003795" stroke="black" stroke-width="2" width="20" x="404" y="181.08718921811902" /><line marker-end="url(#arrow)" stroke="black" stroke-width="1" x1="414.0" x2="414.0" y1="846.5237678197831" y2="200.536904588138" /><text fill="black" transform="rotate(270, 426, 41) translate(0, 10.0)" x="426" y="41">pread</text><rect fill="white" height="38.911594414440714" stroke="black" stroke-width="2" width="20" x="424" y="865.973483189802" /><rect fill="lightgrey" height="38.911594414440714" stroke="black" stroke-width="2" width="20" x="424" y="219.98661995815698" /><line marker-end="url(#arrow)" stroke="black" stroke-width="1" x1="434.0" x2="434.0" y1="885.4292803970224" y2="239.44241716537732" /><text fill="black" transform="rotate(270, 446, 41) translate(0, 10.0)" x="446" y="41">pread</text><rect fill="white" height="38.82644869362137" stroke="black" stroke-width="2" width="20" x="444" y="904.8850776042427" /><rect fill="lightgrey" height="38.82644869362137" stroke="black" stroke-width="2" width="20" x="444" y="258.8982143725977" /><line marker-end="url(#arrow)" stroke="black" stroke-width="1" x1="454.0" x2="454.0" y1="924.2983019510534" y2="278.3114387194084" /><text fill="black" transform="rotate(270, 466, 41) translate(0, 10.0)" x="466" y="41">pread</text><rect fill="white" height="38.862939716829665" stroke="black" stroke-width="2" width="20" x="464" y="943.7115262978641" /><rect fill="lightgrey" height="38.862939716829665" stroke="black" stroke-width="2" width="20" x="464" y="297.7246630662191" /><line marker-end="url(#arrow)" stroke="black" stroke-width="1" x1="474.0" x2="474.0" y1="963.142996156279" y2="317.15613292463394" /><text fill="black" transform="rotate(270, 486, 41) translate(0, 10.0)" x="486" y="41">pread</text><rect fill="white" height="38.911594414440714" stroke="black" stroke-width="2" width="20" x="484" y="982.5744660146938" /><rect fill="lightgrey" height="38.911594414440714" stroke="black" stroke-width="2" width="20" x="484" y="368.58760278304874" /><line marker-end="url(#arrow)" stroke="black" stroke-width="1" x1="494.0" x2="494.0" y1="1002.0302632219142" y2="388.0433999902691" /><text fill="black" transform="rotate(270, 506, 41) translate(0, 10.0)" x="506" y="41">pread</text><rect fill="white" height="38.89943074003795" stroke="black" stroke-width="2" width="20" x="504" y="1021.4860604291346" /><rect fill="lightgrey" height="38.89943074003795" stroke="black" stroke-width="2" width="20" x="504" y="407.4991971974895" /><line marker-end="url(#arrow)" stroke="black" stroke-width="1" x1="514.0" x2="514.0" y1="1040.9357757991536" y2="426.94891256750844" /><text fill="black" transform="rotate(270, 526, 41) translate(0, 10.0)" x="526" y="41">pread</text><rect fill="white" height="38.83861236802414" stroke="black" stroke-width="2" width="20" x="524" y="1060.3854911691726" /><rect fill="lightgrey" height="38.83861236802414" stroke="black" stroke-width="2" width="20" x="524" y="446.3986279375274" /><line marker-end="url(#arrow)" stroke="black" stroke-width="1" x1="534.0" x2="534.0" y1="1079.8047973531848" y2="465.81793412153945" /><text fill="black" transform="rotate(270, 546, 41) translate(0, 10.0)" x="546" y="41">open</text><text fill="black" transform="rotate(270, 566, 41) translate(0, 10.0)" x="566" y="41">pread</text><rect fill="white" height="0.5838563713326522" stroke="black" stroke-width="2" width="20" x="564" y="690.4030068603124" /><rect fill="lightgrey" height="0.5838563713326522" stroke="black" stroke-width="2" width="20" x="564" y="574.7740475842943" /><line marker-end="url(#arrow)" stroke="black" stroke-width="1" x1="574.0" x2="574.0" y1="690.6949350459787" y2="575.0659757699606" /><text fill="black" transform="rotate(270, 586, 41) translate(0, 10.0)" x="586" y="41">pread</text><rect fill="white" height="0.8514572081934512" stroke="black" stroke-width="2" width="20" x="584" y="689.551549652119" /><rect fill="lightgrey" height="0.8514572081934512" stroke="black" stroke-width="2" width="20" x="584" y="336.58760278304874" /><line marker-end="url(#arrow)" stroke="black" stroke-width="1" x1="594.0" x2="594.0" y1="689.9772782562158" y2="337.01333138714546" /><text fill="black" transform="rotate(270, 606, 41) translate(0, 10.0)" x="606" y="41">pread</text><rect fill="white" height="50.58872184109376" stroke="black" stroke-width="2" width="20" x="604" y="638.8047000437892" /><rect fill="lightgrey" height="50.58872184109376" stroke="black" stroke-width="2" width="20" x="604" y="485.23724030555155" /><line marker-end="url(#arrow)" stroke="black" stroke-width="1" x1="614.0" x2="614.0" y1="664.0990609643361" y2="510.5316012260984" /><text fill="black" transform="rotate(270, 626, 41) translate(0, 10.0)" x="626" y="41">open</text><text fill="black" transform="rotate(270, 646, 41) translate(0, 10.0)" x="646" y="41">pread</text><rect fill="white" height="0.5838563713326522" stroke="black" stroke-width="2" width="20" x="644" y="638.2208436724566" /><rect fill="lightgrey" height="0.5838563713326522" stroke="black" stroke-width="2" width="20" x="644" y="574.7740475842943" /><line marker-end="url(#arrow)" stroke="black" stroke-width="1" x1="654.0" x2="654.0" y1="638.5127718581228" y2="575.0659757699606" /><text fill="black" transform="rotate(270, 666, 41) translate(0, 10.0)" x="666" y="41">pread</text><rect fill="white" height="0.34058288327738045" stroke="black" stroke-width="2" width="20" x="664" y="637.8802607891793" /><rect fill="lightgrey" height="0.34058288327738045" stroke="black" stroke-width="2" width="20" x="664" y="352.58760278304874" /><line marker-end="url(#arrow)" stroke="black" stroke-width="1" x1="674.0" x2="674.0" y1="638.050552230818" y2="352.75789422468745" /><text fill="black" transform="rotate(270, 686, 41) translate(0, 10.0)" x="686" y="41">pread</text><rect fill="white" height="38.948085437649006" stroke="black" stroke-width="2" width="20" x="684" y="598.7740475842943" /><rect fill="lightgrey" height="38.948085437649006" stroke="black" stroke-width="2" width="20" x="684" y="535.8259621466453" /><line marker-end="url(#arrow)" stroke="black" stroke-width="1" x1="694.0" x2="694.0" y1="618.2480903031188" y2="555.3000048654699" /></svg>