<?xml version="1.0" encoding="utf-8" ?>
<svg baseProfile="full" height="1190.4727179678805" style="font-family: monospace;" version="1.1" width="1629" xmlns="http://www.w3.org/2000/svg" xmlns:ev="http://www.w3.org/2001/xml-events" xmlns:xlink="http://www.w3.org/1999/xlink"><defs><marker id="arrow" markerHeight="4" markerUnits="strokeWidth" markerWidth="6" orient="auto" refX="6" refY="2.0"><polygon fill="black" points="0,0 6,2.0 0,4" stroke-width="0" /></marker></defs><rect fill="white" height="1190.4727179678805" stroke="grey" stroke-width="1" width="1629" x="0" y="0" /><text fill="black" x="4" y="57.0">ubuf-0x504190</text><line stroke="grey" x1="0" x2="1629" y1="45" y2="45" /><text fill="black" x="4" y="73.0">ubuf-0x504530</text><line stroke="grey" x1="0" x2="1629" y1="61" y2="61" /><text fill="black" x="4" y="89.0">ubuf-0x505e00</text><line stroke="grey" x1="0" x2="1629" y1="77" y2="77" /><text fill="black" x="4" y="105.0">ubuf-0x513530</text><line stroke="grey" x1="0" x2="1629" y1="93" y2="93" /><text fill="black" x="4" y="238.0918011746261">ubuf-0x53a738</text><line stroke="grey" x1="0" x2="1629" y1="226.0918011746261" y2="226.0918011746261" /><text fill="black" x="4" y="262.94354321178196">/etc/localtime</text><line stroke="grey" x1="0" x2="1629" y1="250.94354321178199" y2="250.94354321178199" /><text fill="black" x="4" y="278.94354321178196">/tmp/helios_leveldb/dbdir/000003.log</text><line stroke="grey" x1="0" x2="1629" y1="266.94354321178196" y2="266.94354321178196" /><text fill="black" x="4" y="721.2479549645418">/tmp/helios_leveldb/dbdir/000005.ldb</text><line stroke="grey" x1="0" x2="1629" y1="709.2479549645418" y2="709.2479549645418" /><text fill="black" x="4" y="1098.4727179678805">/tmp/helios_leveldb/dbdir/CURRENT</text><line stroke="grey" x1="0" x2="1629" y1="1086.4727179678805" y2="1086.4727179678805" /><text fill="black" x="4" y="1114.4727179678805">/tmp/helios_leveldb/dbdir/LOG</text><line stroke="grey" x1="0" x2="1629" y1="1102.4727179678805" y2="1102.4727179678805" /><text fill="black" x="4" y="1130.4727179678805">/tmp/helios_leveldb/dbdir/MANIFEST-000002</text><line stroke="grey" x1="0" x2="1629" y1="1118.4727179678805" y2="1118.4727179678805" /><line stroke="grey" x1="0" x2="1629" y1="1134.4727179678805" y2="1134.4727179678805" /><line stroke="grey" stroke-width="8" x1="0" x2="1629" y1="246.94354321178199" y2="246.94354321178199" /><line stroke="grey" x1="369" x2="369" y1="0" y2="1190.4727179678805" /><rect fill="white" height="16" stroke="black" stroke-width="2" width="16" x="375" y="1140.4727179678805" /><text fill="black" x="397" y="1152.4727179678805">Reading from resource</text><rect fill="lightgrey" height="16" stroke="black" stroke-width="2" width="16" x="375" y="1168.4727179678805" /><text fill="black" x="397" y="1180.4727179678805">Writing into resource</text><text fill="black" transform="rotate(270, 371, 41) translate(0, 10.0)" x="371" y="41">open</text><text fill="black" transform="rotate(270, 391, 41) translate(0, 10.0)" x="391" y="41">null</text><text fill="black" transform="rotate(270, 411, 41) translate(0, 10.0)" x="411" y="41">null</text><text fill="black" transform="rotate(270, 431, 41) translate(0, 10.0)" x="431" y="41">open</text><text fill="black" transform="rotate(270, 451, 41) translate(0, 10.0)" x="451" y="41">read</text><rect fill="white" height="0.0649862310422979" stroke="black" stroke-width="2" width="20" x="449" y="1086.4727179678805" /><rect fill="lightgrey" height="0.0649862310422979" stroke="black" stroke-width="2" width="20" x="449" y="45.0" /><line marker-end="url(#arrow)" stroke="black" stroke-width="1" x1="459.0" x2="459.0" y1="1086.5052110834017" y2="45.03249311552115" /><text fill="black" transform="rotate(270, 471, 41) translate(0, 10.0)" x="471" y="41">read</text><rect fill="white" height="0.0" stroke="black" stroke-width="2" width="20" x="469" y="1086.5377041989227" /><rect fill="lightgrey" height="0.0" stroke="black" stroke-width="2" width="20" x="469" y="45.0" /><line marker-end="url(#arrow)" stroke="black" stroke-width="1" x1="479.0" x2="479.0" y1="1086.5377041989227" y2="45.0" /><text fill="black" transform="rotate(270, 491, 41) translate(0, 10.0)" x="491" y="41">close</text><text fill="black" transform="rotate(270, 511, 41) translate(0, 10.0)" x="511" y="41">open</text><text fill="black" transform="rotate(270, 531, 41) translate(0, 10.0)" x="531" y="41">read</text><rect fill="white" height="0.20308197200718095" stroke="black" stroke-width="2" width="20" x="529" y="1118.4727179678805" /><rect fill="lightgrey" height="0.20308197200718095" stroke="black" stroke-width="2" width="20" x="529" y="93.0" /><line marker-end="url(#arrow)" stroke="black" stroke-width="1" x1="539.0" x2="539.0" y1="1118.574258953884" y2="93.10154098600358" /><text fill="black" transform="rotate(270, 551, 41) translate(0, 10.0)" x="551" y="41">close</text><text fill="black" transform="rotate(270, 571, 41) translate(0, 10.0)" x="571" y="41">open</text><text fill="black" transform="rotate(270, 591, 41) translate(0, 10.0)" x="591" y="41">null</text><text fill="black" transform="rotate(270, 611, 41) translate(0, 10.0)" x="611" y="41">null</text><text fill="black" transform="rotate(270, 631, 41) translate(0, 10.0)" x="631" y="41">null</text><text fill="black" transform="rotate(270, 651, 41) translate(0, 10.0)" x="651" y="41">close</text><text fill="black" transform="rotate(270, 671, 41) translate(0, 10.0)" x="671" y="41">open</text><text fill="black" transform="rotate(270, 691, 41) translate(0, 10.0)" x="691" y="41">open</text><text fill="black" transform="rotate(270, 711, 41) translate(0, 10.0)" x="711" y="41">null</text><text fill="black" transform="rotate(270, 731, 41) translate(0, 10.0)" x="731" y="41">null</text><text fill="black" transform="rotate(270, 751, 41) translate(0, 10.0)" x="751" y="41">read</text><rect fill="white" height="14.524422637953583" stroke="black" stroke-width="2" width="20" x="749" y="250.94354321178199" /><rect fill="lightgrey" height="14.524422637953583" stroke="black" stroke-width="2" width="20" x="749" y="61.0" /><line marker-end="url(#arrow)" stroke="black" stroke-width="1" x1="759.0" x2="759.0" y1="258.2057545307588" y2="68.2622113189768" /><text fill="black" transform="rotate(270, 771, 41) translate(0, 10.0)" x="771" y="41">lseek</text><text fill="black" transform="rotate(270, 791, 41) translate(0, 10.0)" x="791" y="41">read</text><rect fill="white" height="9.228044808006302" stroke="black" stroke-width="2" width="20" x="789" y="256.23992104172925" /><rect fill="lightgrey" height="9.228044808006302" stroke="black" stroke-width="2" width="20" x="789" y="61.0" /><line marker-end="url(#arrow)" stroke="black" stroke-width="1" x1="799.0" x2="799.0" y1="260.8539434457324" y2="65.61402240400315" /><text fill="black" transform="rotate(270, 811, 41) translate(0, 10.0)" x="811" y="41">close</text><text fill="black" transform="rotate(270, 831, 41) translate(0, 10.0)" x="831" y="41">null</text><text fill="black" transform="rotate(270, 851, 41) translate(0, 10.0)" x="851" y="41">write</text><rect fill="lightgrey" height="0.24776000584876076" stroke="black" stroke-width="2" width="20" x="849" y="1102.4727179678805" /><rect fill="white" height="0.24776000584876076" stroke="black" stroke-width="2" width="20" x="849" y="77.0" /><line marker-end="url(#arrow)" stroke="black" stroke-width="1" x1="859.0" x2="859.0" y1="77.12388000292438" y2="1102.5965979708049" /><text fill="black" transform="rotate(270, 871, 41) translate(0, 10.0)" x="871" y="41">read</text><rect fill="white" height="133.0918011746261" stroke="black" stroke-width="2" width="20" x="869" y="266.94354321178196" /><rect fill="lightgrey" height="133.0918011746261" stroke="black" stroke-width="2" width="20" x="869" y="93.0" /><line marker-end="url(#arrow)" stroke="black" stroke-width="1" x1="879.0" x2="879.0" y1="333.489443799095" y2="159.54590058731304" /><text fill="black" transform="rotate(270, 891, 41) translate(0, 10.0)" x="891" y="41">read</text><rect fill="white" height="133.0918011746261" stroke="black" stroke-width="2" width="20" x="889" y="400.03534438640804" /><rect fill="lightgrey" height="133.0918011746261" stroke="black" stroke-width="2" width="20" x="889" y="93.0" /><line marker-end="url(#arrow)" stroke="black" stroke-width="1" x1="899.0" x2="899.0" y1="466.5812449737211" y2="159.54590058731304" /><text fill="black" transform="rotate(270, 911, 41) translate(0, 10.0)" x="911" y="41">read</text><rect fill="white" height="133.0918011746261" stroke="black" stroke-width="2" width="20" x="909" y="533.1271455610342" /><rect fill="lightgrey" height="133.0918011746261" stroke="black" stroke-width="2" width="20" x="909" y="93.0" /><line marker-end="url(#arrow)" stroke="black" stroke-width="1" x1="919.0" x2="919.0" y1="599.6730461483473" y2="159.54590058731304" /><text fill="black" transform="rotate(270, 931, 41) translate(0, 10.0)" x="931" y="41">read</text><rect fill="white" height="43.0290082288815" stroke="black" stroke-width="2" width="20" x="929" y="666.2189467356603" /><rect fill="lightgrey" height="43.0290082288815" stroke="black" stroke-width="2" width="20" x="929" y="93.0" /><line marker-end="url(#arrow)" stroke="black" stroke-width="1" x1="939.0" x2="939.0" y1="687.7334508501011" y2="114.51450411444075" /><text fill="black" transform="rotate(270, 951, 41) translate(0, 10.0)" x="951" y="41">close</text><text fill="black" transform="rotate(270, 971, 41) translate(0, 10.0)" x="971" y="41">write</text><rect fill="lightgrey" height="0.2802531213699097" stroke="black" stroke-width="2" width="20" x="969" y="1102.7204779737292" /><rect fill="white" height="0.2802531213699097" stroke="black" stroke-width="2" width="20" x="969" y="77.0" /><line marker-end="url(#arrow)" stroke="black" stroke-width="1" x1="979.0" x2="979.0" y1="77.14012656068495" y2="1102.860604534414" /><text fill="black" transform="rotate(270, 991, 41) translate(0, 10.0)" x="991" y="41">open</text><text fill="black" transform="rotate(270, 1011, 41) translate(0, 10.0)" x="1011" y="41">write</text><rect fill="lightgrey" height="16.839557118835444" stroke="black" stroke-width="2" width="20" x="1009" y="709.2479549645418" /><rect fill="white" height="16.839557118835444" stroke="black" stroke-width="2" width="20" x="1009" y="226.0918011746261" /><line marker-end="url(#arrow)" stroke="black" stroke-width="1" x1="1019.0" x2="1019.0" y1="234.51157973404383" y2="717.6677335239596" /><text fill="black" transform="rotate(270, 1031, 41) translate(0, 10.0)" x="1031" y="41">write</text><rect fill="lightgrey" height="16.819248921634728" stroke="black" stroke-width="2" width="20" x="1029" y="726.0875120833773" /><rect fill="white" height="16.819248921634728" stroke="black" stroke-width="2" width="20" x="1029" y="226.0918011746261" /><line marker-end="url(#arrow)" stroke="black" stroke-width="1" x1="1039.0" x2="1039.0" y1="234.50142563544347" y2="734.4971365441946" /><text fill="black" transform="rotate(270, 1051, 41) translate(0, 10.0)" x="1051" y="41">write</text><rect fill="lightgrey" height="16.815187282194582" stroke="black" stroke-width="2" width="20" x="1049" y="742.906761005012" /><rect fill="white" height="16.815187282194582" stroke="black" stroke-width="2" width="20" x="1049" y="226.0918011746261" /><line marker-end="url(#arrow)" stroke="black" stroke-width="1" x1="1059.0" x2="1059.0" y1="234.4993948157234" y2="751.3143546461092" /><text fill="black" transform="rotate(270, 1071, 41) translate(0, 10.0)" x="1071" y="41">write</text><rect fill="lightgrey" height="16.84768039771573" stroke="black" stroke-width="2" width="20" x="1069" y="759.7219482872066" /><rect fill="white" height="16.84768039771573" stroke="black" stroke-width="2" width="20" x="1069" y="226.0918011746261" /><line marker-end="url(#arrow)" stroke="black" stroke-width="1" x1="1079.0" x2="1079.0" y1="234.515641373484" y2="768.1457884860645" /><text fill="black" transform="rotate(270, 1091, 41) translate(0, 10.0)" x="1091" y="41">write</text><rect fill="lightgrey" height="16.82331056107487" stroke="black" stroke-width="2" width="20" x="1089" y="776.5696286849222" /><rect fill="white" height="16.82331056107487" stroke="black" stroke-width="2" width="20" x="1089" y="226.0918011746261" /><line marker-end="url(#arrow)" stroke="black" stroke-width="1" x1="1099.0" x2="1099.0" y1="234.50345645516356" y2="784.9812839654596" /><text fill="black" transform="rotate(270, 1111, 41) translate(0, 10.0)" x="1111" y="41">write</text><rect fill="lightgrey" height="16.803002363874153" stroke="black" stroke-width="2" width="20" x="1109" y="793.3929392459971" /><rect fill="white" height="16.803002363874153" stroke="black" stroke-width="2" width="20" x="1109" y="226.0918011746261" /><line marker-end="url(#arrow)" stroke="black" stroke-width="1" x1="1119.0" x2="1119.0" y1="234.4933023565632" y2="801.7944404279342" /><text fill="black" transform="rotate(270, 1131, 41) translate(0, 10.0)" x="1131" y="41">write</text><rect fill="lightgrey" height="16.84361875827559" stroke="black" stroke-width="2" width="20" x="1129" y="810.1959416098713" /><rect fill="white" height="16.84361875827559" stroke="black" stroke-width="2" width="20" x="1129" y="226.0918011746261" /><line marker-end="url(#arrow)" stroke="black" stroke-width="1" x1="1139.0" x2="1139.0" y1="234.5136105537639" y2="818.6177509890091" /><text fill="black" transform="rotate(270, 1151, 41) translate(0, 10.0)" x="1151" y="41">write</text><rect fill="lightgrey" height="16.815187282194582" stroke="black" stroke-width="2" width="20" x="1149" y="827.0395603681469" /><rect fill="white" height="16.815187282194582" stroke="black" stroke-width="2" width="20" x="1149" y="226.0918011746261" /><line marker-end="url(#arrow)" stroke="black" stroke-width="1" x1="1159.0" x2="1159.0" y1="234.4993948157234" y2="835.4471540092442" /><text fill="black" transform="rotate(270, 1171, 41) translate(0, 10.0)" x="1171" y="41">write</text><rect fill="lightgrey" height="16.835495479395302" stroke="black" stroke-width="2" width="20" x="1169" y="843.8547476503416" /><rect fill="white" height="16.835495479395302" stroke="black" stroke-width="2" width="20" x="1169" y="226.0918011746261" /><line marker-end="url(#arrow)" stroke="black" stroke-width="1" x1="1179.0" x2="1179.0" y1="234.50954891432377" y2="852.2724953900392" /><text fill="black" transform="rotate(270, 1191, 41) translate(0, 10.0)" x="1191" y="41">write</text><rect fill="lightgrey" height="16.815187282194582" stroke="black" stroke-width="2" width="20" x="1189" y="860.6902431297368" /><rect fill="white" height="16.815187282194582" stroke="black" stroke-width="2" width="20" x="1189" y="226.0918011746261" /><line marker-end="url(#arrow)" stroke="black" stroke-width="1" x1="1199.0" x2="1199.0" y1="234.4993948157234" y2="869.0978367708341" /><text fill="black" transform="rotate(270, 1211, 41) translate(0, 10.0)" x="1211" y="41">write</text><rect fill="lightgrey" height="16.819248921634728" stroke="black" stroke-width="2" width="20" x="1209" y="877.5054304119313" /><rect fill="white" height="16.819248921634728" stroke="black" stroke-width="2" width="20" x="1209" y="226.0918011746261" /><line marker-end="url(#arrow)" stroke="black" stroke-width="1" x1="1219.0" x2="1219.0" y1="234.50142563544347" y2="885.9150548727487" /><text fill="black" transform="rotate(270, 1231, 41) translate(0, 10.0)" x="1231" y="41">write</text><rect fill="lightgrey" height="16.803002363874153" stroke="black" stroke-width="2" width="20" x="1229" y="894.3246793335661" /><rect fill="white" height="16.803002363874153" stroke="black" stroke-width="2" width="20" x="1229" y="226.0918011746261" /><line marker-end="url(#arrow)" stroke="black" stroke-width="1" x1="1239.0" x2="1239.0" y1="234.4933023565632" y2="902.7261805155032" /><text fill="black" transform="rotate(270, 1251, 41) translate(0, 10.0)" x="1251" y="41">write</text><rect fill="lightgrey" height="16.831433839955157" stroke="black" stroke-width="2" width="20" x="1249" y="911.1276816974403" /><rect fill="white" height="16.831433839955157" stroke="black" stroke-width="2" width="20" x="1249" y="226.0918011746261" /><line marker-end="url(#arrow)" stroke="black" stroke-width="1" x1="1259.0" x2="1259.0" y1="234.50751809460368" y2="919.5433986174179" /><text fill="black" transform="rotate(270, 1271, 41) translate(0, 10.0)" x="1271" y="41">write</text><rect fill="lightgrey" height="16.835495479395302" stroke="black" stroke-width="2" width="20" x="1269" y="927.9591155373954" /><rect fill="white" height="16.835495479395302" stroke="black" stroke-width="2" width="20" x="1269" y="226.0918011746261" /><line marker-end="url(#arrow)" stroke="black" stroke-width="1" x1="1279.0" x2="1279.0" y1="234.50954891432377" y2="936.3768632770931" /><text fill="black" transform="rotate(270, 1291, 41) translate(0, 10.0)" x="1291" y="41">write</text><rect fill="lightgrey" height="16.798940724434008" stroke="black" stroke-width="2" width="20" x="1289" y="944.7946110167907" /><rect fill="white" height="16.798940724434008" stroke="black" stroke-width="2" width="20" x="1289" y="226.0918011746261" /><line marker-end="url(#arrow)" stroke="black" stroke-width="1" x1="1299.0" x2="1299.0" y1="234.49127153684313" y2="953.1940813790077" /><text fill="black" transform="rotate(270, 1311, 41) translate(0, 10.0)" x="1311" y="41">write</text><rect fill="lightgrey" height="16.835495479395302" stroke="black" stroke-width="2" width="20" x="1309" y="961.5935517412247" /><rect fill="white" height="16.835495479395302" stroke="black" stroke-width="2" width="20" x="1309" y="226.0918011746261" /><line marker-end="url(#arrow)" stroke="black" stroke-width="1" x1="1319.0" x2="1319.0" y1="234.50954891432377" y2="970.0112994809224" /><text fill="black" transform="rotate(270, 1331, 41) translate(0, 10.0)" x="1331" y="41">write</text><rect fill="lightgrey" height="16.835495479395302" stroke="black" stroke-width="2" width="20" x="1329" y="978.4290472206201" /><rect fill="white" height="16.835495479395302" stroke="black" stroke-width="2" width="20" x="1329" y="226.0918011746261" /><line marker-end="url(#arrow)" stroke="black" stroke-width="1" x1="1339.0" x2="1339.0" y1="234.50954891432377" y2="986.8467949603178" /><text fill="black" transform="rotate(270, 1351, 41) translate(0, 10.0)" x="1351" y="41">write</text><rect fill="lightgrey" height="16.78675580611358" stroke="black" stroke-width="2" width="20" x="1349" y="995.2645427000153" /><rect fill="white" height="16.78675580611358" stroke="black" stroke-width="2" width="20" x="1349" y="226.0918011746261" /><line marker-end="url(#arrow)" stroke="black" stroke-width="1" x1="1359.0" x2="1359.0" y1="234.48517907768291" y2="1003.6579206030722" /><text fill="black" transform="rotate(270, 1371, 41) translate(0, 10.0)" x="1371" y="41">write</text><rect fill="lightgrey" height="16.839557118835444" stroke="black" stroke-width="2" width="20" x="1369" y="1012.0512985061289" /><rect fill="white" height="16.839557118835444" stroke="black" stroke-width="2" width="20" x="1369" y="226.0918011746261" /><line marker-end="url(#arrow)" stroke="black" stroke-width="1" x1="1379.0" x2="1379.0" y1="234.51157973404383" y2="1020.4710770655466" /><text fill="black" transform="rotate(270, 1391, 41) translate(0, 10.0)" x="1391" y="41">write</text><rect fill="lightgrey" height="16.851742037155876" stroke="black" stroke-width="2" width="20" x="1389" y="1028.8908556249644" /><rect fill="white" height="16.851742037155876" stroke="black" stroke-width="2" width="20" x="1389" y="226.0918011746261" /><line marker-end="url(#arrow)" stroke="black" stroke-width="1" x1="1399.0" x2="1399.0" y1="234.51767219320405" y2="1037.3167266435423" /><text fill="black" transform="rotate(270, 1411, 41) translate(0, 10.0)" x="1411" y="41">write</text><rect fill="lightgrey" height="16.79081744555372" stroke="black" stroke-width="2" width="20" x="1409" y="1045.7425976621203" /><rect fill="white" height="16.79081744555372" stroke="black" stroke-width="2" width="20" x="1409" y="226.0918011746261" /><line marker-end="url(#arrow)" stroke="black" stroke-width="1" x1="1419.0" x2="1419.0" y1="234.48720989740298" y2="1054.1380063848972" /><text fill="black" transform="rotate(270, 1431, 41) translate(0, 10.0)" x="1431" y="41">write</text><rect fill="lightgrey" height="16.827372200515015" stroke="black" stroke-width="2" width="20" x="1429" y="1062.533415107674" /><rect fill="white" height="16.827372200515015" stroke="black" stroke-width="2" width="20" x="1429" y="226.0918011746261" /><line marker-end="url(#arrow)" stroke="black" stroke-width="1" x1="1439.0" x2="1439.0" y1="234.50548727488362" y2="1070.9471012079316" /><text fill="black" transform="rotate(270, 1451, 41) translate(0, 10.0)" x="1451" y="41">write</text><rect fill="lightgrey" height="3.7732630398934224" stroke="black" stroke-width="2" width="20" x="1449" y="1079.360787308189" /><rect fill="white" height="3.7732630398934224" stroke="black" stroke-width="2" width="20" x="1449" y="226.0918011746261" /><line marker-end="url(#arrow)" stroke="black" stroke-width="1" x1="1459.0" x2="1459.0" y1="227.97843269457283" y2="1081.2474188281356" /><text fill="black" transform="rotate(270, 1471, 41) translate(0, 10.0)" x="1471" y="41">write</text><rect fill="lightgrey" height="3.338667619798055" stroke="black" stroke-width="2" width="20" x="1469" y="1083.1340503480824" /><rect fill="white" height="3.338667619798055" stroke="black" stroke-width="2" width="20" x="1469" y="226.0918011746261" /><line marker-end="url(#arrow)" stroke="black" stroke-width="1" x1="1479.0" x2="1479.0" y1="227.76113498452514" y2="1084.8033841579813" /><text fill="black" transform="rotate(270, 1491, 41) translate(0, 10.0)" x="1491" y="41">null</text><text fill="black" transform="rotate(270, 1511, 41) translate(0, 10.0)" x="1511" y="41">close</text><text fill="black" transform="rotate(270, 1531, 41) translate(0, 10.0)" x="1531" y="41">open</text><text fill="black" transform="rotate(270, 1551, 41) translate(0, 10.0)" x="1551" y="41">null</text><text fill="black" transform="rotate(270, 1571, 41) translate(0, 10.0)" x="1571" y="41">null</text><text fill="black" transform="rotate(270, 1591, 41) translate(0, 10.0)" x="1591" y="41">close</text><text fill="black" transform="rotate(270, 1611, 41) translate(0, 10.0)" x="1611" y="41">write</text><rect fill="lightgrey" height="0.30868459745091503" stroke="black" stroke-width="2" width="20" x="1609" y="1103.0007310950991" /><rect fill="white" height="0.30868459745091503" stroke="black" stroke-width="2" width="20" x="1609" y="77.0" /><line marker-end="url(#arrow)" stroke="black" stroke-width="1" x1="1619.0" x2="1619.0" y1="77.15434229872545" y2="1103.1550733938245" /></svg>