<?xml version="1.0" encoding="utf-8" ?>
<svg baseProfile="full" height="1129.4305069264728" style="font-family: monospace;" version="1.1" width="744" xmlns="http://www.w3.org/2000/svg" xmlns:ev="http://www.w3.org/2001/xml-events" xmlns:xlink="http://www.w3.org/1999/xlink"><defs><marker id="arrow" markerHeight="4" markerUnits="strokeWidth" markerWidth="6" orient="auto" refX="6" refY="2.0"><polygon fill="black" points="0,0 6,2.0 0,4" stroke-width="0" /></marker></defs><rect fill="white" height="1129.4305069264728" stroke="grey" stroke-width="1" width="744" x="0" y="0" /><text fill="black" x="4" y="57.0">ubuf-0x7ffff0018e50</text><line stroke="grey" x1="0" x2="744" y1="45" y2="45" /><text fill="black" x="4" y="73.0">ubuf-0x7ffff001b8c8</text><line stroke="grey" x1="0" x2="744" y1="61" y2="61" /><text fill="black" x="4" y="560.4410108083423">ubuf-0x7ffff7a505c0</text><line stroke="grey" x1="0" x2="744" y1="548.4410108083423" y2="548.4410108083423" /><text fill="black" x="4" y="584.4410108083423">/tmp/helios_leveldb/dbdir/000094.ldb</text><line stroke="grey" x1="0" x2="744" y1="572.4410108083423" y2="572.4410108083423" /><line stroke="grey" x1="0" x2="744" y1="1073.4305069264728" y2="1073.4305069264728" /><line stroke="grey" stroke-width="8" x1="0" x2="744" y1="568.4410108083423" y2="568.4410108083423" /><line stroke="grey" x1="324" x2="324" y1="0" y2="1129.4305069264728" /><rect fill="white" height="16" stroke="black" stroke-width="2" width="16" x="330" y="1079.4305069264728" /><text fill="black" x="352" y="1091.4305069264728">Reading from resource</text><rect fill="lightgrey" height="16" stroke="black" stroke-width="2" width="16" x="330" y="1107.4305069264728" /><text fill="black" x="352" y="1119.4305069264728">Writing into resource</text><text fill="black" transform="rotate(270, 326, 41) translate(0, 10.0)" x="326" y="41">null</text><text fill="black" transform="rotate(270, 346, 41) translate(0, 10.0)" x="346" y="41">open</text><text fill="black" transform="rotate(270, 366, 41) translate(0, 10.0)" x="366" y="41">write</text><rect fill="lightgrey" height="487.44101080834224" stroke="black" stroke-width="2" width="20" x="364" y="572.4410108083423" /><rect fill="white" height="487.44101080834224" stroke="black" stroke-width="2" width="20" x="364" y="61.0" /><line marker-end="url(#arrow)" stroke="black" stroke-width="1" x1="374.0" x2="374.0" y1="304.72050540417115" y2="816.1615162125134" /><text fill="black" transform="rotate(270, 386, 41) translate(0, 10.0)" x="386" y="41">write</text><rect fill="lightgrey" height="13.5484853097884" stroke="black" stroke-width="2" width="20" x="384" y="1059.8820216166846" /><rect fill="white" height="13.5484853097884" stroke="black" stroke-width="2" width="20" x="384" y="61.0" /><line marker-end="url(#arrow)" stroke="black" stroke-width="1" x1="394.0" x2="394.0" y1="67.7742426548942" y2="1066.6562642715787" /><text fill="black" transform="rotate(270, 406, 41) translate(0, 10.0)" x="406" y="41">null</text><text fill="black" transform="rotate(270, 426, 41) translate(0, 10.0)" x="426" y="41">close</text><text fill="black" transform="rotate(270, 446, 41) translate(0, 10.0)" x="446" y="41">open</text><text fill="black" transform="rotate(270, 466, 41) translate(0, 10.0)" x="466" y="41">pread</text><rect fill="white" height="7.307048256964531" stroke="black" stroke-width="2" width="20" x="464" y="1066.1234586695084" /><rect fill="lightgrey" height="7.307048256964531" stroke="black" stroke-width="2" width="20" x="464" y="548.4410108083423" /><line marker-end="url(#arrow)" stroke="black" stroke-width="1" x1="474.0" x2="474.0" y1="1069.7769827979907" y2="552.0945349368245" /><line stroke="black" stroke-width="1" x1="394.0" x2="474.0" y1="1069.7769827979907" y2="1069.7769827979907" /><text fill="black" transform="rotate(270, 486, 41) translate(0, 10.0)" x="486" y="41">pread</text><rect fill="white" height="4.262444816562643" stroke="black" stroke-width="2" width="20" x="484" y="1061.8610138529457" /><rect fill="lightgrey" height="4.262444816562643" stroke="black" stroke-width="2" width="20" x="484" y="45.0" /><line marker-end="url(#arrow)" stroke="black" stroke-width="1" x1="494.0" x2="494.0" y1="1063.992236261227" y2="47.131222408281324" /><line stroke="black" stroke-width="1" x1="394.0" x2="494.0" y1="1063.992236261227" y2="1063.992236261227" /><text fill="black" transform="rotate(270, 506, 41) translate(0, 10.0)" x="506" y="41">null</text><text fill="black" transform="rotate(270, 526, 41) translate(0, 10.0)" x="526" y="41">null</text><text fill="black" transform="rotate(270, 546, 41) translate(0, 10.0)" x="546" y="41">open</text><text fill="black" transform="rotate(270, 566, 41) translate(0, 10.0)" x="566" y="41">null</text><text fill="black" transform="rotate(270, 586, 41) translate(0, 10.0)" x="586" y="41">close</text><text fill="black" transform="rotate(270, 606, 41) translate(0, 10.0)" x="606" y="41">null</text><text fill="black" transform="rotate(270, 626, 41) translate(0, 10.0)" x="626" y="41">open</text><text fill="black" transform="rotate(270, 646, 41) translate(0, 10.0)" x="646" y="41">null</text><text fill="black" transform="rotate(270, 666, 41) translate(0, 10.0)" x="666" y="41">null</text><text fill="black" transform="rotate(270, 686, 41) translate(0, 10.0)" x="686" y="41">null</text><text fill="black" transform="rotate(270, 706, 41) translate(0, 10.0)" x="706" y="41">close</text><text fill="black" transform="rotate(270, 726, 41) translate(0, 10.0)" x="726" y="41">null</text></svg>