<?xml version="1.0" encoding="utf-8" ?>
<svg baseProfile="full" height="1109.0" style="font-family: monospace;" version="1.1" width="364" xmlns="http://www.w3.org/2000/svg" xmlns:ev="http://www.w3.org/2001/xml-events" xmlns:xlink="http://www.w3.org/1999/xlink"><defs><marker id="arrow" markerHeight="4" markerUnits="strokeWidth" markerWidth="6" orient="auto" refX="6" refY="2.0"><polygon fill="black" points="0,0 6,2.0 0,4" stroke-width="0" /></marker></defs><rect fill="white" height="1109.0" stroke="grey" stroke-width="1" width="364" x="0" y="0" /><text fill="black" x="4" y="57.0">ubuf-0x508228</text><line stroke="grey" x1="0" x2="364" y1="45" y2="45" /><text fill="black" x="4" y="565.0">/tmp/helios_leveldb/dbdir/000101.log</text><line stroke="grey" x1="0" x2="364" y1="553.0" y2="553.0" /><line stroke="grey" x1="0" x2="364" y1="1053.0" y2="1053.0" /><line stroke="grey" stroke-width="8" x1="0" x2="364" y1="549.0" y2="549.0" /><line stroke="grey" x1="324" x2="324" y1="0" y2="1109.0" /><rect fill="white" height="16" stroke="black" stroke-width="2" width="16" x="330" y="1059.0" /><text fill="black" x="352" y="1071.0">Reading from resource</text><rect fill="lightgrey" height="16" stroke="black" stroke-width="2" width="16" x="330" y="1087.0" /><text fill="black" x="352" y="1099.0">Writing into resource</text><text fill="black" transform="rotate(270, 326, 41) translate(0, 10.0)" x="326" y="41">write</text><rect fill="lightgrey" height="500.0" stroke="black" stroke-width="2" width="20" x="324" y="553.0" /><rect fill="white" height="500.0" stroke="black" stroke-width="2" width="20" x="324" y="45.0" /><line marker-end="url(#arrow)" stroke="black" stroke-width="1" x1="334.0" x2="334.0" y1="295.0" y2="803.0" /><text fill="black" transform="rotate(270, 346, 41) translate(0, 10.0)" x="346" y="41">null</text></svg>