<?xml version="1.0" encoding="utf-8" ?>
<svg baseProfile="full" height="160" style="font-family: monospace;" version="1.1" width="5608" xmlns="http://www.w3.org/2000/svg" xmlns:ev="http://www.w3.org/2001/xml-events" xmlns:xlink="http://www.w3.org/1999/xlink"><defs /><rect fill="white" height="160" stroke="grey" stroke-width="1" width="5608" x="0" y="0" /><rect class="framebox" fill="white" height="20" id="framebox-0" stroke="rgb(0,0,180)" stroke-width="1" width="54" x="28" y="100"><title>openat</title></rect><text fill="black" pointer-events="none" x="30" y="115">openat<title>openat</title></text><rect class="framebox" fill="white" height="20" id="framebox-1" stroke="rgb(0,0,180)" stroke-width="1" width="36" x="100" y="100"><title>read</title></rect><text fill="black" pointer-events="none" x="102" y="115">read<title>read</title></text><line stroke="black" stroke-width="2" x1="94" x2="94" y1="90" y2="120" /><line stroke="black" stroke-width="2" x1="142" x2="142" y1="90" y2="120" /><line stroke="black" stroke-width="2" x1="94" x2="103" y1="90" y2="90" /><line stroke="black" stroke-width="2" x1="142" x2="133" y1="90" y2="90" /><text fill="black" x="147" y="110">x 5</text><rect class="framebox" fill="white" height="20" id="framebox-2" stroke="rgb(0,0,180)" stroke-width="1" width="45" x="190" y="100"><title>close</title></rect><text fill="black" pointer-events="none" x="192" y="115">close<title>close</title></text><rect class="framebox" fill="white" height="20" id="framebox-3" stroke="rgb(0,0,180)" stroke-width="1" width="54" x="289" y="60"><title>rename</title></rect><text fill="black" pointer-events="none" x="291" y="75">rename<title>rename</title></text><rect class="framebox" fill="white" height="20" id="framebox-4" stroke="rgb(0,0,180)" stroke-width="1" width="54" x="361" y="60"><title>openat</title></rect><text fill="black" pointer-events="none" x="363" y="75">openat<title>openat</title></text><rect class="framebox" fill="white" height="20" id="framebox-5" stroke="rgb(0,0,180)" stroke-width="1" width="45" x="433" y="60"><title>fcntl</title></rect><text fill="black" pointer-events="none" x="435" y="75">fcntl<title>fcntl</title></text><rect class="framebox" fill="white" height="20" id="framebox-6" stroke="rgb(255,0,0)" stroke-width="1" width="225" x="271" y="80"><title>leveldb::SanitizeOptions~1</title></rect><text fill="black" pointer-events="none" x="273" y="95">leveldb::SanitizeOption..<title>leveldb::SanitizeOptions~1</title></text><rect class="framebox" fill="white" height="20" id="framebox-7" stroke="rgb(0,0,180)" stroke-width="1" width="54" x="532" y="60"><title>openat</title></rect><text fill="black" pointer-events="none" x="534" y="75">openat<title>openat</title></text><rect class="framebox" fill="white" height="20" id="framebox-8" stroke="rgb(0,0,180)" stroke-width="1" width="45" x="604" y="60"><title>fcntl</title></rect><text fill="black" pointer-events="none" x="606" y="75">fcntl<title>fcntl</title></text><rect class="framebox" fill="white" height="20" id="framebox-9" stroke="rgb(0,0,180)" stroke-width="1" width="54" x="667" y="60"><title>access</title></rect><text fill="black" pointer-events="none" x="669" y="75">access<title>access</title></text><rect class="framebox" fill="white" height="20" id="framebox-10" stroke="rgb(0,0,180)" stroke-width="1" width="54" x="775" y="20"><title>openat</title></rect><text fill="black" pointer-events="none" x="777" y="35">openat<title>openat</title></text><rect class="framebox" fill="white" height="20" id="framebox-11" stroke="rgb(0,0,180)" stroke-width="1" width="36" x="847" y="20"><title>read</title></rect><text fill="black" pointer-events="none" x="849" y="35">read<title>read</title></text><line stroke="black" stroke-width="2" x1="841" x2="841" y1="10" y2="40" /><line stroke="black" stroke-width="2" x1="889" x2="889" y1="10" y2="40" /><line stroke="black" stroke-width="2" x1="841" x2="850" y1="10" y2="10" /><line stroke="black" stroke-width="2" x1="889" x2="880" y1="10" y2="10" /><text fill="black" x="894" y="30">x 2</text><rect class="framebox" fill="white" height="20" id="framebox-12" stroke="rgb(0,0,180)" stroke-width="1" width="45" x="937" y="20"><title>close</title></rect><text fill="black" pointer-events="none" x="939" y="35">close<title>close</title></text><rect class="framebox" fill="white" height="20" id="framebox-13" stroke="rgb(255,85,0)" stroke-width="1" width="243" x="757" y="40"><title>leveldb::ReadFileToString~1</title></rect><text fill="black" pointer-events="none" x="759" y="55">leveldb::ReadFileToString..<title>leveldb::ReadFileToString~1</title></text><rect class="framebox" fill="white" height="20" id="framebox-14" stroke="rgb(0,0,180)" stroke-width="1" width="54" x="1018" y="40"><title>openat</title></rect><text fill="black" pointer-events="none" x="1020" y="55">openat<title>openat</title></text><rect class="framebox" fill="white" height="20" id="framebox-15" stroke="rgb(0,0,180)" stroke-width="1" width="36" x="1090" y="40"><title>read</title></rect><text fill="black" pointer-events="none" x="1092" y="55">read<title>read</title></text><rect class="framebox" fill="white" height="20" id="framebox-16" stroke="rgb(0,0,180)" stroke-width="1" width="45" x="1144" y="40"><title>close</title></rect><text fill="black" pointer-events="none" x="1146" y="55">close<title>close</title></text><rect class="framebox" fill="white" height="20" id="framebox-17" stroke="rgb(255,42,0)" stroke-width="1" width="468" x="739" y="60"><title>leveldb::VersionSet::Recover~1</title></rect><text fill="black" pointer-events="none" x="741" y="75">leveldb::VersionSet::Recover~1<title>leveldb::VersionSet::Recover~1</title></text><rect class="framebox" fill="white" height="20" id="framebox-18" stroke="rgb(0,0,180)" stroke-width="1" width="54" x="1225" y="60"><title>openat</title></rect><text fill="black" pointer-events="none" x="1227" y="75">openat<title>openat</title></text><rect class="framebox" fill="white" height="20" id="framebox-19" stroke="rgb(0,0,180)" stroke-width="1" width="45" x="1297" y="60"><title>fstat</title></rect><text fill="black" pointer-events="none" x="1299" y="75">fstat<title>fstat</title></text><rect class="framebox" fill="white" height="20" id="framebox-20" stroke="rgb(0,0,180)" stroke-width="1" width="90" x="1360" y="60"><title>getdents64</title></rect><text fill="black" pointer-events="none" x="1362" y="75">getdents64<title>getdents64</title></text><line stroke="black" stroke-width="2" x1="1354" x2="1354" y1="50" y2="80" /><line stroke="black" stroke-width="2" x1="1456" x2="1456" y1="50" y2="80" /><line stroke="black" stroke-width="2" x1="1354" x2="1363" y1="50" y2="50" /><line stroke="black" stroke-width="2" x1="1456" x2="1447" y1="50" y2="50" /><text fill="black" x="1461" y="70">x 2</text><rect class="framebox" fill="white" height="20" id="framebox-21" stroke="rgb(0,0,180)" stroke-width="1" width="45" x="1504" y="60"><title>close</title></rect><text fill="black" pointer-events="none" x="1506" y="75">close<title>close</title></text><rect class="framebox" fill="white" height="20" id="framebox-22" stroke="rgb(0,0,180)" stroke-width="1" width="54" x="1567" y="60"><title>openat</title></rect><text fill="black" pointer-events="none" x="1569" y="75">openat<title>openat</title></text><rect class="framebox" fill="white" height="20" id="framebox-23" stroke="rgb(0,0,180)" stroke-width="1" width="54" x="1657" y="40"><title>openat</title></rect><text fill="black" pointer-events="none" x="1659" y="55">openat<title>openat</title></text><rect class="framebox" fill="white" height="20" id="framebox-24" stroke="rgb(0,0,180)" stroke-width="1" width="45" x="1729" y="40"><title>fstat</title></rect><text fill="black" pointer-events="none" x="1731" y="55">fstat<title>fstat</title></text><line stroke="black" stroke-width="2" x1="1723" x2="1723" y1="30" y2="60" /><line stroke="black" stroke-width="2" x1="1780" x2="1780" y1="30" y2="60" /><line stroke="black" stroke-width="2" x1="1723" x2="1732" y1="30" y2="30" /><line stroke="black" stroke-width="2" x1="1780" x2="1771" y1="30" y2="30" /><text fill="black" x="1785" y="50">x 2</text><rect class="framebox" fill="white" height="20" id="framebox-25" stroke="rgb(0,0,180)" stroke-width="1" width="36" x="1828" y="40"><title>read</title></rect><text fill="black" pointer-events="none" x="1830" y="55">read<title>read</title></text><rect class="framebox" fill="white" height="20" id="framebox-26" stroke="rgb(0,0,180)" stroke-width="1" width="45" x="1882" y="40"><title>lseek</title></rect><text fill="black" pointer-events="none" x="1884" y="55">lseek<title>lseek</title></text><rect class="framebox" fill="white" height="20" id="framebox-27" stroke="rgb(0,0,180)" stroke-width="1" width="36" x="1945" y="40"><title>read</title></rect><text fill="black" pointer-events="none" x="1947" y="55">read<title>read</title></text><rect class="framebox" fill="white" height="20" id="framebox-28" stroke="rgb(0,0,180)" stroke-width="1" width="45" x="1999" y="40"><title>close</title></rect><text fill="black" pointer-events="none" x="2001" y="55">close<title>close</title></text><rect class="framebox" fill="white" height="20" id="framebox-29" stroke="rgb(0,0,180)" stroke-width="1" width="45" x="2062" y="40"><title>fstat</title></rect><text fill="black" pointer-events="none" x="2064" y="55">fstat<title>fstat</title></text><rect class="framebox" fill="white" height="20" id="framebox-30" stroke="rgb(0,0,180)" stroke-width="1" width="45" x="2125" y="40"><title>write</title></rect><text fill="black" pointer-events="none" x="2127" y="55">write<title>write</title></text><rect class="framebox" fill="white" height="20" id="framebox-31" stroke="rgb(255,42,0)" stroke-width="1" width="549" x="1639" y="60"><title>leveldb::PosixLogger::Logv~1</title></rect><text fill="black" pointer-events="none" x="1641" y="75">leveldb::PosixLogger::Logv~1<title>leveldb::PosixLogger::Logv~1</title></text><rect class="framebox" fill="white" height="20" id="framebox-32" stroke="rgb(0,0,180)" stroke-width="1" width="36" x="2206" y="60"><title>read</title></rect><text fill="black" pointer-events="none" x="2208" y="75">read<title>read</title></text><line stroke="black" stroke-width="2" x1="2200" x2="2200" y1="50" y2="80" /><line stroke="black" stroke-width="2" x1="2248" x2="2248" y1="50" y2="80" /><line stroke="black" stroke-width="2" x1="2200" x2="2209" y1="50" y2="50" /><line stroke="black" stroke-width="2" x1="2248" x2="2239" y1="50" y2="50" /><text fill="black" x="2253" y="70">x 4</text><rect class="framebox" fill="white" height="20" id="framebox-33" stroke="rgb(0,0,180)" stroke-width="1" width="45" x="2296" y="60"><title>close</title></rect><text fill="black" pointer-events="none" x="2298" y="75">close<title>close</title></text><rect class="framebox" fill="white" height="20" id="framebox-34" stroke="rgb(0,0,180)" stroke-width="1" width="45" x="2377" y="40"><title>write</title></rect><text fill="black" pointer-events="none" x="2379" y="55">write<title>write</title></text><rect class="framebox" fill="white" height="20" id="framebox-35" stroke="rgb(255,42,0)" stroke-width="1" width="81" x="2359" y="60"><title>leveldb::PosixLogger::Logv~2</title></rect><text fill="black" pointer-events="none" x="2361" y="75">leveldb..<title>leveldb::PosixLogger::Logv~2</title></text><rect class="framebox" fill="white" height="20" id="framebox-36" stroke="rgb(0,0,180)" stroke-width="1" width="54" x="2458" y="60"><title>openat</title></rect><text fill="black" pointer-events="none" x="2460" y="75">openat<title>openat</title></text><rect class="framebox" fill="white" height="20" id="framebox-37" stroke="rgb(0,0,180)" stroke-width="1" width="45" x="2530" y="60"><title>write</title></rect><text fill="black" pointer-events="none" x="2532" y="75">write<title>write</title></text><line stroke="black" stroke-width="2" x1="2524" x2="2524" y1="50" y2="80" /><line stroke="black" stroke-width="2" x1="2581" x2="2581" y1="50" y2="80" /><line stroke="black" stroke-width="2" x1="2524" x2="2533" y1="50" y2="50" /><line stroke="black" stroke-width="2" x1="2581" x2="2572" y1="50" y2="50" /><text fill="black" x="2586" y="70">x 24</text><rect class="framebox" fill="white" height="20" id="framebox-38" stroke="rgb(0,0,180)" stroke-width="1" width="81" x="2638" y="60"><title>fdatasync</title></rect><text fill="black" pointer-events="none" x="2640" y="75">fdatasync<title>fdatasync</title></text><rect class="framebox" fill="white" height="20" id="framebox-39" stroke="rgb(0,0,180)" stroke-width="1" width="45" x="2737" y="60"><title>close</title></rect><text fill="black" pointer-events="none" x="2739" y="75">close<title>close</title></text><rect class="framebox" fill="white" height="20" id="framebox-40" stroke="rgb(0,0,180)" stroke-width="1" width="54" x="2800" y="60"><title>openat</title></rect><text fill="black" pointer-events="none" x="2802" y="75">openat<title>openat</title></text><rect class="framebox" fill="white" height="20" id="framebox-41" stroke="rgb(0,0,180)" stroke-width="1" width="36" x="2872" y="60"><title>stat</title></rect><text fill="black" pointer-events="none" x="2874" y="75">stat<title>stat</title></text><rect class="framebox" fill="white" height="20" id="framebox-42" stroke="rgb(0,0,180)" stroke-width="1" width="36" x="2926" y="60"><title>mmap</title></rect><text fill="black" pointer-events="none" x="2928" y="75">mmap<title>mmap</title></text><rect class="framebox" fill="white" height="20" id="framebox-43" stroke="rgb(0,0,180)" stroke-width="1" width="45" x="2980" y="60"><title>close</title></rect><text fill="black" pointer-events="none" x="2982" y="75">close<title>close</title></text><rect class="framebox" fill="white" height="20" id="framebox-44" stroke="rgb(0,0,180)" stroke-width="1" width="45" x="3061" y="40"><title>write</title></rect><text fill="black" pointer-events="none" x="3063" y="55">write<title>write</title></text><rect class="framebox" fill="white" height="20" id="framebox-45" stroke="rgb(255,42,0)" stroke-width="1" width="81" x="3043" y="60"><title>leveldb::PosixLogger::Logv~3</title></rect><text fill="black" pointer-events="none" x="3045" y="75">leveldb..<title>leveldb::PosixLogger::Logv~3</title></text><rect class="framebox" fill="white" height="20" id="framebox-46" stroke="rgb(255,0,0)" stroke-width="1" width="2628" x="514" y="80"><title>leveldb::DBImpl::Recover~1</title></rect><text fill="black" pointer-events="none" x="516" y="95">leveldb::DBImpl::Recover~1<title>leveldb::DBImpl::Recover~1</title></text><rect class="framebox" fill="white" height="20" id="framebox-47" stroke="rgb(0,0,180)" stroke-width="1" width="54" x="3160" y="80"><title>openat</title></rect><text fill="black" pointer-events="none" x="3162" y="95">openat<title>openat</title></text><rect class="framebox" fill="white" height="20" id="framebox-48" stroke="rgb(0,0,180)" stroke-width="1" width="54" x="3250" y="60"><title>openat</title></rect><text fill="black" pointer-events="none" x="3252" y="75">openat<title>openat</title></text><rect class="framebox" fill="white" height="20" id="framebox-49" stroke="rgb(0,0,180)" stroke-width="1" width="45" x="3340" y="40"><title>write</title></rect><text fill="black" pointer-events="none" x="3342" y="55">write<title>write</title></text><line stroke="black" stroke-width="2" x1="3334" x2="3334" y1="30" y2="60" /><line stroke="black" stroke-width="2" x1="3391" x2="3391" y1="30" y2="60" /><line stroke="black" stroke-width="2" x1="3334" x2="3343" y1="30" y2="30" /><line stroke="black" stroke-width="2" x1="3391" x2="3382" y1="30" y2="30" /><text fill="black" x="3396" y="50">x 1~2</text><rect class="framebox" fill="white" height="20" id="framebox-50" stroke="rgb(255,42,0)" stroke-width="1" width="135" x="3322" y="60"><title>leveldb::log::Writer::AddRecord~1</title></rect><text fill="black" pointer-events="none" x="3324" y="75">leveldb::log:..<title>leveldb::log::Writer::AddRecord~1</title></text><line stroke="black" stroke-width="2" x1="3316" x2="3316" y1="50" y2="80" /><line stroke="black" stroke-width="2" x1="3463" x2="3463" y1="50" y2="80" /><line stroke="black" stroke-width="2" x1="3316" x2="3325" y1="50" y2="50" /><line stroke="black" stroke-width="2" x1="3463" x2="3454" y1="50" y2="50" /><text fill="black" x="3468" y="70">x 2</text><rect class="framebox" fill="white" height="20" id="framebox-51" stroke="rgb(0,0,180)" stroke-width="1" width="54" x="3511" y="60"><title>openat</title></rect><text fill="black" pointer-events="none" x="3513" y="75">openat<title>openat</title></text><rect class="framebox" fill="white" height="20" id="framebox-52" stroke="rgb(0,0,180)" stroke-width="1" width="81" x="3583" y="60"><title>fdatasync</title></rect><text fill="black" pointer-events="none" x="3585" y="75">fdatasync<title>fdatasync</title></text><rect class="framebox" fill="white" height="20" id="framebox-53" stroke="rgb(0,0,180)" stroke-width="1" width="45" x="3682" y="60"><title>close</title></rect><text fill="black" pointer-events="none" x="3684" y="75">close<title>close</title></text><rect class="framebox" fill="white" height="20" id="framebox-54" stroke="rgb(0,0,180)" stroke-width="1" width="81" x="3745" y="60"><title>fdatasync</title></rect><text fill="black" pointer-events="none" x="3747" y="75">fdatasync<title>fdatasync</title></text><rect class="framebox" fill="white" height="20" id="framebox-55" stroke="rgb(0,0,180)" stroke-width="1" width="54" x="3880" y="20"><title>openat</title></rect><text fill="black" pointer-events="none" x="3882" y="35">openat<title>openat</title></text><rect class="framebox" fill="white" height="20" id="framebox-56" stroke="rgb(0,0,180)" stroke-width="1" width="45" x="3952" y="20"><title>write</title></rect><text fill="black" pointer-events="none" x="3954" y="35">write<title>write</title></text><rect class="framebox" fill="white" height="20" id="framebox-57" stroke="rgb(0,0,180)" stroke-width="1" width="81" x="4015" y="20"><title>fdatasync</title></rect><text fill="black" pointer-events="none" x="4017" y="35">fdatasync<title>fdatasync</title></text><rect class="framebox" fill="white" height="20" id="framebox-58" stroke="rgb(0,0,180)" stroke-width="1" width="45" x="4114" y="20"><title>close</title></rect><text fill="black" pointer-events="none" x="4116" y="35">close<title>close</title></text><rect class="framebox" fill="white" height="20" id="framebox-59" stroke="rgb(255,85,0)" stroke-width="1" width="315" x="3862" y="40"><title>leveldb::WriteStringToFileSync~1</title></rect><text fill="black" pointer-events="none" x="3864" y="55">leveldb::WriteStringToFileSync~1<title>leveldb::WriteStringToFileSync~1</title></text><rect class="framebox" fill="white" height="20" id="framebox-60" stroke="rgb(0,0,180)" stroke-width="1" width="54" x="4195" y="40"><title>rename</title></rect><text fill="black" pointer-events="none" x="4197" y="55">rename<title>rename</title></text><rect class="framebox" fill="white" height="20" id="framebox-61" stroke="rgb(255,42,0)" stroke-width="1" width="423" x="3844" y="60"><title>leveldb::SetCurrentFile~1</title></rect><text fill="black" pointer-events="none" x="3846" y="75">leveldb::SetCurrentFile~1<title>leveldb::SetCurrentFile~1</title></text><rect class="framebox" fill="white" height="20" id="framebox-62" stroke="rgb(255,0,0)" stroke-width="1" width="1053" x="3232" y="80"><title>leveldb::VersionSet::LogAndApply~1</title></rect><text fill="black" pointer-events="none" x="3234" y="95">leveldb::VersionSet::LogAndApply~1<title>leveldb::VersionSet::LogAndApply~1</title></text><rect class="framebox" fill="white" height="20" id="framebox-63" stroke="rgb(0,0,180)" stroke-width="1" width="54" x="4321" y="60"><title>openat</title></rect><text fill="black" pointer-events="none" x="4323" y="75">openat<title>openat</title></text><rect class="framebox" fill="white" height="20" id="framebox-64" stroke="rgb(0,0,180)" stroke-width="1" width="45" x="4393" y="60"><title>fstat</title></rect><text fill="black" pointer-events="none" x="4395" y="75">fstat<title>fstat</title></text><rect class="framebox" fill="white" height="20" id="framebox-65" stroke="rgb(0,0,180)" stroke-width="1" width="90" x="4456" y="60"><title>getdents64</title></rect><text fill="black" pointer-events="none" x="4458" y="75">getdents64<title>getdents64</title></text><line stroke="black" stroke-width="2" x1="4450" x2="4450" y1="50" y2="80" /><line stroke="black" stroke-width="2" x1="4552" x2="4552" y1="50" y2="80" /><line stroke="black" stroke-width="2" x1="4450" x2="4459" y1="50" y2="50" /><line stroke="black" stroke-width="2" x1="4552" x2="4543" y1="50" y2="50" /><text fill="black" x="4557" y="70">x 2</text><rect class="framebox" fill="white" height="20" id="framebox-66" stroke="rgb(0,0,180)" stroke-width="1" width="45" x="4600" y="60"><title>close</title></rect><text fill="black" pointer-events="none" x="4602" y="75">close<title>close</title></text><rect class="framebox" fill="white" height="20" id="framebox-67" stroke="rgb(0,0,180)" stroke-width="1" width="45" x="4681" y="40"><title>write</title></rect><text fill="black" pointer-events="none" x="4683" y="55">write<title>write</title></text><rect class="framebox" fill="white" height="20" id="framebox-68" stroke="rgb(255,42,0)" stroke-width="1" width="81" x="4663" y="60"><title>leveldb::PosixLogger::Logv~4</title></rect><text fill="black" pointer-events="none" x="4665" y="75">leveldb..<title>leveldb::PosixLogger::Logv~4</title></text><line stroke="black" stroke-width="2" x1="4657" x2="4657" y1="50" y2="80" /><line stroke="black" stroke-width="2" x1="4750" x2="4750" y1="50" y2="80" /><line stroke="black" stroke-width="2" x1="4657" x2="4666" y1="50" y2="50" /><line stroke="black" stroke-width="2" x1="4750" x2="4741" y1="50" y2="50" /><text fill="black" x="4755" y="70">x 2</text><rect class="framebox" fill="white" height="20" id="framebox-69" stroke="rgb(255,0,0)" stroke-width="1" width="495" x="4303" y="80"><title>leveldb::DBImpl::RemoveObsoleteFiles~1</title></rect><text fill="black" pointer-events="none" x="4305" y="95">leveldb::DBImpl::RemoveObsoleteFiles~1<title>leveldb::DBImpl::RemoveObsoleteFiles~1</title></text><rect class="framebox" fill="white" height="20" id="framebox-70" stroke="rgb(85,0,0)" stroke-width="1" width="4563" x="253" y="100"><title>leveldb::DB::Open~1</title></rect><text fill="black" pointer-events="none" x="255" y="115">leveldb::DB::Open~1<title>leveldb::DB::Open~1</title></text><rect class="framebox" fill="white" height="20" id="framebox-71" stroke="rgb(0,0,180)" stroke-width="1" width="45" x="4870" y="60"><title>write</title></rect><text fill="black" pointer-events="none" x="4872" y="75">write<title>write</title></text><line stroke="black" stroke-width="2" x1="4864" x2="4864" y1="50" y2="80" /><line stroke="black" stroke-width="2" x1="4921" x2="4921" y1="50" y2="80" /><line stroke="black" stroke-width="2" x1="4864" x2="4873" y1="50" y2="50" /><line stroke="black" stroke-width="2" x1="4921" x2="4912" y1="50" y2="50" /><text fill="black" x="4926" y="70">x 1~2</text><rect class="framebox" fill="white" height="20" id="framebox-72" stroke="rgb(255,0,0)" stroke-width="1" width="135" x="4852" y="80"><title>leveldb::log::Writer::AddRecord~3</title></rect><text fill="black" pointer-events="none" x="4854" y="95">leveldb::log:..<title>leveldb::log::Writer::AddRecord~3</title></text><line stroke="black" stroke-width="2" x1="4846" x2="4846" y1="70" y2="100" /><line stroke="black" stroke-width="2" x1="4993" x2="4993" y1="70" y2="100" /><line stroke="black" stroke-width="2" x1="4846" x2="4855" y1="70" y2="70" /><line stroke="black" stroke-width="2" x1="4993" x2="4984" y1="70" y2="70" /><text fill="black" x="4998" y="90">x 1000</text><rect class="framebox" fill="white" height="20" id="framebox-73" stroke="rgb(85,0,0)" stroke-width="1" width="234" x="4834" y="100"><title>do_ycsb~1</title></rect><text fill="black" pointer-events="none" x="4836" y="115">do_ycsb~1<title>do_ycsb~1</title></text><rect class="framebox" fill="white" height="20" id="framebox-74" stroke="rgb(0,0,180)" stroke-width="1" width="45" x="5086" y="100"><title>fstat</title></rect><text fill="black" pointer-events="none" x="5088" y="115">fstat<title>fstat</title></text><rect class="framebox" fill="white" height="20" id="framebox-75" stroke="rgb(0,0,180)" stroke-width="1" width="45" x="5149" y="100"><title>write</title></rect><text fill="black" pointer-events="none" x="5151" y="115">write<title>write</title></text><line stroke="black" stroke-width="2" x1="5143" x2="5143" y1="90" y2="120" /><line stroke="black" stroke-width="2" x1="5200" x2="5200" y1="90" y2="120" /><line stroke="black" stroke-width="2" x1="5143" x2="5152" y1="90" y2="90" /><line stroke="black" stroke-width="2" x1="5200" x2="5191" y1="90" y2="90" /><text fill="black" x="5205" y="110">x 2</text><rect class="framebox" fill="white" height="20" id="framebox-76" stroke="rgb(0,0,180)" stroke-width="1" width="45" x="5266" y="80"><title>write</title></rect><text fill="black" pointer-events="none" x="5268" y="95">write<title>write</title></text><line stroke="black" stroke-width="2" x1="5260" x2="5260" y1="70" y2="100" /><line stroke="black" stroke-width="2" x1="5317" x2="5317" y1="70" y2="100" /><line stroke="black" stroke-width="2" x1="5260" x2="5269" y1="70" y2="70" /><line stroke="black" stroke-width="2" x1="5317" x2="5308" y1="70" y2="70" /><text fill="black" x="5322" y="90">x 16</text><rect class="framebox" fill="white" height="20" id="framebox-77" stroke="rgb(85,0,0)" stroke-width="1" width="126" x="5248" y="100"><title>leveldb_stats~1</title></rect><text fill="black" pointer-events="none" x="5250" y="115">leveldb_stat..<title>leveldb_stats~1</title></text><rect class="framebox" fill="white" height="20" id="framebox-78" stroke="rgb(0,0,180)" stroke-width="1" width="45" x="5410" y="80"><title>fcntl</title></rect><text fill="black" pointer-events="none" x="5412" y="95">fcntl<title>fcntl</title></text><rect class="framebox" fill="white" height="20" id="framebox-79" stroke="rgb(0,0,180)" stroke-width="1" width="45" x="5473" y="80"><title>close</title></rect><text fill="black" pointer-events="none" x="5475" y="95">close<title>close</title></text><line stroke="black" stroke-width="2" x1="5467" x2="5467" y1="70" y2="100" /><line stroke="black" stroke-width="2" x1="5524" x2="5524" y1="70" y2="100" /><line stroke="black" stroke-width="2" x1="5467" x2="5476" y1="70" y2="70" /><line stroke="black" stroke-width="2" x1="5524" x2="5515" y1="70" y2="70" /><text fill="black" x="5529" y="90">x 4</text><rect class="framebox" fill="white" height="20" id="framebox-80" stroke="rgb(85,0,0)" stroke-width="1" width="180" x="5392" y="100"><title>leveldb::DBImpl::~DBImpl~1</title></rect><text fill="black" pointer-events="none" x="5394" y="115">leveldb::DBImpl::~..<title>leveldb::DBImpl::~DBImpl~1</title></text><rect class="framebox" fill="white" height="20" id="framebox-81" stroke="rgb(42,0,0)" stroke-width="1" width="5580" x="10" y="120"><title>main~1</title></rect><text fill="black" pointer-events="none" x="12" y="135">main~1<title>main~1</title></text></svg>