<?xml version="1.0" encoding="utf-8" ?>
<svg baseProfile="full" height="220" style="font-family: monospace;" version="1.1" width="5806" xmlns="http://www.w3.org/2000/svg" xmlns:ev="http://www.w3.org/2001/xml-events" xmlns:xlink="http://www.w3.org/1999/xlink"><defs /><rect fill="white" height="220" stroke="grey" stroke-width="1" width="5806" x="0" y="0" /><rect class="framebox" fill="white" height="20" id="framebox-0" stroke="rgb(0,0,180)" stroke-width="1" width="54" x="28" y="160"><title>openat</title></rect><text fill="black" pointer-events="none" x="30" y="175">openat<title>openat</title></text><rect class="framebox" fill="white" height="20" id="framebox-1" stroke="rgb(0,0,180)" stroke-width="1" width="36" x="100" y="160"><title>read</title></rect><text fill="black" pointer-events="none" x="102" y="175">read<title>read</title></text><line stroke="black" stroke-width="2" x1="94" x2="94" y1="150" y2="180" /><line stroke="black" stroke-width="2" x1="142" x2="142" y1="150" y2="180" /><line stroke="black" stroke-width="2" x1="94" x2="103" y1="150" y2="150" /><line stroke="black" stroke-width="2" x1="142" x2="133" y1="150" y2="150" /><text fill="black" x="147" y="170">x 2</text><rect class="framebox" fill="white" height="20" id="framebox-2" stroke="rgb(0,0,180)" stroke-width="1" width="45" x="190" y="160"><title>close</title></rect><text fill="black" pointer-events="none" x="192" y="175">close<title>close</title></text><rect class="framebox" fill="white" height="20" id="framebox-3" stroke="rgb(0,0,180)" stroke-width="1" width="54" x="289" y="120"><title>rename</title></rect><text fill="black" pointer-events="none" x="291" y="135">rename<title>rename</title></text><rect class="framebox" fill="white" height="20" id="framebox-4" stroke="rgb(0,0,180)" stroke-width="1" width="54" x="361" y="120"><title>openat</title></rect><text fill="black" pointer-events="none" x="363" y="135">openat<title>openat</title></text><rect class="framebox" fill="white" height="20" id="framebox-5" stroke="rgb(0,0,180)" stroke-width="1" width="45" x="433" y="120"><title>fcntl</title></rect><text fill="black" pointer-events="none" x="435" y="135">fcntl<title>fcntl</title></text><rect class="framebox" fill="white" height="20" id="framebox-6" stroke="rgb(85,0,0)" stroke-width="1" width="225" x="271" y="140"><title>leveldb::SanitizeOptions~1</title></rect><text fill="black" pointer-events="none" x="273" y="155">leveldb::SanitizeOption..<title>leveldb::SanitizeOptions~1</title></text><rect class="framebox" fill="white" height="20" id="framebox-7" stroke="rgb(0,0,180)" stroke-width="1" width="54" x="532" y="120"><title>openat</title></rect><text fill="black" pointer-events="none" x="534" y="135">openat<title>openat</title></text><rect class="framebox" fill="white" height="20" id="framebox-8" stroke="rgb(0,0,180)" stroke-width="1" width="45" x="604" y="120"><title>fcntl</title></rect><text fill="black" pointer-events="none" x="606" y="135">fcntl<title>fcntl</title></text><rect class="framebox" fill="white" height="20" id="framebox-9" stroke="rgb(0,0,180)" stroke-width="1" width="54" x="667" y="120"><title>access</title></rect><text fill="black" pointer-events="none" x="669" y="135">access<title>access</title></text><rect class="framebox" fill="white" height="20" id="framebox-10" stroke="rgb(0,0,180)" stroke-width="1" width="54" x="775" y="80"><title>openat</title></rect><text fill="black" pointer-events="none" x="777" y="95">openat<title>openat</title></text><rect class="framebox" fill="white" height="20" id="framebox-11" stroke="rgb(0,0,180)" stroke-width="1" width="36" x="847" y="80"><title>read</title></rect><text fill="black" pointer-events="none" x="849" y="95">read<title>read</title></text><line stroke="black" stroke-width="2" x1="841" x2="841" y1="70" y2="100" /><line stroke="black" stroke-width="2" x1="889" x2="889" y1="70" y2="100" /><line stroke="black" stroke-width="2" x1="841" x2="850" y1="70" y2="70" /><line stroke="black" stroke-width="2" x1="889" x2="880" y1="70" y2="70" /><text fill="black" x="894" y="90">x 2</text><rect class="framebox" fill="white" height="20" id="framebox-12" stroke="rgb(0,0,180)" stroke-width="1" width="45" x="937" y="80"><title>close</title></rect><text fill="black" pointer-events="none" x="939" y="95">close<title>close</title></text><rect class="framebox" fill="white" height="20" id="framebox-13" stroke="rgb(255,14,0)" stroke-width="1" width="243" x="757" y="100"><title>leveldb::ReadFileToString~1</title></rect><text fill="black" pointer-events="none" x="759" y="115">leveldb::ReadFileToString..<title>leveldb::ReadFileToString~1</title></text><rect class="framebox" fill="white" height="20" id="framebox-14" stroke="rgb(0,0,180)" stroke-width="1" width="54" x="1018" y="100"><title>openat</title></rect><text fill="black" pointer-events="none" x="1020" y="115">openat<title>openat</title></text><rect class="framebox" fill="white" height="20" id="framebox-15" stroke="rgb(0,0,180)" stroke-width="1" width="36" x="1090" y="100"><title>read</title></rect><text fill="black" pointer-events="none" x="1092" y="115">read<title>read</title></text><rect class="framebox" fill="white" height="20" id="framebox-16" stroke="rgb(0,0,180)" stroke-width="1" width="45" x="1144" y="100"><title>close</title></rect><text fill="black" pointer-events="none" x="1146" y="115">close<title>close</title></text><rect class="framebox" fill="white" height="20" id="framebox-17" stroke="rgb(113,0,0)" stroke-width="1" width="468" x="739" y="120"><title>leveldb::VersionSet::Recover~1</title></rect><text fill="black" pointer-events="none" x="741" y="135">leveldb::VersionSet::Recover~1<title>leveldb::VersionSet::Recover~1</title></text><rect class="framebox" fill="white" height="20" id="framebox-18" stroke="rgb(0,0,180)" stroke-width="1" width="54" x="1225" y="120"><title>openat</title></rect><text fill="black" pointer-events="none" x="1227" y="135">openat<title>openat</title></text><rect class="framebox" fill="white" height="20" id="framebox-19" stroke="rgb(0,0,180)" stroke-width="1" width="45" x="1297" y="120"><title>fstat</title></rect><text fill="black" pointer-events="none" x="1299" y="135">fstat<title>fstat</title></text><rect class="framebox" fill="white" height="20" id="framebox-20" stroke="rgb(0,0,180)" stroke-width="1" width="90" x="1360" y="120"><title>getdents64</title></rect><text fill="black" pointer-events="none" x="1362" y="135">getdents64<title>getdents64</title></text><line stroke="black" stroke-width="2" x1="1354" x2="1354" y1="110" y2="140" /><line stroke="black" stroke-width="2" x1="1456" x2="1456" y1="110" y2="140" /><line stroke="black" stroke-width="2" x1="1354" x2="1363" y1="110" y2="110" /><line stroke="black" stroke-width="2" x1="1456" x2="1447" y1="110" y2="110" /><text fill="black" x="1461" y="130">x 2</text><rect class="framebox" fill="white" height="20" id="framebox-21" stroke="rgb(0,0,180)" stroke-width="1" width="45" x="1504" y="120"><title>close</title></rect><text fill="black" pointer-events="none" x="1506" y="135">close<title>close</title></text><rect class="framebox" fill="white" height="20" id="framebox-22" stroke="rgb(0,0,180)" stroke-width="1" width="54" x="1585" y="100"><title>openat</title></rect><text fill="black" pointer-events="none" x="1587" y="115">openat<title>openat</title></text><rect class="framebox" fill="white" height="20" id="framebox-23" stroke="rgb(0,0,180)" stroke-width="1" width="54" x="1675" y="80"><title>openat</title></rect><text fill="black" pointer-events="none" x="1677" y="95">openat<title>openat</title></text><rect class="framebox" fill="white" height="20" id="framebox-24" stroke="rgb(0,0,180)" stroke-width="1" width="45" x="1747" y="80"><title>fstat</title></rect><text fill="black" pointer-events="none" x="1749" y="95">fstat<title>fstat</title></text><line stroke="black" stroke-width="2" x1="1741" x2="1741" y1="70" y2="100" /><line stroke="black" stroke-width="2" x1="1798" x2="1798" y1="70" y2="100" /><line stroke="black" stroke-width="2" x1="1741" x2="1750" y1="70" y2="70" /><line stroke="black" stroke-width="2" x1="1798" x2="1789" y1="70" y2="70" /><text fill="black" x="1803" y="90">x 2</text><rect class="framebox" fill="white" height="20" id="framebox-25" stroke="rgb(0,0,180)" stroke-width="1" width="36" x="1846" y="80"><title>read</title></rect><text fill="black" pointer-events="none" x="1848" y="95">read<title>read</title></text><rect class="framebox" fill="white" height="20" id="framebox-26" stroke="rgb(0,0,180)" stroke-width="1" width="45" x="1900" y="80"><title>lseek</title></rect><text fill="black" pointer-events="none" x="1902" y="95">lseek<title>lseek</title></text><rect class="framebox" fill="white" height="20" id="framebox-27" stroke="rgb(0,0,180)" stroke-width="1" width="36" x="1963" y="80"><title>read</title></rect><text fill="black" pointer-events="none" x="1965" y="95">read<title>read</title></text><rect class="framebox" fill="white" height="20" id="framebox-28" stroke="rgb(0,0,180)" stroke-width="1" width="45" x="2017" y="80"><title>close</title></rect><text fill="black" pointer-events="none" x="2019" y="95">close<title>close</title></text><rect class="framebox" fill="white" height="20" id="framebox-29" stroke="rgb(0,0,180)" stroke-width="1" width="45" x="2080" y="80"><title>fstat</title></rect><text fill="black" pointer-events="none" x="2082" y="95">fstat<title>fstat</title></text><rect class="framebox" fill="white" height="20" id="framebox-30" stroke="rgb(0,0,180)" stroke-width="1" width="45" x="2143" y="80"><title>write</title></rect><text fill="black" pointer-events="none" x="2145" y="95">write<title>write</title></text><rect class="framebox" fill="white" height="20" id="framebox-31" stroke="rgb(255,14,0)" stroke-width="1" width="549" x="1657" y="100"><title>leveldb::PosixLogger::Logv~1</title></rect><text fill="black" pointer-events="none" x="1659" y="115">leveldb::PosixLogger::Logv~1<title>leveldb::PosixLogger::Logv~1</title></text><rect class="framebox" fill="white" height="20" id="framebox-32" stroke="rgb(0,0,180)" stroke-width="1" width="36" x="2224" y="100"><title>read</title></rect><text fill="black" pointer-events="none" x="2226" y="115">read<title>read</title></text><rect class="framebox" fill="white" height="20" id="framebox-33" stroke="rgb(0,0,180)" stroke-width="1" width="45" x="2278" y="100"><title>close</title></rect><text fill="black" pointer-events="none" x="2280" y="115">close<title>close</title></text><rect class="framebox" fill="white" height="20" id="framebox-34" stroke="rgb(0,0,180)" stroke-width="1" width="45" x="2377" y="60"><title>write</title></rect><text fill="black" pointer-events="none" x="2379" y="75">write<title>write</title></text><rect class="framebox" fill="white" height="20" id="framebox-35" stroke="rgb(255,42,0)" stroke-width="1" width="81" x="2359" y="80"><title>leveldb::PosixLogger::Logv~2</title></rect><text fill="black" pointer-events="none" x="2361" y="95">leveldb..<title>leveldb::PosixLogger::Logv~2</title></text><rect class="framebox" fill="white" height="20" id="framebox-36" stroke="rgb(0,0,180)" stroke-width="1" width="54" x="2476" y="60"><title>openat</title></rect><text fill="black" pointer-events="none" x="2478" y="75">openat<title>openat</title></text><rect class="framebox" fill="white" height="20" id="framebox-37" stroke="rgb(0,0,180)" stroke-width="1" width="45" x="2548" y="60"><title>write</title></rect><text fill="black" pointer-events="none" x="2550" y="75">write<title>write</title></text><line stroke="black" stroke-width="2" x1="2542" x2="2542" y1="50" y2="80" /><line stroke="black" stroke-width="2" x1="2599" x2="2599" y1="50" y2="80" /><line stroke="black" stroke-width="2" x1="2542" x2="2551" y1="50" y2="50" /><line stroke="black" stroke-width="2" x1="2599" x2="2590" y1="50" y2="50" /><text fill="black" x="2604" y="70">x 2</text><rect class="framebox" fill="white" height="20" id="framebox-38" stroke="rgb(0,0,180)" stroke-width="1" width="81" x="2647" y="60"><title>fdatasync</title></rect><text fill="black" pointer-events="none" x="2649" y="75">fdatasync<title>fdatasync</title></text><rect class="framebox" fill="white" height="20" id="framebox-39" stroke="rgb(0,0,180)" stroke-width="1" width="45" x="2746" y="60"><title>close</title></rect><text fill="black" pointer-events="none" x="2748" y="75">close<title>close</title></text><rect class="framebox" fill="white" height="20" id="framebox-40" stroke="rgb(0,0,180)" stroke-width="1" width="54" x="2827" y="40"><title>openat</title></rect><text fill="black" pointer-events="none" x="2829" y="55">openat<title>openat</title></text><rect class="framebox" fill="white" height="20" id="framebox-41" stroke="rgb(0,0,180)" stroke-width="1" width="63" x="2917" y="20"><title>pread64</title></rect><text fill="black" pointer-events="none" x="2919" y="35">pread64<title>pread64</title></text><line stroke="black" stroke-width="2" x1="2911" x2="2911" y1="10" y2="40" /><line stroke="black" stroke-width="2" x1="2986" x2="2986" y1="10" y2="40" /><line stroke="black" stroke-width="2" x1="2911" x2="2920" y1="10" y2="10" /><line stroke="black" stroke-width="2" x1="2986" x2="2977" y1="10" y2="10" /><text fill="black" x="2991" y="30">x 2</text><rect class="framebox" fill="white" height="20" id="framebox-42" stroke="rgb(255,99,0)" stroke-width="1" width="135" x="2899" y="40"><title>leveldb::Table::Open~1</title></rect><text fill="black" pointer-events="none" x="2901" y="55">leveldb::Tabl..<title>leveldb::Table::Open~1</title></text><rect class="framebox" fill="white" height="20" id="framebox-43" stroke="rgb(255,70,0)" stroke-width="1" width="243" x="2809" y="60"><title>leveldb::TableCache::FindTable~1</title></rect><text fill="black" pointer-events="none" x="2811" y="75">leveldb::TableCache::Find..<title>leveldb::TableCache::FindTable~1</title></text><rect class="framebox" fill="white" height="20" id="framebox-44" stroke="rgb(255,42,0)" stroke-width="1" width="612" x="2458" y="80"><title>leveldb::BuildTable~1</title></rect><text fill="black" pointer-events="none" x="2460" y="95">leveldb::BuildTable~1<title>leveldb::BuildTable~1</title></text><rect class="framebox" fill="white" height="20" id="framebox-45" stroke="rgb(0,0,180)" stroke-width="1" width="45" x="3106" y="60"><title>write</title></rect><text fill="black" pointer-events="none" x="3108" y="75">write<title>write</title></text><rect class="framebox" fill="white" height="20" id="framebox-46" stroke="rgb(255,42,0)" stroke-width="1" width="81" x="3088" y="80"><title>leveldb::PosixLogger::Logv~3</title></rect><text fill="black" pointer-events="none" x="3090" y="95">leveldb..<title>leveldb::PosixLogger::Logv~3</title></text><rect class="framebox" fill="white" height="20" id="framebox-47" stroke="rgb(255,14,0)" stroke-width="1" width="846" x="2341" y="100"><title>leveldb::DBImpl::WriteLevel0Table~1</title></rect><text fill="black" pointer-events="none" x="2343" y="115">leveldb::DBImpl::WriteLevel0Table~1<title>leveldb::DBImpl::WriteLevel0Table~1</title></text><rect class="framebox" fill="white" height="20" id="framebox-48" stroke="rgb(113,0,0)" stroke-width="1" width="1638" x="1567" y="120"><title>leveldb::DBImpl::RecoverLogFile~1</title></rect><text fill="black" pointer-events="none" x="1569" y="135">leveldb::DBImpl::RecoverLogFile~1<title>leveldb::DBImpl::RecoverLogFile~1</title></text><rect class="framebox" fill="white" height="20" id="framebox-49" stroke="rgb(85,0,0)" stroke-width="1" width="2709" x="514" y="140"><title>leveldb::DBImpl::Recover~1</title></rect><text fill="black" pointer-events="none" x="516" y="155">leveldb::DBImpl::Recover~1<title>leveldb::DBImpl::Recover~1</title></text><rect class="framebox" fill="white" height="20" id="framebox-50" stroke="rgb(0,0,180)" stroke-width="1" width="54" x="3241" y="140"><title>openat</title></rect><text fill="black" pointer-events="none" x="3243" y="155">openat<title>openat</title></text><rect class="framebox" fill="white" height="20" id="framebox-51" stroke="rgb(0,0,180)" stroke-width="1" width="54" x="3331" y="120"><title>openat</title></rect><text fill="black" pointer-events="none" x="3333" y="135">openat<title>openat</title></text><rect class="framebox" fill="white" height="20" id="framebox-52" stroke="rgb(0,0,180)" stroke-width="1" width="45" x="3403" y="120"><title>write</title></rect><text fill="black" pointer-events="none" x="3405" y="135">write<title>write</title></text><line stroke="black" stroke-width="2" x1="3397" x2="3397" y1="110" y2="140" /><line stroke="black" stroke-width="2" x1="3454" x2="3454" y1="110" y2="140" /><line stroke="black" stroke-width="2" x1="3397" x2="3406" y1="110" y2="110" /><line stroke="black" stroke-width="2" x1="3454" x2="3445" y1="110" y2="110" /><text fill="black" x="3459" y="130">x 2</text><rect class="framebox" fill="white" height="20" id="framebox-53" stroke="rgb(0,0,180)" stroke-width="1" width="54" x="3502" y="120"><title>openat</title></rect><text fill="black" pointer-events="none" x="3504" y="135">openat<title>openat</title></text><rect class="framebox" fill="white" height="20" id="framebox-54" stroke="rgb(0,0,180)" stroke-width="1" width="81" x="3574" y="120"><title>fdatasync</title></rect><text fill="black" pointer-events="none" x="3576" y="135">fdatasync<title>fdatasync</title></text><rect class="framebox" fill="white" height="20" id="framebox-55" stroke="rgb(0,0,180)" stroke-width="1" width="45" x="3673" y="120"><title>close</title></rect><text fill="black" pointer-events="none" x="3675" y="135">close<title>close</title></text><rect class="framebox" fill="white" height="20" id="framebox-56" stroke="rgb(0,0,180)" stroke-width="1" width="81" x="3736" y="120"><title>fdatasync</title></rect><text fill="black" pointer-events="none" x="3738" y="135">fdatasync<title>fdatasync</title></text><rect class="framebox" fill="white" height="20" id="framebox-57" stroke="rgb(0,0,180)" stroke-width="1" width="54" x="3871" y="80"><title>openat</title></rect><text fill="black" pointer-events="none" x="3873" y="95">openat<title>openat</title></text><rect class="framebox" fill="white" height="20" id="framebox-58" stroke="rgb(0,0,180)" stroke-width="1" width="45" x="3943" y="80"><title>write</title></rect><text fill="black" pointer-events="none" x="3945" y="95">write<title>write</title></text><rect class="framebox" fill="white" height="20" id="framebox-59" stroke="rgb(0,0,180)" stroke-width="1" width="81" x="4006" y="80"><title>fdatasync</title></rect><text fill="black" pointer-events="none" x="4008" y="95">fdatasync<title>fdatasync</title></text><rect class="framebox" fill="white" height="20" id="framebox-60" stroke="rgb(0,0,180)" stroke-width="1" width="45" x="4105" y="80"><title>close</title></rect><text fill="black" pointer-events="none" x="4107" y="95">close<title>close</title></text><rect class="framebox" fill="white" height="20" id="framebox-61" stroke="rgb(255,14,0)" stroke-width="1" width="315" x="3853" y="100"><title>leveldb::WriteStringToFileSync~1</title></rect><text fill="black" pointer-events="none" x="3855" y="115">leveldb::WriteStringToFileSync~1<title>leveldb::WriteStringToFileSync~1</title></text><rect class="framebox" fill="white" height="20" id="framebox-62" stroke="rgb(0,0,180)" stroke-width="1" width="54" x="4186" y="100"><title>rename</title></rect><text fill="black" pointer-events="none" x="4188" y="115">rename<title>rename</title></text><rect class="framebox" fill="white" height="20" id="framebox-63" stroke="rgb(113,0,0)" stroke-width="1" width="423" x="3835" y="120"><title>leveldb::SetCurrentFile~1</title></rect><text fill="black" pointer-events="none" x="3837" y="135">leveldb::SetCurrentFile~1<title>leveldb::SetCurrentFile~1</title></text><rect class="framebox" fill="white" height="20" id="framebox-64" stroke="rgb(85,0,0)" stroke-width="1" width="963" x="3313" y="140"><title>leveldb::VersionSet::LogAndApply~1</title></rect><text fill="black" pointer-events="none" x="3315" y="155">leveldb::VersionSet::LogAndApply~1<title>leveldb::VersionSet::LogAndApply~1</title></text><rect class="framebox" fill="white" height="20" id="framebox-65" stroke="rgb(0,0,180)" stroke-width="1" width="54" x="4312" y="120"><title>openat</title></rect><text fill="black" pointer-events="none" x="4314" y="135">openat<title>openat</title></text><rect class="framebox" fill="white" height="20" id="framebox-66" stroke="rgb(0,0,180)" stroke-width="1" width="45" x="4384" y="120"><title>fstat</title></rect><text fill="black" pointer-events="none" x="4386" y="135">fstat<title>fstat</title></text><rect class="framebox" fill="white" height="20" id="framebox-67" stroke="rgb(0,0,180)" stroke-width="1" width="90" x="4447" y="120"><title>getdents64</title></rect><text fill="black" pointer-events="none" x="4449" y="135">getdents64<title>getdents64</title></text><line stroke="black" stroke-width="2" x1="4441" x2="4441" y1="110" y2="140" /><line stroke="black" stroke-width="2" x1="4543" x2="4543" y1="110" y2="140" /><line stroke="black" stroke-width="2" x1="4441" x2="4450" y1="110" y2="110" /><line stroke="black" stroke-width="2" x1="4543" x2="4534" y1="110" y2="110" /><text fill="black" x="4548" y="130">x 2</text><rect class="framebox" fill="white" height="20" id="framebox-68" stroke="rgb(0,0,180)" stroke-width="1" width="45" x="4591" y="120"><title>close</title></rect><text fill="black" pointer-events="none" x="4593" y="135">close<title>close</title></text><rect class="framebox" fill="white" height="20" id="framebox-69" stroke="rgb(0,0,180)" stroke-width="1" width="45" x="4672" y="100"><title>write</title></rect><text fill="black" pointer-events="none" x="4674" y="115">write<title>write</title></text><rect class="framebox" fill="white" height="20" id="framebox-70" stroke="rgb(113,0,0)" stroke-width="1" width="81" x="4654" y="120"><title>leveldb::PosixLogger::Logv~4</title></rect><text fill="black" pointer-events="none" x="4656" y="135">leveldb..<title>leveldb::PosixLogger::Logv~4</title></text><line stroke="black" stroke-width="2" x1="4648" x2="4648" y1="110" y2="140" /><line stroke="black" stroke-width="2" x1="4741" x2="4741" y1="110" y2="140" /><line stroke="black" stroke-width="2" x1="4648" x2="4657" y1="110" y2="110" /><line stroke="black" stroke-width="2" x1="4741" x2="4732" y1="110" y2="110" /><text fill="black" x="4746" y="130">x 3</text><rect class="framebox" fill="white" height="20" id="framebox-71" stroke="rgb(85,0,0)" stroke-width="1" width="495" x="4294" y="140"><title>leveldb::DBImpl::RemoveObsoleteFiles~1</title></rect><text fill="black" pointer-events="none" x="4296" y="155">leveldb::DBImpl::RemoveObsoleteFiles~1<title>leveldb::DBImpl::RemoveObsoleteFiles~1</title></text><rect class="framebox" fill="white" height="20" id="framebox-72" stroke="rgb(0,0,180)" stroke-width="1" width="36" x="4807" y="140"><title>mmap</title></rect><text fill="black" pointer-events="none" x="4809" y="155">mmap<title>mmap</title></text><rect class="framebox" fill="white" height="20" id="framebox-73" stroke="rgb(56,0,0)" stroke-width="1" width="4608" x="253" y="160"><title>leveldb::DB::Open~1</title></rect><text fill="black" pointer-events="none" x="255" y="175">leveldb::DB::Open~1<title>leveldb::DB::Open~1</title></text><rect class="framebox" fill="white" height="20" id="framebox-74" stroke="rgb(0,0,180)" stroke-width="1" width="45" x="4897" y="140"><title>write</title></rect><text fill="black" pointer-events="none" x="4899" y="155">write<title>write</title></text><rect class="framebox" fill="white" height="20" id="framebox-75" stroke="rgb(0,0,180)" stroke-width="1" width="81" x="4960" y="140"><title>fdatasync</title></rect><text fill="black" pointer-events="none" x="4962" y="155">fdatasync<title>fdatasync</title></text><rect class="framebox" fill="white" height="20" id="framebox-76" stroke="rgb(56,0,0)" stroke-width="1" width="180" x="4879" y="160"><title>leveldb::DBImpl::Write~1</title></rect><text fill="black" pointer-events="none" x="4881" y="175">leveldb::DBImpl::W..<title>leveldb::DBImpl::Write~1</title></text><rect class="framebox" fill="white" height="20" id="framebox-77" stroke="rgb(0,0,180)" stroke-width="1" width="45" x="5077" y="160"><title>fstat</title></rect><text fill="black" pointer-events="none" x="5079" y="175">fstat<title>fstat</title></text><rect class="framebox" fill="white" height="20" id="framebox-78" stroke="rgb(0,0,180)" stroke-width="1" width="45" x="5140" y="160"><title>write</title></rect><text fill="black" pointer-events="none" x="5142" y="175">write<title>write</title></text><line stroke="black" stroke-width="2" x1="5134" x2="5134" y1="150" y2="180" /><line stroke="black" stroke-width="2" x1="5191" x2="5191" y1="150" y2="180" /><line stroke="black" stroke-width="2" x1="5134" x2="5143" y1="150" y2="150" /><line stroke="black" stroke-width="2" x1="5191" x2="5182" y1="150" y2="150" /><text fill="black" x="5196" y="170">x 3</text><rect class="framebox" fill="white" height="20" id="framebox-79" stroke="rgb(0,0,180)" stroke-width="1" width="45" x="5257" y="140"><title>write</title></rect><text fill="black" pointer-events="none" x="5259" y="155">write<title>write</title></text><line stroke="black" stroke-width="2" x1="5251" x2="5251" y1="130" y2="160" /><line stroke="black" stroke-width="2" x1="5308" x2="5308" y1="130" y2="160" /><line stroke="black" stroke-width="2" x1="5251" x2="5260" y1="130" y2="130" /><line stroke="black" stroke-width="2" x1="5308" x2="5299" y1="130" y2="130" /><text fill="black" x="5313" y="150">x 36</text><rect class="framebox" fill="white" height="20" id="framebox-80" stroke="rgb(56,0,0)" stroke-width="1" width="126" x="5239" y="160"><title>leveldb_stats~1</title></rect><text fill="black" pointer-events="none" x="5241" y="175">leveldb_stat..<title>leveldb_stats~1</title></text><rect class="framebox" fill="white" height="20" id="framebox-81" stroke="rgb(0,0,180)" stroke-width="1" width="45" x="5401" y="140"><title>fcntl</title></rect><text fill="black" pointer-events="none" x="5403" y="155">fcntl<title>fcntl</title></text><rect class="framebox" fill="white" height="20" id="framebox-82" stroke="rgb(0,0,180)" stroke-width="1" width="45" x="5464" y="140"><title>close</title></rect><text fill="black" pointer-events="none" x="5466" y="155">close<title>close</title></text><line stroke="black" stroke-width="2" x1="5458" x2="5458" y1="130" y2="160" /><line stroke="black" stroke-width="2" x1="5515" x2="5515" y1="130" y2="160" /><line stroke="black" stroke-width="2" x1="5458" x2="5467" y1="130" y2="130" /><line stroke="black" stroke-width="2" x1="5515" x2="5506" y1="130" y2="130" /><text fill="black" x="5520" y="150">x 3</text><rect class="framebox" fill="white" height="20" id="framebox-83" stroke="rgb(0,0,180)" stroke-width="1" width="45" x="5581" y="120"><title>close</title></rect><text fill="black" pointer-events="none" x="5583" y="135">close<title>close</title></text><line stroke="black" stroke-width="2" x1="5575" x2="5575" y1="110" y2="140" /><line stroke="black" stroke-width="2" x1="5632" x2="5632" y1="110" y2="140" /><line stroke="black" stroke-width="2" x1="5575" x2="5584" y1="110" y2="110" /><line stroke="black" stroke-width="2" x1="5632" x2="5623" y1="110" y2="110" /><text fill="black" x="5637" y="130">x 11</text><rect class="framebox" fill="white" height="20" id="framebox-84" stroke="rgb(85,0,0)" stroke-width="1" width="126" x="5563" y="140"><title>leveldb::TableCache::~TableCache~1</title></rect><text fill="black" pointer-events="none" x="5565" y="155">leveldb::Tab..<title>leveldb::TableCache::~TableCache~1</title></text><rect class="framebox" fill="white" height="20" id="framebox-85" stroke="rgb(0,0,180)" stroke-width="1" width="45" x="5707" y="140"><title>close</title></rect><text fill="black" pointer-events="none" x="5709" y="155">close<title>close</title></text><rect class="framebox" fill="white" height="20" id="framebox-86" stroke="rgb(56,0,0)" stroke-width="1" width="387" x="5383" y="160"><title>leveldb::DBImpl::~DBImpl~1</title></rect><text fill="black" pointer-events="none" x="5385" y="175">leveldb::DBImpl::~DBImpl~1<title>leveldb::DBImpl::~DBImpl~1</title></text><rect class="framebox" fill="white" height="20" id="framebox-87" stroke="rgb(28,0,0)" stroke-width="1" width="5778" x="10" y="180"><title>main~1</title></rect><text fill="black" pointer-events="none" x="12" y="195">main~1<title>main~1</title></text></svg>