<?xml version="1.0" encoding="utf-8" ?>
<svg baseProfile="full" height="180" style="font-family: monospace;" version="1.1" width="5599" xmlns="http://www.w3.org/2000/svg" xmlns:ev="http://www.w3.org/2001/xml-events" xmlns:xlink="http://www.w3.org/1999/xlink"><defs /><rect fill="white" height="180" stroke="grey" stroke-width="1" width="5599" x="0" y="0" /><rect class="framebox" fill="white" height="20" id="framebox-0" stroke="rgb(0,0,180)" stroke-width="1" width="54" x="28" y="120"><title>openat</title></rect><text fill="black" pointer-events="none" x="30" y="135">openat<title>openat</title></text><rect class="framebox" fill="white" height="20" id="framebox-1" stroke="rgb(0,0,180)" stroke-width="1" width="36" x="100" y="120"><title>read</title></rect><text fill="black" pointer-events="none" x="102" y="135">read<title>read</title></text><line stroke="black" stroke-width="2" x1="94" x2="94" y1="110" y2="140" /><line stroke="black" stroke-width="2" x1="142" x2="142" y1="110" y2="140" /><line stroke="black" stroke-width="2" x1="94" x2="103" y1="110" y2="110" /><line stroke="black" stroke-width="2" x1="142" x2="133" y1="110" y2="110" /><text fill="black" x="147" y="130">x 2</text><rect class="framebox" fill="white" height="20" id="framebox-2" stroke="rgb(0,0,180)" stroke-width="1" width="45" x="190" y="120"><title>close</title></rect><text fill="black" pointer-events="none" x="192" y="135">close<title>close</title></text><rect class="framebox" fill="white" height="20" id="framebox-3" stroke="rgb(0,0,180)" stroke-width="1" width="54" x="289" y="80"><title>rename</title></rect><text fill="black" pointer-events="none" x="291" y="95">rename<title>rename</title></text><rect class="framebox" fill="white" height="20" id="framebox-4" stroke="rgb(0,0,180)" stroke-width="1" width="54" x="361" y="80"><title>openat</title></rect><text fill="black" pointer-events="none" x="363" y="95">openat<title>openat</title></text><rect class="framebox" fill="white" height="20" id="framebox-5" stroke="rgb(0,0,180)" stroke-width="1" width="45" x="433" y="80"><title>fcntl</title></rect><text fill="black" pointer-events="none" x="435" y="95">fcntl<title>fcntl</title></text><rect class="framebox" fill="white" height="20" id="framebox-6" stroke="rgb(109,0,0)" stroke-width="1" width="225" x="271" y="100"><title>leveldb::SanitizeOptions~1</title></rect><text fill="black" pointer-events="none" x="273" y="115">leveldb::SanitizeOption..<title>leveldb::SanitizeOptions~1</title></text><rect class="framebox" fill="white" height="20" id="framebox-7" stroke="rgb(0,0,180)" stroke-width="1" width="54" x="532" y="80"><title>openat</title></rect><text fill="black" pointer-events="none" x="534" y="95">openat<title>openat</title></text><rect class="framebox" fill="white" height="20" id="framebox-8" stroke="rgb(0,0,180)" stroke-width="1" width="45" x="604" y="80"><title>fcntl</title></rect><text fill="black" pointer-events="none" x="606" y="95">fcntl<title>fcntl</title></text><rect class="framebox" fill="white" height="20" id="framebox-9" stroke="rgb(0,0,180)" stroke-width="1" width="54" x="667" y="80"><title>access</title></rect><text fill="black" pointer-events="none" x="669" y="95">access<title>access</title></text><rect class="framebox" fill="white" height="20" id="framebox-10" stroke="rgb(0,0,180)" stroke-width="1" width="54" x="775" y="40"><title>openat</title></rect><text fill="black" pointer-events="none" x="777" y="55">openat<title>openat</title></text><rect class="framebox" fill="white" height="20" id="framebox-11" stroke="rgb(0,0,180)" stroke-width="1" width="36" x="847" y="40"><title>read</title></rect><text fill="black" pointer-events="none" x="849" y="55">read<title>read</title></text><line stroke="black" stroke-width="2" x1="841" x2="841" y1="30" y2="60" /><line stroke="black" stroke-width="2" x1="889" x2="889" y1="30" y2="60" /><line stroke="black" stroke-width="2" x1="841" x2="850" y1="30" y2="30" /><line stroke="black" stroke-width="2" x1="889" x2="880" y1="30" y2="30" /><text fill="black" x="894" y="50">x 2</text><rect class="framebox" fill="white" height="20" id="framebox-12" stroke="rgb(0,0,180)" stroke-width="1" width="45" x="937" y="40"><title>close</title></rect><text fill="black" pointer-events="none" x="939" y="55">close<title>close</title></text><rect class="framebox" fill="white" height="20" id="framebox-13" stroke="rgb(255,54,0)" stroke-width="1" width="243" x="757" y="60"><title>leveldb::ReadFileToString~1</title></rect><text fill="black" pointer-events="none" x="759" y="75">leveldb::ReadFileToString..<title>leveldb::ReadFileToString~1</title></text><rect class="framebox" fill="white" height="20" id="framebox-14" stroke="rgb(0,0,180)" stroke-width="1" width="54" x="1018" y="60"><title>openat</title></rect><text fill="black" pointer-events="none" x="1020" y="75">openat<title>openat</title></text><rect class="framebox" fill="white" height="20" id="framebox-15" stroke="rgb(0,0,180)" stroke-width="1" width="36" x="1090" y="60"><title>read</title></rect><text fill="black" pointer-events="none" x="1092" y="75">read<title>read</title></text><rect class="framebox" fill="white" height="20" id="framebox-16" stroke="rgb(0,0,180)" stroke-width="1" width="45" x="1144" y="60"><title>close</title></rect><text fill="black" pointer-events="none" x="1146" y="75">close<title>close</title></text><rect class="framebox" fill="white" height="20" id="framebox-17" stroke="rgb(255,18,0)" stroke-width="1" width="468" x="739" y="80"><title>leveldb::VersionSet::Recover~1</title></rect><text fill="black" pointer-events="none" x="741" y="95">leveldb::VersionSet::Recover~1<title>leveldb::VersionSet::Recover~1</title></text><rect class="framebox" fill="white" height="20" id="framebox-18" stroke="rgb(0,0,180)" stroke-width="1" width="54" x="1225" y="80"><title>openat</title></rect><text fill="black" pointer-events="none" x="1227" y="95">openat<title>openat</title></text><rect class="framebox" fill="white" height="20" id="framebox-19" stroke="rgb(0,0,180)" stroke-width="1" width="45" x="1297" y="80"><title>fstat</title></rect><text fill="black" pointer-events="none" x="1299" y="95">fstat<title>fstat</title></text><rect class="framebox" fill="white" height="20" id="framebox-20" stroke="rgb(0,0,180)" stroke-width="1" width="90" x="1360" y="80"><title>getdents64</title></rect><text fill="black" pointer-events="none" x="1362" y="95">getdents64<title>getdents64</title></text><line stroke="black" stroke-width="2" x1="1354" x2="1354" y1="70" y2="100" /><line stroke="black" stroke-width="2" x1="1456" x2="1456" y1="70" y2="100" /><line stroke="black" stroke-width="2" x1="1354" x2="1363" y1="70" y2="70" /><line stroke="black" stroke-width="2" x1="1456" x2="1447" y1="70" y2="70" /><text fill="black" x="1461" y="90">x 2</text><rect class="framebox" fill="white" height="20" id="framebox-21" stroke="rgb(0,0,180)" stroke-width="1" width="45" x="1504" y="80"><title>close</title></rect><text fill="black" pointer-events="none" x="1506" y="95">close<title>close</title></text><rect class="framebox" fill="white" height="20" id="framebox-22" stroke="rgb(0,0,180)" stroke-width="1" width="54" x="1585" y="60"><title>openat</title></rect><text fill="black" pointer-events="none" x="1587" y="75">openat<title>openat</title></text><rect class="framebox" fill="white" height="20" id="framebox-23" stroke="rgb(0,0,180)" stroke-width="1" width="54" x="1675" y="40"><title>openat</title></rect><text fill="black" pointer-events="none" x="1677" y="55">openat<title>openat</title></text><rect class="framebox" fill="white" height="20" id="framebox-24" stroke="rgb(0,0,180)" stroke-width="1" width="45" x="1747" y="40"><title>fstat</title></rect><text fill="black" pointer-events="none" x="1749" y="55">fstat<title>fstat</title></text><line stroke="black" stroke-width="2" x1="1741" x2="1741" y1="30" y2="60" /><line stroke="black" stroke-width="2" x1="1798" x2="1798" y1="30" y2="60" /><line stroke="black" stroke-width="2" x1="1741" x2="1750" y1="30" y2="30" /><line stroke="black" stroke-width="2" x1="1798" x2="1789" y1="30" y2="30" /><text fill="black" x="1803" y="50">x 2</text><rect class="framebox" fill="white" height="20" id="framebox-25" stroke="rgb(0,0,180)" stroke-width="1" width="36" x="1846" y="40"><title>read</title></rect><text fill="black" pointer-events="none" x="1848" y="55">read<title>read</title></text><rect class="framebox" fill="white" height="20" id="framebox-26" stroke="rgb(0,0,180)" stroke-width="1" width="45" x="1900" y="40"><title>lseek</title></rect><text fill="black" pointer-events="none" x="1902" y="55">lseek<title>lseek</title></text><rect class="framebox" fill="white" height="20" id="framebox-27" stroke="rgb(0,0,180)" stroke-width="1" width="36" x="1963" y="40"><title>read</title></rect><text fill="black" pointer-events="none" x="1965" y="55">read<title>read</title></text><rect class="framebox" fill="white" height="20" id="framebox-28" stroke="rgb(0,0,180)" stroke-width="1" width="45" x="2017" y="40"><title>close</title></rect><text fill="black" pointer-events="none" x="2019" y="55">close<title>close</title></text><rect class="framebox" fill="white" height="20" id="framebox-29" stroke="rgb(0,0,180)" stroke-width="1" width="45" x="2080" y="40"><title>fstat</title></rect><text fill="black" pointer-events="none" x="2082" y="55">fstat<title>fstat</title></text><rect class="framebox" fill="white" height="20" id="framebox-30" stroke="rgb(0,0,180)" stroke-width="1" width="45" x="2143" y="40"><title>write</title></rect><text fill="black" pointer-events="none" x="2145" y="55">write<title>write</title></text><rect class="framebox" fill="white" height="20" id="framebox-31" stroke="rgb(255,54,0)" stroke-width="1" width="549" x="1657" y="60"><title>leveldb::PosixLogger::Logv~1</title></rect><text fill="black" pointer-events="none" x="1659" y="75">leveldb::PosixLogger::Logv~1<title>leveldb::PosixLogger::Logv~1</title></text><rect class="framebox" fill="white" height="20" id="framebox-32" stroke="rgb(0,0,180)" stroke-width="1" width="36" x="2224" y="60"><title>read</title></rect><text fill="black" pointer-events="none" x="2226" y="75">read<title>read</title></text><rect class="framebox" fill="white" height="20" id="framebox-33" stroke="rgb(0,0,180)" stroke-width="1" width="45" x="2278" y="60"><title>close</title></rect><text fill="black" pointer-events="none" x="2280" y="75">close<title>close</title></text><rect class="framebox" fill="white" height="20" id="framebox-34" stroke="rgb(0,0,180)" stroke-width="1" width="45" x="2359" y="40"><title>write</title></rect><text fill="black" pointer-events="none" x="2361" y="55">write<title>write</title></text><rect class="framebox" fill="white" height="20" id="framebox-35" stroke="rgb(255,54,0)" stroke-width="1" width="81" x="2341" y="60"><title>leveldb::PosixLogger::Logv~2</title></rect><text fill="black" pointer-events="none" x="2343" y="75">leveldb..<title>leveldb::PosixLogger::Logv~2</title></text><rect class="framebox" fill="white" height="20" id="framebox-36" stroke="rgb(0,0,180)" stroke-width="1" width="54" x="2440" y="60"><title>openat</title></rect><text fill="black" pointer-events="none" x="2442" y="75">openat<title>openat</title></text><rect class="framebox" fill="white" height="20" id="framebox-37" stroke="rgb(0,0,180)" stroke-width="1" width="45" x="2512" y="60"><title>write</title></rect><text fill="black" pointer-events="none" x="2514" y="75">write<title>write</title></text><line stroke="black" stroke-width="2" x1="2506" x2="2506" y1="50" y2="80" /><line stroke="black" stroke-width="2" x1="2563" x2="2563" y1="50" y2="80" /><line stroke="black" stroke-width="2" x1="2506" x2="2515" y1="50" y2="50" /><line stroke="black" stroke-width="2" x1="2563" x2="2554" y1="50" y2="50" /><text fill="black" x="2568" y="70">x 2</text><rect class="framebox" fill="white" height="20" id="framebox-38" stroke="rgb(0,0,180)" stroke-width="1" width="81" x="2611" y="60"><title>fdatasync</title></rect><text fill="black" pointer-events="none" x="2613" y="75">fdatasync<title>fdatasync</title></text><rect class="framebox" fill="white" height="20" id="framebox-39" stroke="rgb(0,0,180)" stroke-width="1" width="45" x="2710" y="60"><title>close</title></rect><text fill="black" pointer-events="none" x="2712" y="75">close<title>close</title></text><rect class="framebox" fill="white" height="20" id="framebox-40" stroke="rgb(0,0,180)" stroke-width="1" width="54" x="2791" y="40"><title>openat</title></rect><text fill="black" pointer-events="none" x="2793" y="55">openat<title>openat</title></text><rect class="framebox" fill="white" height="20" id="framebox-41" stroke="rgb(0,0,180)" stroke-width="1" width="63" x="2881" y="20"><title>pread64</title></rect><text fill="black" pointer-events="none" x="2883" y="35">pread64<title>pread64</title></text><line stroke="black" stroke-width="2" x1="2875" x2="2875" y1="10" y2="40" /><line stroke="black" stroke-width="2" x1="2950" x2="2950" y1="10" y2="40" /><line stroke="black" stroke-width="2" x1="2875" x2="2884" y1="10" y2="10" /><line stroke="black" stroke-width="2" x1="2950" x2="2941" y1="10" y2="10" /><text fill="black" x="2955" y="30">x 2</text><rect class="framebox" fill="white" height="20" id="framebox-42" stroke="rgb(255,91,0)" stroke-width="1" width="135" x="2863" y="40"><title>leveldb::Table::Open~1</title></rect><text fill="black" pointer-events="none" x="2865" y="55">leveldb::Tabl..<title>leveldb::Table::Open~1</title></text><rect class="framebox" fill="white" height="20" id="framebox-43" stroke="rgb(255,54,0)" stroke-width="1" width="243" x="2773" y="60"><title>leveldb::TableCache::FindTable~1</title></rect><text fill="black" pointer-events="none" x="2775" y="75">leveldb::TableCache::Find..<title>leveldb::TableCache::FindTable~1</title></text><rect class="framebox" fill="white" height="20" id="framebox-44" stroke="rgb(0,0,180)" stroke-width="1" width="45" x="3052" y="40"><title>write</title></rect><text fill="black" pointer-events="none" x="3054" y="55">write<title>write</title></text><rect class="framebox" fill="white" height="20" id="framebox-45" stroke="rgb(255,54,0)" stroke-width="1" width="81" x="3034" y="60"><title>leveldb::PosixLogger::Logv~3</title></rect><text fill="black" pointer-events="none" x="3036" y="75">leveldb..<title>leveldb::PosixLogger::Logv~3</title></text><rect class="framebox" fill="white" height="20" id="framebox-46" stroke="rgb(255,18,0)" stroke-width="1" width="1566" x="1567" y="80"><title>leveldb::DBImpl::RecoverLogFile~1</title></rect><text fill="black" pointer-events="none" x="1569" y="95">leveldb::DBImpl::RecoverLogFile~1<title>leveldb::DBImpl::RecoverLogFile~1</title></text><rect class="framebox" fill="white" height="20" id="framebox-47" stroke="rgb(109,0,0)" stroke-width="1" width="2637" x="514" y="100"><title>leveldb::DBImpl::Recover~1</title></rect><text fill="black" pointer-events="none" x="516" y="115">leveldb::DBImpl::Recover~1<title>leveldb::DBImpl::Recover~1</title></text><rect class="framebox" fill="white" height="20" id="framebox-48" stroke="rgb(0,0,180)" stroke-width="1" width="54" x="3169" y="100"><title>openat</title></rect><text fill="black" pointer-events="none" x="3171" y="115">openat<title>openat</title></text><rect class="framebox" fill="white" height="20" id="framebox-49" stroke="rgb(0,0,180)" stroke-width="1" width="54" x="3259" y="80"><title>openat</title></rect><text fill="black" pointer-events="none" x="3261" y="95">openat<title>openat</title></text><rect class="framebox" fill="white" height="20" id="framebox-50" stroke="rgb(0,0,180)" stroke-width="1" width="45" x="3331" y="80"><title>write</title></rect><text fill="black" pointer-events="none" x="3333" y="95">write<title>write</title></text><line stroke="black" stroke-width="2" x1="3325" x2="3325" y1="70" y2="100" /><line stroke="black" stroke-width="2" x1="3382" x2="3382" y1="70" y2="100" /><line stroke="black" stroke-width="2" x1="3325" x2="3334" y1="70" y2="70" /><line stroke="black" stroke-width="2" x1="3382" x2="3373" y1="70" y2="70" /><text fill="black" x="3387" y="90">x 2</text><rect class="framebox" fill="white" height="20" id="framebox-51" stroke="rgb(0,0,180)" stroke-width="1" width="54" x="3430" y="80"><title>openat</title></rect><text fill="black" pointer-events="none" x="3432" y="95">openat<title>openat</title></text><rect class="framebox" fill="white" height="20" id="framebox-52" stroke="rgb(0,0,180)" stroke-width="1" width="81" x="3502" y="80"><title>fdatasync</title></rect><text fill="black" pointer-events="none" x="3504" y="95">fdatasync<title>fdatasync</title></text><rect class="framebox" fill="white" height="20" id="framebox-53" stroke="rgb(0,0,180)" stroke-width="1" width="45" x="3601" y="80"><title>close</title></rect><text fill="black" pointer-events="none" x="3603" y="95">close<title>close</title></text><rect class="framebox" fill="white" height="20" id="framebox-54" stroke="rgb(0,0,180)" stroke-width="1" width="81" x="3664" y="80"><title>fdatasync</title></rect><text fill="black" pointer-events="none" x="3666" y="95">fdatasync<title>fdatasync</title></text><rect class="framebox" fill="white" height="20" id="framebox-55" stroke="rgb(0,0,180)" stroke-width="1" width="54" x="3799" y="40"><title>openat</title></rect><text fill="black" pointer-events="none" x="3801" y="55">openat<title>openat</title></text><rect class="framebox" fill="white" height="20" id="framebox-56" stroke="rgb(0,0,180)" stroke-width="1" width="45" x="3871" y="40"><title>write</title></rect><text fill="black" pointer-events="none" x="3873" y="55">write<title>write</title></text><rect class="framebox" fill="white" height="20" id="framebox-57" stroke="rgb(0,0,180)" stroke-width="1" width="81" x="3934" y="40"><title>fdatasync</title></rect><text fill="black" pointer-events="none" x="3936" y="55">fdatasync<title>fdatasync</title></text><rect class="framebox" fill="white" height="20" id="framebox-58" stroke="rgb(0,0,180)" stroke-width="1" width="45" x="4033" y="40"><title>close</title></rect><text fill="black" pointer-events="none" x="4035" y="55">close<title>close</title></text><rect class="framebox" fill="white" height="20" id="framebox-59" stroke="rgb(255,54,0)" stroke-width="1" width="315" x="3781" y="60"><title>leveldb::WriteStringToFileSync~1</title></rect><text fill="black" pointer-events="none" x="3783" y="75">leveldb::WriteStringToFileSync~1<title>leveldb::WriteStringToFileSync~1</title></text><rect class="framebox" fill="white" height="20" id="framebox-60" stroke="rgb(0,0,180)" stroke-width="1" width="54" x="4114" y="60"><title>rename</title></rect><text fill="black" pointer-events="none" x="4116" y="75">rename<title>rename</title></text><rect class="framebox" fill="white" height="20" id="framebox-61" stroke="rgb(255,18,0)" stroke-width="1" width="423" x="3763" y="80"><title>leveldb::SetCurrentFile~1</title></rect><text fill="black" pointer-events="none" x="3765" y="95">leveldb::SetCurrentFile~1<title>leveldb::SetCurrentFile~1</title></text><rect class="framebox" fill="white" height="20" id="framebox-62" stroke="rgb(109,0,0)" stroke-width="1" width="963" x="3241" y="100"><title>leveldb::VersionSet::LogAndApply~1</title></rect><text fill="black" pointer-events="none" x="3243" y="115">leveldb::VersionSet::LogAndApply~1<title>leveldb::VersionSet::LogAndApply~1</title></text><rect class="framebox" fill="white" height="20" id="framebox-63" stroke="rgb(0,0,180)" stroke-width="1" width="54" x="4240" y="80"><title>openat</title></rect><text fill="black" pointer-events="none" x="4242" y="95">openat<title>openat</title></text><rect class="framebox" fill="white" height="20" id="framebox-64" stroke="rgb(0,0,180)" stroke-width="1" width="45" x="4312" y="80"><title>fstat</title></rect><text fill="black" pointer-events="none" x="4314" y="95">fstat<title>fstat</title></text><rect class="framebox" fill="white" height="20" id="framebox-65" stroke="rgb(0,0,180)" stroke-width="1" width="90" x="4375" y="80"><title>getdents64</title></rect><text fill="black" pointer-events="none" x="4377" y="95">getdents64<title>getdents64</title></text><line stroke="black" stroke-width="2" x1="4369" x2="4369" y1="70" y2="100" /><line stroke="black" stroke-width="2" x1="4471" x2="4471" y1="70" y2="100" /><line stroke="black" stroke-width="2" x1="4369" x2="4378" y1="70" y2="70" /><line stroke="black" stroke-width="2" x1="4471" x2="4462" y1="70" y2="70" /><text fill="black" x="4476" y="90">x 2</text><rect class="framebox" fill="white" height="20" id="framebox-66" stroke="rgb(0,0,180)" stroke-width="1" width="45" x="4519" y="80"><title>close</title></rect><text fill="black" pointer-events="none" x="4521" y="95">close<title>close</title></text><rect class="framebox" fill="white" height="20" id="framebox-67" stroke="rgb(0,0,180)" stroke-width="1" width="45" x="4600" y="60"><title>write</title></rect><text fill="black" pointer-events="none" x="4602" y="75">write<title>write</title></text><rect class="framebox" fill="white" height="20" id="framebox-68" stroke="rgb(255,18,0)" stroke-width="1" width="81" x="4582" y="80"><title>leveldb::PosixLogger::Logv~4</title></rect><text fill="black" pointer-events="none" x="4584" y="95">leveldb..<title>leveldb::PosixLogger::Logv~4</title></text><line stroke="black" stroke-width="2" x1="4576" x2="4576" y1="70" y2="100" /><line stroke="black" stroke-width="2" x1="4669" x2="4669" y1="70" y2="100" /><line stroke="black" stroke-width="2" x1="4576" x2="4585" y1="70" y2="70" /><line stroke="black" stroke-width="2" x1="4669" x2="4660" y1="70" y2="70" /><text fill="black" x="4674" y="90">x 3</text><rect class="framebox" fill="white" height="20" id="framebox-69" stroke="rgb(109,0,0)" stroke-width="1" width="495" x="4222" y="100"><title>leveldb::DBImpl::RemoveObsoleteFiles~1</title></rect><text fill="black" pointer-events="none" x="4224" y="115">leveldb::DBImpl::RemoveObsoleteFiles~1<title>leveldb::DBImpl::RemoveObsoleteFiles~1</title></text><rect class="framebox" fill="white" height="20" id="framebox-70" stroke="rgb(0,0,180)" stroke-width="1" width="36" x="4735" y="100"><title>mmap</title></rect><text fill="black" pointer-events="none" x="4737" y="115">mmap<title>mmap</title></text><rect class="framebox" fill="white" height="20" id="framebox-71" stroke="rgb(72,0,0)" stroke-width="1" width="4536" x="253" y="120"><title>leveldb::DB::Open~1</title></rect><text fill="black" pointer-events="none" x="255" y="135">leveldb::DB::Open~1<title>leveldb::DB::Open~1</title></text><rect class="framebox" fill="white" height="20" id="framebox-72" stroke="rgb(0,0,180)" stroke-width="1" width="45" x="4807" y="120"><title>write</title></rect><text fill="black" pointer-events="none" x="4809" y="135">write<title>write</title></text><rect class="framebox" fill="white" height="20" id="framebox-73" stroke="rgb(0,0,180)" stroke-width="1" width="45" x="4870" y="120"><title>fstat</title></rect><text fill="black" pointer-events="none" x="4872" y="135">fstat<title>fstat</title></text><rect class="framebox" fill="white" height="20" id="framebox-74" stroke="rgb(0,0,180)" stroke-width="1" width="45" x="4933" y="120"><title>write</title></rect><text fill="black" pointer-events="none" x="4935" y="135">write<title>write</title></text><line stroke="black" stroke-width="2" x1="4927" x2="4927" y1="110" y2="140" /><line stroke="black" stroke-width="2" x1="4984" x2="4984" y1="110" y2="140" /><line stroke="black" stroke-width="2" x1="4927" x2="4936" y1="110" y2="110" /><line stroke="black" stroke-width="2" x1="4984" x2="4975" y1="110" y2="110" /><text fill="black" x="4989" y="130">x 3</text><rect class="framebox" fill="white" height="20" id="framebox-75" stroke="rgb(0,0,180)" stroke-width="1" width="45" x="5050" y="100"><title>write</title></rect><text fill="black" pointer-events="none" x="5052" y="115">write<title>write</title></text><line stroke="black" stroke-width="2" x1="5044" x2="5044" y1="90" y2="120" /><line stroke="black" stroke-width="2" x1="5101" x2="5101" y1="90" y2="120" /><line stroke="black" stroke-width="2" x1="5044" x2="5053" y1="90" y2="90" /><line stroke="black" stroke-width="2" x1="5101" x2="5092" y1="90" y2="90" /><text fill="black" x="5106" y="110">x 37</text><rect class="framebox" fill="white" height="20" id="framebox-76" stroke="rgb(72,0,0)" stroke-width="1" width="126" x="5032" y="120"><title>leveldb_stats~1</title></rect><text fill="black" pointer-events="none" x="5034" y="135">leveldb_stat..<title>leveldb_stats~1</title></text><rect class="framebox" fill="white" height="20" id="framebox-77" stroke="rgb(0,0,180)" stroke-width="1" width="45" x="5194" y="100"><title>fcntl</title></rect><text fill="black" pointer-events="none" x="5196" y="115">fcntl<title>fcntl</title></text><rect class="framebox" fill="white" height="20" id="framebox-78" stroke="rgb(0,0,180)" stroke-width="1" width="45" x="5257" y="100"><title>close</title></rect><text fill="black" pointer-events="none" x="5259" y="115">close<title>close</title></text><line stroke="black" stroke-width="2" x1="5251" x2="5251" y1="90" y2="120" /><line stroke="black" stroke-width="2" x1="5308" x2="5308" y1="90" y2="120" /><line stroke="black" stroke-width="2" x1="5251" x2="5260" y1="90" y2="90" /><line stroke="black" stroke-width="2" x1="5308" x2="5299" y1="90" y2="90" /><text fill="black" x="5313" y="110">x 3</text><rect class="framebox" fill="white" height="20" id="framebox-79" stroke="rgb(0,0,180)" stroke-width="1" width="45" x="5374" y="80"><title>close</title></rect><text fill="black" pointer-events="none" x="5376" y="95">close<title>close</title></text><line stroke="black" stroke-width="2" x1="5368" x2="5368" y1="70" y2="100" /><line stroke="black" stroke-width="2" x1="5425" x2="5425" y1="70" y2="100" /><line stroke="black" stroke-width="2" x1="5368" x2="5377" y1="70" y2="70" /><line stroke="black" stroke-width="2" x1="5425" x2="5416" y1="70" y2="70" /><text fill="black" x="5430" y="90">x 11</text><rect class="framebox" fill="white" height="20" id="framebox-80" stroke="rgb(109,0,0)" stroke-width="1" width="126" x="5356" y="100"><title>leveldb::TableCache::~TableCache~1</title></rect><text fill="black" pointer-events="none" x="5358" y="115">leveldb::Tab..<title>leveldb::TableCache::~TableCache~1</title></text><rect class="framebox" fill="white" height="20" id="framebox-81" stroke="rgb(0,0,180)" stroke-width="1" width="45" x="5500" y="100"><title>close</title></rect><text fill="black" pointer-events="none" x="5502" y="115">close<title>close</title></text><rect class="framebox" fill="white" height="20" id="framebox-82" stroke="rgb(72,0,0)" stroke-width="1" width="387" x="5176" y="120"><title>leveldb::DBImpl::~DBImpl~1</title></rect><text fill="black" pointer-events="none" x="5178" y="135">leveldb::DBImpl::~DBImpl~1<title>leveldb::DBImpl::~DBImpl~1</title></text><rect class="framebox" fill="white" height="20" id="framebox-83" stroke="rgb(36,0,0)" stroke-width="1" width="5571" x="10" y="140"><title>main~1</title></rect><text fill="black" pointer-events="none" x="12" y="155">main~1<title>main~1</title></text></svg>