<?xml version="1.0" encoding="utf-8" ?>
<svg baseProfile="full" height="1131.7261867337315" style="font-family: monospace;" version="1.1" width="404" xmlns="http://www.w3.org/2000/svg" xmlns:ev="http://www.w3.org/2001/xml-events" xmlns:xlink="http://www.w3.org/1999/xlink"><defs><marker id="arrow" markerHeight="4" markerUnits="strokeWidth" markerWidth="6" orient="auto" refX="6" refY="2.0"><polygon fill="black" points="0,0 6,2.0 0,4" stroke-width="0" /></marker></defs><rect fill="white" height="1131.7261867337315" stroke="grey" stroke-width="1" width="404" x="0" y="0" /><text fill="black" x="4" y="57.0">ubuf-0x55555566ea30</text><line stroke="grey" x1="0" x2="404" y1="45" y2="45" /><text fill="black" x="4" y="73.0">ubuf-0x555555699810</text><line stroke="grey" x1="0" x2="404" y1="61" y2="61" /><text fill="black" x="4" y="399.78403017918896">ubuf-0x7fffffffcf80</text><line stroke="grey" x1="0" x2="404" y1="387.78403017918896" y2="387.78403017918896" /><text fill="black" x="4" y="423.78403017918896">/tmp/helios_leveldb/dbdir/000061.ldb</text><line stroke="grey" x1="0" x2="404" y1="411.78403017918896" y2="411.78403017918896" /><line stroke="grey" x1="0" x2="404" y1="1075.7261867337315" y2="1075.7261867337315" /><line stroke="grey" stroke-width="8" x1="0" x2="404" y1="407.78403017918896" y2="407.78403017918896" /><line stroke="grey" x1="324" x2="324" y1="0" y2="1131.7261867337315" /><rect fill="white" height="16" stroke="black" stroke-width="2" width="16" x="330" y="1081.7261867337315" /><text fill="black" x="352" y="1093.7261867337315">Reading from resource</text><rect fill="lightgrey" height="16" stroke="black" stroke-width="2" width="16" x="330" y="1109.7261867337315" /><text fill="black" x="352" y="1121.7261867337315">Writing into resource</text><text fill="black" transform="rotate(270, 326, 41) translate(0, 10.0)" x="326" y="41">open</text><text fill="black" transform="rotate(270, 346, 41) translate(0, 10.0)" x="346" y="41">pread</text><rect fill="white" height="3.772398616787174" stroke="black" stroke-width="2" width="20" x="344" y="1071.9537881169445" /><rect fill="lightgrey" height="3.772398616787174" stroke="black" stroke-width="2" width="20" x="344" y="387.78403017918896" /><line marker-end="url(#arrow)" stroke="black" stroke-width="1" x1="354.0" x2="354.0" y1="1073.839987425338" y2="389.67022948758256" /><text fill="black" transform="rotate(270, 366, 41) translate(0, 10.0)" x="366" y="41">pread</text><rect fill="white" height="5.501414649481295" stroke="black" stroke-width="2" width="20" x="364" y="1066.452373467463" /><rect fill="lightgrey" height="5.501414649481295" stroke="black" stroke-width="2" width="20" x="364" y="45.0" /><line marker-end="url(#arrow)" stroke="black" stroke-width="1" x1="374.0" x2="374.0" y1="1069.2030807922038" y2="47.750707324740645" /><text fill="black" transform="rotate(270, 386, 41) translate(0, 10.0)" x="386" y="41">pread</text><rect fill="white" height="326.78403017918896" stroke="black" stroke-width="2" width="20" x="384" y="411.78403017918896" /><rect fill="lightgrey" height="326.78403017918896" stroke="black" stroke-width="2" width="20" x="384" y="61.0" /><line marker-end="url(#arrow)" stroke="black" stroke-width="1" x1="394.0" x2="394.0" y1="575.1760452687835" y2="224.39201508959448" /></svg>