<?xml version="1.0" encoding="utf-8" ?>
<svg baseProfile="full" height="1225.4272839477421" style="font-family: monospace;" version="1.1" width="1004" xmlns="http://www.w3.org/2000/svg" xmlns:ev="http://www.w3.org/2001/xml-events" xmlns:xlink="http://www.w3.org/1999/xlink"><defs><marker id="arrow" markerHeight="4" markerUnits="strokeWidth" markerWidth="6" orient="auto" refX="6" refY="2.0"><polygon fill="black" points="0,0 6,2.0 0,4" stroke-width="0" /></marker></defs><rect fill="white" height="1225.4272839477421" stroke="grey" stroke-width="1" width="1004" x="0" y="0" /><text fill="black" x="4" y="57.0">ubuf-0x555555664410</text><line stroke="grey" x1="0" x2="1004" y1="45" y2="45" /><text fill="black" x="4" y="73.0">ubuf-0x5555556644d0</text><line stroke="grey" x1="0" x2="1004" y1="61" y2="61" /><text fill="black" x="4" y="89.0">ubuf-0x555555667a20</text><line stroke="grey" x1="0" x2="1004" y1="77" y2="77" /><text fill="black" x="4" y="113.83252214278505">ubuf-0x5555556686b0</text><line stroke="grey" x1="0" x2="1004" y1="101.83252214278505" y2="101.83252214278505" /><text fill="black" x="4" y="138.65728169659144">ubuf-0x5555556693d0</text><line stroke="grey" x1="0" x2="1004" y1="126.65728169659144" y2="126.65728169659144" /><text fill="black" x="4" y="162.73683270844492">ubuf-0x55555566a090</text><line stroke="grey" x1="0" x2="1004" y1="150.73683270844492" y2="150.73683270844492" /><text fill="black" x="4" y="187.5615922622513">ubuf-0x55555566adb0</text><line stroke="grey" x1="0" x2="1004" y1="175.5615922622513" y2="175.5615922622513" /><text fill="black" x="4" y="212.37858922707903">ubuf-0x55555566bb30</text><line stroke="grey" x1="0" x2="1004" y1="200.37858922707903" y2="200.37858922707903" /><text fill="black" x="4" y="237.14901065803468">ubuf-0x55555566ccd0</text><line stroke="grey" x1="0" x2="1004" y1="225.14901065803468" y2="225.14901065803468" /><text fill="black" x="4" y="253.14901065803468">ubuf-0x55555566ea30</text><line stroke="grey" x1="0" x2="1004" y1="241.14901065803468" y2="241.14901065803468" /><text fill="black" x="4" y="269.1490106580347">ubuf-0x55555566f960</text><line stroke="grey" x1="0" x2="1004" y1="257.1490106580347" y2="257.1490106580347" /><text fill="black" x="4" y="285.1490106580347">ubuf-0x555555690c10</text><line stroke="grey" x1="0" x2="1004" y1="273.1490106580347" y2="273.1490106580347" /><text fill="black" x="4" y="309.93495726694766">ubuf-0x5555556918a0</text><line stroke="grey" x1="0" x2="1004" y1="297.93495726694766" y2="297.93495726694766" /><text fill="black" x="4" y="334.713141286882">ubuf-0x555555692520</text><line stroke="grey" x1="0" x2="1004" y1="322.713141286882" y2="322.713141286882" /><text fill="black" x="4" y="359.51461307375234">ubuf-0x5555556931b0</text><line stroke="grey" x1="0" x2="1004" y1="347.51461307375234" y2="347.51461307375234" /><text fill="black" x="4" y="384.27727191572933">ubuf-0x555555693e80</text><line stroke="grey" x1="0" x2="1004" y1="372.27727191572933" y2="372.27727191572933" /><text fill="black" x="4" y="409.1097940585144">ubuf-0x555555694ea0</text><line stroke="grey" x1="0" x2="1004" y1="397.1097940585144" y2="397.1097940585144" /><text fill="black" x="4" y="441.3555886759352">ubuf-0x555555696060</text><line stroke="grey" x1="0" x2="1004" y1="429.3555886759352" y2="429.3555886759352" /><text fill="black" x="4" y="457.3555886759352">ubuf-0x555555696380</text><line stroke="grey" x1="0" x2="1004" y1="445.3555886759352" y2="445.3555886759352" /><text fill="black" x="4" y="482.2113985856563">ubuf-0x555555697450</text><line stroke="grey" x1="0" x2="1004" y1="470.2113985856563" y2="470.2113985856563" /><text fill="black" x="4" y="514.4416680251197">ubuf-0x555555698540</text><line stroke="grey" x1="0" x2="1004" y1="502.4416680251197" y2="502.4416680251197" /><text fill="black" x="4" y="546.7029878204979">ubuf-0x555555699810</text><line stroke="grey" x1="0" x2="1004" y1="534.7029878204979" y2="534.7029878204979" /><text fill="black" x="4" y="578.9798327938335">ubuf-0x55555569a910</text><line stroke="grey" x1="0" x2="1004" y1="566.9798327938335" y2="566.9798327938335" /><text fill="black" x="4" y="611.2644403561476">ubuf-0x55555569bb90</text><line stroke="grey" x1="0" x2="1004" y1="599.2644403561476" y2="599.2644403561476" /><text fill="black" x="4" y="637.1138616551392">ubuf-0x7fffffffcf80</text><line stroke="grey" x1="0" x2="1004" y1="625.1138616551392" y2="625.1138616551392" /><text fill="black" x="4" y="653.1138616551392">ubuf-0x7fffffffcfe0</text><line stroke="grey" x1="0" x2="1004" y1="641.1138616551392" y2="641.1138616551392" /><text fill="black" x="4" y="677.1138616551392">/tmp/helios_leveldb/dbdir/000005.ldb</text><line stroke="grey" x1="0" x2="1004" y1="665.1138616551392" y2="665.1138616551392" /><text fill="black" x="4" y="702.6605419839625">/tmp/helios_leveldb/dbdir/000059.ldb</text><line stroke="grey" x1="0" x2="1004" y1="690.6605419839625" y2="690.6605419839625" /><text fill="black" x="4" y="735.7990343339311">/tmp/helios_leveldb/dbdir/000060.ldb</text><line stroke="grey" x1="0" x2="1004" y1="723.7990343339311" y2="723.7990343339311" /><text fill="black" x="4" y="801.1988464792778">/tmp/helios_leveldb/dbdir/000061.ldb</text><line stroke="grey" x1="0" x2="1004" y1="789.1988464792778" y2="789.1988464792778" /><text fill="black" x="4" y="866.777198171134">/tmp/helios_leveldb/dbdir/000062.ldb</text><line stroke="grey" x1="0" x2="1004" y1="854.777198171134" y2="854.777198171134" /><text fill="black" x="4" y="893.3174898892279">somefile00</text><line stroke="grey" x1="0" x2="1004" y1="881.3174898892279" y2="881.3174898892279" /><text fill="black" x="4" y="918.1500120320129">somefile01</text><line stroke="grey" x1="0" x2="1004" y1="906.1500120320129" y2="906.1500120320129" /><text fill="black" x="4" y="942.9747715858193">somefile02</text><line stroke="grey" x1="0" x2="1004" y1="930.9747715858193" y2="930.9747715858193" /><text fill="black" x="4" y="967.0543225976728">somefile03</text><line stroke="grey" x1="0" x2="1004" y1="955.0543225976728" y2="955.0543225976728" /><text fill="black" x="4" y="991.8790821514792">somefile04</text><line stroke="grey" x1="0" x2="1004" y1="979.8790821514792" y2="979.8790821514792" /><text fill="black" x="4" y="1016.6960791163069">somefile05</text><line stroke="grey" x1="0" x2="1004" y1="1004.6960791163069" y2="1004.6960791163069" /><text fill="black" x="4" y="1041.4665005472625">somefile06</text><line stroke="grey" x1="0" x2="1004" y1="1029.4665005472625" y2="1029.4665005472625" /><text fill="black" x="4" y="1066.2524471561755">somefile07</text><line stroke="grey" x1="0" x2="1004" y1="1054.2524471561755" y2="1054.2524471561755" /><text fill="black" x="4" y="1091.0306311761099">somefile08</text><line stroke="grey" x1="0" x2="1004" y1="1079.0306311761099" y2="1079.0306311761099" /><text fill="black" x="4" y="1115.8321029629801">somefile09</text><line stroke="grey" x1="0" x2="1004" y1="1103.8321029629801" y2="1103.8321029629801" /><text fill="black" x="4" y="1140.594761804957">somefile10</text><line stroke="grey" x1="0" x2="1004" y1="1128.594761804957" y2="1128.594761804957" /><text fill="black" x="4" y="1156.594761804957">somefile11</text><line stroke="grey" x1="0" x2="1004" y1="1144.594761804957" y2="1144.594761804957" /><line stroke="grey" x1="0" x2="1004" y1="1169.4272839477421" y2="1169.4272839477421" /><line stroke="grey" stroke-width="8" x1="0" x2="1004" y1="661.1138616551392" y2="661.1138616551392" /><line stroke="grey" x1="324" x2="324" y1="0" y2="1225.4272839477421" /><rect fill="white" height="16" stroke="black" stroke-width="2" width="16" x="330" y="1175.4272839477421" /><text fill="black" x="352" y="1187.4272839477421">Reading from resource</text><rect fill="lightgrey" height="16" stroke="black" stroke-width="2" width="16" x="330" y="1203.4272839477421" /><text fill="black" x="352" y="1215.4272839477421">Writing into resource</text><text fill="black" transform="rotate(270, 326, 41) translate(0, 10.0)" x="326" y="41">pread</text><rect fill="white" height="24.83252214278506" stroke="black" stroke-width="2" width="20" x="324" y="881.3174898892279" /><rect fill="lightgrey" height="24.83252214278506" stroke="black" stroke-width="2" width="20" x="324" y="77.0" /><line marker-end="url(#arrow)" stroke="black" stroke-width="1" x1="334.0" x2="334.0" y1="893.7337509606205" y2="89.41626107139253" /><text fill="black" transform="rotate(270, 346, 41) translate(0, 10.0)" x="346" y="41">pread</text><rect fill="white" height="24.824759553806384" stroke="black" stroke-width="2" width="20" x="344" y="906.1500120320129" /><rect fill="lightgrey" height="24.824759553806384" stroke="black" stroke-width="2" width="20" x="344" y="101.83252214278505" /><line marker-end="url(#arrow)" stroke="black" stroke-width="1" x1="354.0" x2="354.0" y1="918.5623918089161" y2="114.24490191968825" /><text fill="black" transform="rotate(270, 366, 41) translate(0, 10.0)" x="366" y="41">pread</text><rect fill="white" height="24.07955101185347" stroke="black" stroke-width="2" width="20" x="364" y="930.9747715858193" /><rect fill="lightgrey" height="24.07955101185347" stroke="black" stroke-width="2" width="20" x="364" y="126.65728169659144" /><line marker-end="url(#arrow)" stroke="black" stroke-width="1" x1="374.0" x2="374.0" y1="943.0145470917461" y2="138.69705720251818" /><text fill="black" transform="rotate(270, 386, 41) translate(0, 10.0)" x="386" y="41">pread</text><rect fill="white" height="24.824759553806384" stroke="black" stroke-width="2" width="20" x="384" y="955.0543225976728" /><rect fill="lightgrey" height="24.824759553806384" stroke="black" stroke-width="2" width="20" x="384" y="150.73683270844492" /><line marker-end="url(#arrow)" stroke="black" stroke-width="1" x1="394.0" x2="394.0" y1="967.466702374576" y2="163.1492124853481" /><text fill="black" transform="rotate(270, 406, 41) translate(0, 10.0)" x="406" y="41">pread</text><rect fill="white" height="24.81699696482771" stroke="black" stroke-width="2" width="20" x="404" y="979.8790821514792" /><rect fill="lightgrey" height="24.81699696482771" stroke="black" stroke-width="2" width="20" x="404" y="175.5615922622513" /><line marker-end="url(#arrow)" stroke="black" stroke-width="1" x1="414.0" x2="414.0" y1="992.2875806338931" y2="187.97009074466516" /><text fill="black" transform="rotate(270, 426, 41) translate(0, 10.0)" x="426" y="41">pread</text><rect fill="white" height="24.77042143095565" stroke="black" stroke-width="2" width="20" x="424" y="1004.6960791163069" /><rect fill="lightgrey" height="24.77042143095565" stroke="black" stroke-width="2" width="20" x="424" y="200.37858922707903" /><line marker-end="url(#arrow)" stroke="black" stroke-width="1" x1="434.0" x2="434.0" y1="1017.0812898317847" y2="212.76379994255686" /><text fill="black" transform="rotate(270, 446, 41) translate(0, 10.0)" x="446" y="41">pread</text><rect fill="white" height="24.785946608913004" stroke="black" stroke-width="2" width="20" x="444" y="1029.4665005472625" /><rect fill="lightgrey" height="24.785946608913004" stroke="black" stroke-width="2" width="20" x="444" y="273.1490106580347" /><line marker-end="url(#arrow)" stroke="black" stroke-width="1" x1="454.0" x2="454.0" y1="1041.859473851719" y2="285.5419839624912" /><text fill="black" transform="rotate(270, 466, 41) translate(0, 10.0)" x="466" y="41">pread</text><rect fill="white" height="24.77818401993433" stroke="black" stroke-width="2" width="20" x="464" y="1054.2524471561755" /><rect fill="lightgrey" height="24.77818401993433" stroke="black" stroke-width="2" width="20" x="464" y="297.93495726694766" /><line marker-end="url(#arrow)" stroke="black" stroke-width="1" x1="474.0" x2="474.0" y1="1066.6415391661428" y2="310.3240492769148" /><text fill="black" transform="rotate(270, 486, 41) translate(0, 10.0)" x="486" y="41">pread</text><rect fill="white" height="24.801471786870355" stroke="black" stroke-width="2" width="20" x="484" y="1079.0306311761099" /><rect fill="lightgrey" height="24.801471786870355" stroke="black" stroke-width="2" width="20" x="484" y="322.713141286882" /><line marker-end="url(#arrow)" stroke="black" stroke-width="1" x1="494.0" x2="494.0" y1="1091.431367069545" y2="335.11387718031716" /><text fill="black" transform="rotate(270, 506, 41) translate(0, 10.0)" x="506" y="41">pread</text><rect fill="white" height="24.762658841976975" stroke="black" stroke-width="2" width="20" x="504" y="1103.8321029629801" /><rect fill="lightgrey" height="24.762658841976975" stroke="black" stroke-width="2" width="20" x="504" y="347.51461307375234" /><line marker-end="url(#arrow)" stroke="black" stroke-width="1" x1="514.0" x2="514.0" y1="1116.2134323839687" y2="359.89594249474084" /><text fill="black" transform="rotate(270, 526, 41) translate(0, 10.0)" x="526" y="41">pread</text><rect fill="white" height="12.49776825566863" stroke="black" stroke-width="2" width="20" x="524" y="1128.594761804957" /><rect fill="lightgrey" height="12.49776825566863" stroke="black" stroke-width="2" width="20" x="524" y="225.14901065803468" /><line marker-end="url(#arrow)" stroke="black" stroke-width="1" x1="534.0" x2="534.0" y1="1134.8436459327913" y2="231.397894785869" /><text fill="black" transform="rotate(270, 546, 41) translate(0, 10.0)" x="546" y="41">pread</text><rect fill="white" height="24.83252214278506" stroke="black" stroke-width="2" width="20" x="544" y="1144.594761804957" /><rect fill="lightgrey" height="24.83252214278506" stroke="black" stroke-width="2" width="20" x="544" y="372.27727191572933" /><line marker-end="url(#arrow)" stroke="black" stroke-width="1" x1="554.0" x2="554.0" y1="1157.0110228763494" y2="384.69353298712184" /><text fill="black" transform="rotate(270, 566, 41) translate(0, 10.0)" x="566" y="41">open</text><text fill="black" transform="rotate(270, 586, 41) translate(0, 10.0)" x="586" y="41">pread</text><rect fill="white" height="0.37260427097645604" stroke="black" stroke-width="2" width="20" x="584" y="723.4264300629546" /><rect fill="lightgrey" height="0.37260427097645604" stroke="black" stroke-width="2" width="20" x="584" y="641.1138616551392" /><line marker-end="url(#arrow)" stroke="black" stroke-width="1" x1="594.0" x2="594.0" y1="723.6127321984428" y2="641.3001637906274" /><text fill="black" transform="rotate(270, 606, 41) translate(0, 10.0)" x="606" y="41">pread</text><rect fill="white" height="0.4191798048485131" stroke="black" stroke-width="2" width="20" x="604" y="723.0072502581061" /><rect fill="lightgrey" height="0.4191798048485131" stroke="black" stroke-width="2" width="20" x="604" y="45.0" /><line marker-end="url(#arrow)" stroke="black" stroke-width="1" x1="614.0" x2="614.0" y1="723.2168401605303" y2="45.209589902424256" /><text fill="black" transform="rotate(270, 626, 41) translate(0, 10.0)" x="626" y="41">pread</text><rect fill="white" height="32.2457946174208" stroke="black" stroke-width="2" width="20" x="624" y="690.6605419839625" /><rect fill="lightgrey" height="32.2457946174208" stroke="black" stroke-width="2" width="20" x="624" y="397.1097940585144" /><line marker-end="url(#arrow)" stroke="black" stroke-width="1" x1="634.0" x2="634.0" y1="706.7834392926729" y2="413.2326913672248" /><text fill="black" transform="rotate(270, 646, 41) translate(0, 10.0)" x="646" y="41">open</text><text fill="black" transform="rotate(270, 666, 41) translate(0, 10.0)" x="666" y="41">pread</text><rect fill="white" height="0.37260427097645604" stroke="black" stroke-width="2" width="20" x="664" y="690.287937712986" /><rect fill="lightgrey" height="0.37260427097645604" stroke="black" stroke-width="2" width="20" x="664" y="641.1138616551392" /><line marker-end="url(#arrow)" stroke="black" stroke-width="1" x1="674.0" x2="674.0" y1="690.4742398484742" y2="641.3001637906274" /><text fill="black" transform="rotate(270, 686, 41) translate(0, 10.0)" x="686" y="41">pread</text><rect fill="white" height="0.2173524914029327" stroke="black" stroke-width="2" width="20" x="684" y="690.0705852215831" /><rect fill="lightgrey" height="0.2173524914029327" stroke="black" stroke-width="2" width="20" x="684" y="429.3555886759352" /><line marker-end="url(#arrow)" stroke="black" stroke-width="1" x1="694.0" x2="694.0" y1="690.1792614672845" y2="429.4642649216367" /><text fill="black" transform="rotate(270, 706, 41) translate(0, 10.0)" x="706" y="41">pread</text><rect fill="white" height="24.85580990972109" stroke="black" stroke-width="2" width="20" x="704" y="665.1138616551392" /><rect fill="lightgrey" height="24.85580990972109" stroke="black" stroke-width="2" width="20" x="704" y="445.3555886759352" /><line marker-end="url(#arrow)" stroke="black" stroke-width="1" x1="714.0" x2="714.0" y1="677.5417666099997" y2="457.78349363079576" /><text fill="black" transform="rotate(270, 726, 41) translate(0, 10.0)" x="726" y="41">open</text><text fill="black" transform="rotate(270, 746, 41) translate(0, 10.0)" x="746" y="41">pread</text><rect fill="white" height="0.37260427097645604" stroke="black" stroke-width="2" width="20" x="744" y="788.8262422083013" /><rect fill="lightgrey" height="0.37260427097645604" stroke="black" stroke-width="2" width="20" x="744" y="625.1138616551392" /><line marker-end="url(#arrow)" stroke="black" stroke-width="1" x1="754.0" x2="754.0" y1="789.0125443437895" y2="625.3001637906274" /><text fill="black" transform="rotate(270, 766, 41) translate(0, 10.0)" x="766" y="41">pread</text><rect fill="white" height="0.4347049828058654" stroke="black" stroke-width="2" width="20" x="764" y="788.3915372254955" /><rect fill="lightgrey" height="0.4347049828058654" stroke="black" stroke-width="2" width="20" x="764" y="61.0" /><line marker-end="url(#arrow)" stroke="black" stroke-width="1" x1="774.0" x2="774.0" y1="788.6088897168985" y2="61.217352491402934" /><text fill="black" transform="rotate(270, 786, 41) translate(0, 10.0)" x="786" y="41">pread</text><rect fill="white" height="32.23026943946345" stroke="black" stroke-width="2" width="20" x="784" y="723.7990343339311" /><rect fill="lightgrey" height="32.23026943946345" stroke="black" stroke-width="2" width="20" x="784" y="470.2113985856563" /><line marker-end="url(#arrow)" stroke="black" stroke-width="1" x1="794.0" x2="794.0" y1="739.9141690536628" y2="486.326533305388" /><text fill="black" transform="rotate(270, 806, 41) translate(0, 10.0)" x="806" y="41">pread</text><rect fill="white" height="32.26131979537816" stroke="black" stroke-width="2" width="20" x="804" y="756.0293037733945" /><rect fill="lightgrey" height="32.26131979537816" stroke="black" stroke-width="2" width="20" x="804" y="502.4416680251197" /><line marker-end="url(#arrow)" stroke="black" stroke-width="1" x1="814.0" x2="814.0" y1="772.1599636710836" y2="518.5723279228088" /><text fill="black" transform="rotate(270, 826, 41) translate(0, 10.0)" x="826" y="41">open</text><text fill="black" transform="rotate(270, 846, 41) translate(0, 10.0)" x="846" y="41">pread</text><rect fill="white" height="0.37260427097645604" stroke="black" stroke-width="2" width="20" x="844" y="854.4045939001576" /><rect fill="lightgrey" height="0.37260427097645604" stroke="black" stroke-width="2" width="20" x="844" y="625.1138616551392" /><line marker-end="url(#arrow)" stroke="black" stroke-width="1" x1="854.0" x2="854.0" y1="854.5908960356458" y2="625.3001637906274" /><text fill="black" transform="rotate(270, 866, 41) translate(0, 10.0)" x="866" y="41">pread</text><rect fill="white" height="0.5433812285073317" stroke="black" stroke-width="2" width="20" x="864" y="853.8612126716503" /><rect fill="lightgrey" height="0.5433812285073317" stroke="black" stroke-width="2" width="20" x="864" y="241.14901065803468" /><line marker-end="url(#arrow)" stroke="black" stroke-width="1" x1="874.0" x2="874.0" y1="854.1329032859039" y2="241.42070127228834" /><text fill="black" transform="rotate(270, 886, 41) translate(0, 10.0)" x="886" y="41">pread</text><rect fill="white" height="32.27684497333551" stroke="black" stroke-width="2" width="20" x="884" y="789.1988464792778" /><rect fill="lightgrey" height="32.27684497333551" stroke="black" stroke-width="2" width="20" x="884" y="534.7029878204979" /><line marker-end="url(#arrow)" stroke="black" stroke-width="1" x1="894.0" x2="894.0" y1="805.3372689659456" y2="550.8414103071657" /><text fill="black" transform="rotate(270, 906, 41) translate(0, 10.0)" x="906" y="41">pread</text><rect fill="white" height="32.28460756231418" stroke="black" stroke-width="2" width="20" x="904" y="821.4756914526133" /><rect fill="lightgrey" height="32.28460756231418" stroke="black" stroke-width="2" width="20" x="904" y="566.9798327938335" /><line marker-end="url(#arrow)" stroke="black" stroke-width="1" x1="914.0" x2="914.0" y1="837.6179952337704" y2="583.1221365749906" /><text fill="black" transform="rotate(270, 926, 41) translate(0, 10.0)" x="926" y="41">open</text><text fill="black" transform="rotate(270, 946, 41) translate(0, 10.0)" x="946" y="41">pread</text><rect fill="white" height="0.37260427097645604" stroke="black" stroke-width="2" width="20" x="944" y="880.9448856182514" /><rect fill="lightgrey" height="0.37260427097645604" stroke="black" stroke-width="2" width="20" x="944" y="625.1138616551392" /><line marker-end="url(#arrow)" stroke="black" stroke-width="1" x1="954.0" x2="954.0" y1="881.1311877537396" y2="625.3001637906274" /><text fill="black" transform="rotate(270, 966, 41) translate(0, 10.0)" x="966" y="41">pread</text><rect fill="white" height="0.2173524914029327" stroke="black" stroke-width="2" width="20" x="964" y="880.7275331268485" /><rect fill="lightgrey" height="0.2173524914029327" stroke="black" stroke-width="2" width="20" x="964" y="257.1490106580347" /><line marker-end="url(#arrow)" stroke="black" stroke-width="1" x1="974.0" x2="974.0" y1="880.8362093725499" y2="257.25768690373616" /><text fill="black" transform="rotate(270, 986, 41) translate(0, 10.0)" x="986" y="41">pread</text><rect fill="white" height="25.84942129899164" stroke="black" stroke-width="2" width="20" x="984" y="854.777198171134" /><rect fill="lightgrey" height="25.84942129899164" stroke="black" stroke-width="2" width="20" x="984" y="599.2644403561476" /><line marker-end="url(#arrow)" stroke="black" stroke-width="1" x1="994.0" x2="994.0" y1="867.7019088206299" y2="612.1891510056435" /></svg>