<?xml version="1.0" encoding="utf-8" ?>
<svg baseProfile="full" height="1154.9045623392703" style="font-family: monospace;" version="1.1" width="644" xmlns="http://www.w3.org/2000/svg" xmlns:ev="http://www.w3.org/2001/xml-events" xmlns:xlink="http://www.w3.org/1999/xlink"><defs><marker id="arrow" markerHeight="4" markerUnits="strokeWidth" markerWidth="6" orient="auto" refX="6" refY="2.0"><polygon fill="black" points="0,0 6,2.0 0,4" stroke-width="0" /></marker></defs><rect fill="white" height="1154.9045623392703" stroke="grey" stroke-width="1" width="644" x="0" y="0" /><text fill="black" x="4" y="57.0">ubuf-0x4fb2e0</text><line stroke="grey" x1="0" x2="644" y1="45" y2="45" /><text fill="black" x="4" y="73.0">ubuf-0x4fd770</text><line stroke="grey" x1="0" x2="644" y1="61" y2="61" /><text fill="black" x="4" y="98.55798964980792">ubuf-0x4fea70</text><line stroke="grey" x1="0" x2="644" y1="86.55798964980792" y2="86.55798964980792" /><text fill="black" x="4" y="149.30885481156935">ubuf-0x4ff700</text><line stroke="grey" x1="0" x2="644" y1="137.30885481156935" y2="137.30885481156935" /><text fill="black" x="4" y="199.964472806934">ubuf-0x500380</text><line stroke="grey" x1="0" x2="644" y1="187.964472806934" y2="187.964472806934" /><text fill="black" x="4" y="250.60421627456583">ubuf-0x501000</text><line stroke="grey" x1="0" x2="644" y1="238.60421627456583" y2="238.60421627456583" /><text fill="black" x="4" y="301.37095596406004">ubuf-0x501c90</text><line stroke="grey" x1="0" x2="644" y1="289.37095596406004" y2="289.37095596406004" /><text fill="black" x="4" y="352.1535701812871">ubuf-0x502920</text><line stroke="grey" x1="0" x2="644" y1="340.1535701812871" y2="340.1535701812871" /><text fill="black" x="4" y="402.8250627043845">ubuf-0x5035a0</text><line stroke="grey" x1="0" x2="644" y1="390.8250627043845" y2="390.8250627043845" /><text fill="black" x="4" y="453.5441788106803">ubuf-0x504a80</text><line stroke="grey" x1="0" x2="644" y1="441.5441788106803" y2="441.5441788106803" /><text fill="black" x="4" y="469.5441788106803">ubuf-0x528230</text><line stroke="grey" x1="0" x2="644" y1="457.5441788106803" y2="457.5441788106803" /><text fill="black" x="4" y="535.4869670127313">ubuf-0x529280</text><line stroke="grey" x1="0" x2="644" y1="523.4869670127313" y2="523.4869670127313" /><text fill="black" x="4" y="586.3172048131566">ubuf-0x7fffffffca60</text><line stroke="grey" x1="0" x2="644" y1="574.3172048131566" y2="574.3172048131566" /><text fill="black" x="4" y="610.3172048131566">/tmp/helios_leveldb/dbdir/000005.ldb</text><line stroke="grey" x1="0" x2="644" y1="598.3172048131566" y2="598.3172048131566" /><text fill="black" x="4" y="662.5602755818013">/tmp/helios_leveldb/dbdir/000070.ldb</text><line stroke="grey" x1="0" x2="644" y1="650.5602755818013" y2="650.5602755818013" /><text fill="black" x="4" y="730.3603835285899">somefile10</text><line stroke="grey" x1="0" x2="644" y1="718.3603835285899" y2="718.3603835285899" /><text fill="black" x="4" y="781.1112486903513">somefile11</text><line stroke="grey" x1="0" x2="644" y1="769.1112486903513" y2="769.1112486903513" /><text fill="black" x="4" y="831.766866685716">somefile12</text><line stroke="grey" x1="0" x2="644" y1="819.766866685716" y2="819.766866685716" /><text fill="black" x="4" y="882.4383592088134">somefile13</text><line stroke="grey" x1="0" x2="644" y1="870.4383592088134" y2="870.4383592088134" /><text fill="black" x="4" y="933.1574753151092">somefile14</text><line stroke="grey" x1="0" x2="644" y1="921.1574753151092" y2="921.1574753151092" /><text fill="black" x="4" y="983.7972187827411">somefile15</text><line stroke="grey" x1="0" x2="644" y1="971.7972187827411" y2="971.7972187827411" /><text fill="black" x="4" y="1009.355208432549">somefile7</text><line stroke="grey" x1="0" x2="644" y1="997.355208432549" y2="997.355208432549" /><text fill="black" x="4" y="1060.1378226497761">somefile9</text><line stroke="grey" x1="0" x2="644" y1="1048.1378226497761" y2="1048.1378226497761" /><line stroke="grey" x1="0" x2="644" y1="1098.9045623392703" y2="1098.9045623392703" /><line stroke="grey" stroke-width="8" x1="0" x2="644" y1="594.3172048131566" y2="594.3172048131566" /><line stroke="grey" x1="324" x2="324" y1="0" y2="1154.9045623392703" /><rect fill="white" height="16" stroke="black" stroke-width="2" width="16" x="330" y="1104.9045623392703" /><text fill="black" x="352" y="1116.9045623392703">Reading from resource</text><rect fill="lightgrey" height="16" stroke="black" stroke-width="2" width="16" x="330" y="1132.9045623392703" /><text fill="black" x="352" y="1144.9045623392703">Writing into resource</text><text fill="black" transform="rotate(270, 326, 41) translate(0, 10.0)" x="326" y="41">pread</text><rect fill="white" height="25.55798964980792" stroke="black" stroke-width="2" width="20" x="324" y="971.7972187827411" /><rect fill="lightgrey" height="25.55798964980792" stroke="black" stroke-width="2" width="20" x="324" y="61.0" /><line marker-end="url(#arrow)" stroke="black" stroke-width="1" x1="334.0" x2="334.0" y1="984.5762136076451" y2="73.77899482490396" /><text fill="black" transform="rotate(270, 346, 41) translate(0, 10.0)" x="346" y="41">pread</text><rect fill="white" height="50.75086516176144" stroke="black" stroke-width="2" width="20" x="344" y="718.3603835285899" /><rect fill="lightgrey" height="50.75086516176144" stroke="black" stroke-width="2" width="20" x="344" y="86.55798964980792" /><line marker-end="url(#arrow)" stroke="black" stroke-width="1" x1="354.0" x2="354.0" y1="743.7358161094705" y2="111.93342223068865" /><text fill="black" transform="rotate(270, 366, 41) translate(0, 10.0)" x="366" y="41">pread</text><rect fill="white" height="50.655617995364636" stroke="black" stroke-width="2" width="20" x="364" y="769.1112486903513" /><rect fill="lightgrey" height="50.655617995364636" stroke="black" stroke-width="2" width="20" x="364" y="137.30885481156935" /><line marker-end="url(#arrow)" stroke="black" stroke-width="1" x1="374.0" x2="374.0" y1="794.4390576880336" y2="162.63666380925167" /><text fill="black" transform="rotate(270, 386, 41) translate(0, 10.0)" x="386" y="41">pread</text><rect fill="white" height="50.63974346763184" stroke="black" stroke-width="2" width="20" x="384" y="921.1574753151092" /><rect fill="lightgrey" height="50.63974346763184" stroke="black" stroke-width="2" width="20" x="384" y="187.964472806934" /><line marker-end="url(#arrow)" stroke="black" stroke-width="1" x1="394.0" x2="394.0" y1="946.4773470489251" y2="213.2843445407499" /><text fill="black" transform="rotate(270, 406, 41) translate(0, 10.0)" x="406" y="41">pread</text><rect fill="white" height="50.76673968949424" stroke="black" stroke-width="2" width="20" x="404" y="1048.1378226497761" /><rect fill="lightgrey" height="50.76673968949424" stroke="black" stroke-width="2" width="20" x="404" y="238.60421627456583" /><line marker-end="url(#arrow)" stroke="black" stroke-width="1" x1="414.0" x2="414.0" y1="1073.5211924945233" y2="263.98758611931294" /><text fill="black" transform="rotate(270, 426, 41) translate(0, 10.0)" x="426" y="41">pread</text><rect fill="white" height="50.782614217227035" stroke="black" stroke-width="2" width="20" x="424" y="997.355208432549" /><rect fill="lightgrey" height="50.782614217227035" stroke="black" stroke-width="2" width="20" x="424" y="289.37095596406004" /><line marker-end="url(#arrow)" stroke="black" stroke-width="1" x1="434.0" x2="434.0" y1="1022.7465155411626" y2="314.7622630726736" /><text fill="black" transform="rotate(270, 446, 41) translate(0, 10.0)" x="446" y="41">pread</text><rect fill="white" height="50.671492523097434" stroke="black" stroke-width="2" width="20" x="444" y="819.766866685716" /><rect fill="lightgrey" height="50.671492523097434" stroke="black" stroke-width="2" width="20" x="444" y="340.1535701812871" /><line marker-end="url(#arrow)" stroke="black" stroke-width="1" x1="454.0" x2="454.0" y1="845.1026129472647" y2="365.4893164428358" /><text fill="black" transform="rotate(270, 466, 41) translate(0, 10.0)" x="466" y="41">pread</text><rect fill="white" height="50.719116106295836" stroke="black" stroke-width="2" width="20" x="464" y="870.4383592088134" /><rect fill="lightgrey" height="50.719116106295836" stroke="black" stroke-width="2" width="20" x="464" y="390.8250627043845" /><line marker-end="url(#arrow)" stroke="black" stroke-width="1" x1="474.0" x2="474.0" y1="895.7979172619613" y2="416.1846207575324" /><text fill="black" transform="rotate(270, 486, 41) translate(0, 10.0)" x="486" y="41">open</text><text fill="black" transform="rotate(270, 506, 41) translate(0, 10.0)" x="506" y="41">pread</text><rect fill="white" height="0.7619773311743976" stroke="black" stroke-width="2" width="20" x="504" y="717.5984061974154" /><rect fill="lightgrey" height="0.7619773311743976" stroke="black" stroke-width="2" width="20" x="504" y="574.3172048131566" /><line marker-end="url(#arrow)" stroke="black" stroke-width="1" x1="514.0" x2="514.0" y1="717.9793948630027" y2="574.6981934787439" /><text fill="black" transform="rotate(270, 526, 41) translate(0, 10.0)" x="526" y="41">pread</text><rect fill="white" height="0.8889735530367971" stroke="black" stroke-width="2" width="20" x="524" y="716.7094326443787" /><rect fill="lightgrey" height="0.8889735530367971" stroke="black" stroke-width="2" width="20" x="524" y="45.0" /><line marker-end="url(#arrow)" stroke="black" stroke-width="1" x1="534.0" x2="534.0" y1="717.1539194208971" y2="45.444486776518396" /><text fill="black" transform="rotate(270, 546, 41) translate(0, 10.0)" x="546" y="41">pread</text><rect fill="white" height="65.94278820205099" stroke="black" stroke-width="2" width="20" x="544" y="650.5602755818013" /><rect fill="lightgrey" height="65.94278820205099" stroke="black" stroke-width="2" width="20" x="544" y="457.5441788106803" /><line marker-end="url(#arrow)" stroke="black" stroke-width="1" x1="554.0" x2="554.0" y1="683.5316696828268" y2="490.5155729117058" /><text fill="black" transform="rotate(270, 566, 41) translate(0, 10.0)" x="566" y="41">open</text><text fill="black" transform="rotate(270, 586, 41) translate(0, 10.0)" x="586" y="41">pread</text><rect fill="white" height="0.7619773311743976" stroke="black" stroke-width="2" width="20" x="584" y="649.7982982506269" /><rect fill="lightgrey" height="0.7619773311743976" stroke="black" stroke-width="2" width="20" x="584" y="574.3172048131566" /><line marker-end="url(#arrow)" stroke="black" stroke-width="1" x1="594.0" x2="594.0" y1="650.1792869162141" y2="574.6981934787439" /><text fill="black" transform="rotate(270, 606, 41) translate(0, 10.0)" x="606" y="41">pread</text><rect fill="white" height="0.4444867765183986" stroke="black" stroke-width="2" width="20" x="604" y="649.3538114741085" /><rect fill="lightgrey" height="0.4444867765183986" stroke="black" stroke-width="2" width="20" x="604" y="441.5441788106803" /><line marker-end="url(#arrow)" stroke="black" stroke-width="1" x1="614.0" x2="614.0" y1="649.5760548623678" y2="441.7664221989395" /><text fill="black" transform="rotate(270, 626, 41) translate(0, 10.0)" x="626" y="41">pread</text><rect fill="white" height="50.83023780042544" stroke="black" stroke-width="2" width="20" x="624" y="598.3172048131566" /><rect fill="lightgrey" height="50.83023780042544" stroke="black" stroke-width="2" width="20" x="624" y="523.4869670127313" /><line marker-end="url(#arrow)" stroke="black" stroke-width="1" x1="634.0" x2="634.0" y1="623.7323237133694" y2="548.902085912944" /></svg>