<?xml version="1.0" encoding="utf-8" ?>
<svg baseProfile="full" height="1127.2262168787208" style="font-family: monospace;" version="1.1" width="404" xmlns="http://www.w3.org/2000/svg" xmlns:ev="http://www.w3.org/2001/xml-events" xmlns:xlink="http://www.w3.org/1999/xlink"><defs><marker id="arrow" markerHeight="4" markerUnits="strokeWidth" markerWidth="6" orient="auto" refX="6" refY="2.0"><polygon fill="black" points="0,0 6,2.0 0,4" stroke-width="0" /></marker></defs><rect fill="white" height="1127.2262168787208" stroke="grey" stroke-width="1" width="404" x="0" y="0" /><text fill="black" x="4" y="57.0">ubuf-0x55555566ebd0</text><line stroke="grey" x1="0" x2="404" y1="45" y2="45" /><text fill="black" x="4" y="73.0">ubuf-0x555555692f20</text><line stroke="grey" x1="0" x2="404" y1="61" y2="61" /><text fill="black" x="4" y="558.4674915372943">ubuf-0x7fffffffcdf0</text><line stroke="grey" x1="0" x2="404" y1="546.4674915372943" y2="546.4674915372943" /><text fill="black" x="4" y="582.4674915372943">/tmp/helios_leveldb/dbdir/000061.ldb</text><line stroke="grey" x1="0" x2="404" y1="570.4674915372943" y2="570.4674915372943" /><line stroke="grey" x1="0" x2="404" y1="1071.2262168787208" y2="1071.2262168787208" /><line stroke="grey" stroke-width="8" x1="0" x2="404" y1="566.4674915372943" y2="566.4674915372943" /><line stroke="grey" x1="324" x2="324" y1="0" y2="1127.2262168787208" /><rect fill="white" height="16" stroke="black" stroke-width="2" width="16" x="330" y="1077.2262168787208" /><text fill="black" x="352" y="1089.2262168787208">Reading from resource</text><rect fill="lightgrey" height="16" stroke="black" stroke-width="2" width="16" x="330" y="1105.2262168787208" /><text fill="black" x="352" y="1117.2262168787208">Writing into resource</text><text fill="black" transform="rotate(270, 326, 41) translate(0, 10.0)" x="326" y="41">open</text><text fill="black" transform="rotate(270, 346, 41) translate(0, 10.0)" x="346" y="41">pread</text><rect fill="white" height="5.602894828994981" stroke="black" stroke-width="2" width="20" x="344" y="1065.6233220497259" /><rect fill="lightgrey" height="5.602894828994981" stroke="black" stroke-width="2" width="20" x="344" y="546.4674915372943" /><line marker-end="url(#arrow)" stroke="black" stroke-width="1" x1="354.0" x2="354.0" y1="1068.4247694642233" y2="549.2689389517918" /><text fill="black" transform="rotate(270, 366, 41) translate(0, 10.0)" x="366" y="41">pread</text><rect fill="white" height="8.170888292284348" stroke="black" stroke-width="2" width="20" x="364" y="1057.4524337574414" /><rect fill="lightgrey" height="8.170888292284348" stroke="black" stroke-width="2" width="20" x="364" y="45.0" /><line marker-end="url(#arrow)" stroke="black" stroke-width="1" x1="374.0" x2="374.0" y1="1061.5378779035836" y2="49.08544414614217" /><text fill="black" transform="rotate(270, 386, 41) translate(0, 10.0)" x="386" y="41">pread</text><rect fill="white" height="485.4674915372943" stroke="black" stroke-width="2" width="20" x="384" y="570.4674915372943" /><rect fill="lightgrey" height="485.4674915372943" stroke="black" stroke-width="2" width="20" x="384" y="61.0" /><line marker-end="url(#arrow)" stroke="black" stroke-width="1" x1="394.0" x2="394.0" y1="813.2012373059415" y2="303.73374576864717" /></svg>