<?xml version="1.0" encoding="utf-8" ?>
<svg baseProfile="full" height="160" style="font-family: monospace;" version="1.1" width="6832" xmlns="http://www.w3.org/2000/svg" xmlns:ev="http://www.w3.org/2001/xml-events" xmlns:xlink="http://www.w3.org/1999/xlink"><defs /><rect fill="white" height="160" stroke="grey" stroke-width="1" width="6832" x="0" y="0" /><rect class="framebox" fill="white" height="20" id="framebox-0" stroke="rgb(0,0,180)" stroke-width="1" width="54" x="28" y="100"><title>openat</title></rect><text fill="black" pointer-events="none" x="30" y="115">openat<title>openat</title></text><rect class="framebox" fill="white" height="20" id="framebox-1" stroke="rgb(0,0,180)" stroke-width="1" width="36" x="100" y="100"><title>read</title></rect><text fill="black" pointer-events="none" x="102" y="115">read<title>read</title></text><line stroke="black" stroke-width="2" x1="94" x2="94" y1="90" y2="120" /><line stroke="black" stroke-width="2" x1="142" x2="142" y1="90" y2="120" /><line stroke="black" stroke-width="2" x1="94" x2="103" y1="90" y2="90" /><line stroke="black" stroke-width="2" x1="142" x2="133" y1="90" y2="90" /><text fill="black" x="147" y="110">x 2</text><rect class="framebox" fill="white" height="20" id="framebox-2" stroke="rgb(0,0,180)" stroke-width="1" width="45" x="190" y="100"><title>close</title></rect><text fill="black" pointer-events="none" x="192" y="115">close<title>close</title></text><rect class="framebox" fill="white" height="20" id="framebox-3" stroke="rgb(0,0,180)" stroke-width="1" width="54" x="289" y="60"><title>rename</title></rect><text fill="black" pointer-events="none" x="291" y="75">rename<title>rename</title></text><rect class="framebox" fill="white" height="20" id="framebox-4" stroke="rgb(0,0,180)" stroke-width="1" width="54" x="361" y="60"><title>openat</title></rect><text fill="black" pointer-events="none" x="363" y="75">openat<title>openat</title></text><rect class="framebox" fill="white" height="20" id="framebox-5" stroke="rgb(0,0,180)" stroke-width="1" width="45" x="433" y="60"><title>fcntl</title></rect><text fill="black" pointer-events="none" x="435" y="75">fcntl<title>fcntl</title></text><rect class="framebox" fill="white" height="20" id="framebox-6" stroke="rgb(255,0,0)" stroke-width="1" width="225" x="271" y="80"><title>leveldb::SanitizeOptions~1</title></rect><text fill="black" pointer-events="none" x="273" y="95">leveldb::SanitizeOption..<title>leveldb::SanitizeOptions~1</title></text><rect class="framebox" fill="white" height="20" id="framebox-7" stroke="rgb(0,0,180)" stroke-width="1" width="54" x="532" y="60"><title>openat</title></rect><text fill="black" pointer-events="none" x="534" y="75">openat<title>openat</title></text><rect class="framebox" fill="white" height="20" id="framebox-8" stroke="rgb(0,0,180)" stroke-width="1" width="45" x="604" y="60"><title>fcntl</title></rect><text fill="black" pointer-events="none" x="606" y="75">fcntl<title>fcntl</title></text><rect class="framebox" fill="white" height="20" id="framebox-9" stroke="rgb(0,0,180)" stroke-width="1" width="54" x="667" y="60"><title>access</title></rect><text fill="black" pointer-events="none" x="669" y="75">access<title>access</title></text><rect class="framebox" fill="white" height="20" id="framebox-10" stroke="rgb(0,0,180)" stroke-width="1" width="54" x="775" y="20"><title>openat</title></rect><text fill="black" pointer-events="none" x="777" y="35">openat<title>openat</title></text><rect class="framebox" fill="white" height="20" id="framebox-11" stroke="rgb(0,0,180)" stroke-width="1" width="36" x="847" y="20"><title>read</title></rect><text fill="black" pointer-events="none" x="849" y="35">read<title>read</title></text><line stroke="black" stroke-width="2" x1="841" x2="841" y1="10" y2="40" /><line stroke="black" stroke-width="2" x1="889" x2="889" y1="10" y2="40" /><line stroke="black" stroke-width="2" x1="841" x2="850" y1="10" y2="10" /><line stroke="black" stroke-width="2" x1="889" x2="880" y1="10" y2="10" /><text fill="black" x="894" y="30">x 2</text><rect class="framebox" fill="white" height="20" id="framebox-12" stroke="rgb(0,0,180)" stroke-width="1" width="45" x="937" y="20"><title>close</title></rect><text fill="black" pointer-events="none" x="939" y="35">close<title>close</title></text><rect class="framebox" fill="white" height="20" id="framebox-13" stroke="rgb(255,85,0)" stroke-width="1" width="243" x="757" y="40"><title>leveldb::ReadFileToString~1</title></rect><text fill="black" pointer-events="none" x="759" y="55">leveldb::ReadFileToString..<title>leveldb::ReadFileToString~1</title></text><rect class="framebox" fill="white" height="20" id="framebox-14" stroke="rgb(0,0,180)" stroke-width="1" width="54" x="1018" y="40"><title>openat</title></rect><text fill="black" pointer-events="none" x="1020" y="55">openat<title>openat</title></text><rect class="framebox" fill="white" height="20" id="framebox-15" stroke="rgb(0,0,180)" stroke-width="1" width="36" x="1090" y="40"><title>read</title></rect><text fill="black" pointer-events="none" x="1092" y="55">read<title>read</title></text><rect class="framebox" fill="white" height="20" id="framebox-16" stroke="rgb(0,0,180)" stroke-width="1" width="45" x="1144" y="40"><title>close</title></rect><text fill="black" pointer-events="none" x="1146" y="55">close<title>close</title></text><rect class="framebox" fill="white" height="20" id="framebox-17" stroke="rgb(255,42,0)" stroke-width="1" width="468" x="739" y="60"><title>leveldb::VersionSet::Recover~1</title></rect><text fill="black" pointer-events="none" x="741" y="75">leveldb::VersionSet::Recover~1<title>leveldb::VersionSet::Recover~1</title></text><rect class="framebox" fill="white" height="20" id="framebox-18" stroke="rgb(0,0,180)" stroke-width="1" width="54" x="1225" y="60"><title>openat</title></rect><text fill="black" pointer-events="none" x="1227" y="75">openat<title>openat</title></text><rect class="framebox" fill="white" height="20" id="framebox-19" stroke="rgb(0,0,180)" stroke-width="1" width="45" x="1297" y="60"><title>fstat</title></rect><text fill="black" pointer-events="none" x="1299" y="75">fstat<title>fstat</title></text><rect class="framebox" fill="white" height="20" id="framebox-20" stroke="rgb(0,0,180)" stroke-width="1" width="90" x="1360" y="60"><title>getdents64</title></rect><text fill="black" pointer-events="none" x="1362" y="75">getdents64<title>getdents64</title></text><line stroke="black" stroke-width="2" x1="1354" x2="1354" y1="50" y2="80" /><line stroke="black" stroke-width="2" x1="1456" x2="1456" y1="50" y2="80" /><line stroke="black" stroke-width="2" x1="1354" x2="1363" y1="50" y2="50" /><line stroke="black" stroke-width="2" x1="1456" x2="1447" y1="50" y2="50" /><text fill="black" x="1461" y="70">x 2</text><rect class="framebox" fill="white" height="20" id="framebox-21" stroke="rgb(0,0,180)" stroke-width="1" width="45" x="1504" y="60"><title>close</title></rect><text fill="black" pointer-events="none" x="1506" y="75">close<title>close</title></text><rect class="framebox" fill="white" height="20" id="framebox-22" stroke="rgb(0,0,180)" stroke-width="1" width="54" x="1585" y="40"><title>openat</title></rect><text fill="black" pointer-events="none" x="1587" y="55">openat<title>openat</title></text><rect class="framebox" fill="white" height="20" id="framebox-23" stroke="rgb(0,0,180)" stroke-width="1" width="54" x="1675" y="20"><title>openat</title></rect><text fill="black" pointer-events="none" x="1677" y="35">openat<title>openat</title></text><rect class="framebox" fill="white" height="20" id="framebox-24" stroke="rgb(0,0,180)" stroke-width="1" width="45" x="1747" y="20"><title>fstat</title></rect><text fill="black" pointer-events="none" x="1749" y="35">fstat<title>fstat</title></text><line stroke="black" stroke-width="2" x1="1741" x2="1741" y1="10" y2="40" /><line stroke="black" stroke-width="2" x1="1798" x2="1798" y1="10" y2="40" /><line stroke="black" stroke-width="2" x1="1741" x2="1750" y1="10" y2="10" /><line stroke="black" stroke-width="2" x1="1798" x2="1789" y1="10" y2="10" /><text fill="black" x="1803" y="30">x 2</text><rect class="framebox" fill="white" height="20" id="framebox-25" stroke="rgb(0,0,180)" stroke-width="1" width="36" x="1846" y="20"><title>read</title></rect><text fill="black" pointer-events="none" x="1848" y="35">read<title>read</title></text><rect class="framebox" fill="white" height="20" id="framebox-26" stroke="rgb(0,0,180)" stroke-width="1" width="45" x="1900" y="20"><title>lseek</title></rect><text fill="black" pointer-events="none" x="1902" y="35">lseek<title>lseek</title></text><rect class="framebox" fill="white" height="20" id="framebox-27" stroke="rgb(0,0,180)" stroke-width="1" width="36" x="1963" y="20"><title>read</title></rect><text fill="black" pointer-events="none" x="1965" y="35">read<title>read</title></text><rect class="framebox" fill="white" height="20" id="framebox-28" stroke="rgb(0,0,180)" stroke-width="1" width="45" x="2017" y="20"><title>close</title></rect><text fill="black" pointer-events="none" x="2019" y="35">close<title>close</title></text><rect class="framebox" fill="white" height="20" id="framebox-29" stroke="rgb(0,0,180)" stroke-width="1" width="45" x="2080" y="20"><title>fstat</title></rect><text fill="black" pointer-events="none" x="2082" y="35">fstat<title>fstat</title></text><rect class="framebox" fill="white" height="20" id="framebox-30" stroke="rgb(0,0,180)" stroke-width="1" width="45" x="2143" y="20"><title>write</title></rect><text fill="black" pointer-events="none" x="2145" y="35">write<title>write</title></text><rect class="framebox" fill="white" height="20" id="framebox-31" stroke="rgb(255,85,0)" stroke-width="1" width="549" x="1657" y="40"><title>leveldb::PosixLogger::Logv~1</title></rect><text fill="black" pointer-events="none" x="1659" y="55">leveldb::PosixLogger::Logv~1<title>leveldb::PosixLogger::Logv~1</title></text><rect class="framebox" fill="white" height="20" id="framebox-32" stroke="rgb(0,0,180)" stroke-width="1" width="36" x="2224" y="40"><title>read</title></rect><text fill="black" pointer-events="none" x="2226" y="55">read<title>read</title></text><rect class="framebox" fill="white" height="20" id="framebox-33" stroke="rgb(0,0,180)" stroke-width="1" width="45" x="2278" y="40"><title>close</title></rect><text fill="black" pointer-events="none" x="2280" y="55">close<title>close</title></text><rect class="framebox" fill="white" height="20" id="framebox-34" stroke="rgb(255,42,0)" stroke-width="1" width="774" x="1567" y="60"><title>leveldb::DBImpl::RecoverLogFile~1</title></rect><text fill="black" pointer-events="none" x="1569" y="75">leveldb::DBImpl::RecoverLogFile~1<title>leveldb::DBImpl::RecoverLogFile~1</title></text><rect class="framebox" fill="white" height="20" id="framebox-35" stroke="rgb(255,0,0)" stroke-width="1" width="1845" x="514" y="80"><title>leveldb::DBImpl::Recover~1</title></rect><text fill="black" pointer-events="none" x="516" y="95">leveldb::DBImpl::Recover~1<title>leveldb::DBImpl::Recover~1</title></text><rect class="framebox" fill="white" height="20" id="framebox-36" stroke="rgb(0,0,180)" stroke-width="1" width="54" x="2377" y="80"><title>openat</title></rect><text fill="black" pointer-events="none" x="2379" y="95">openat<title>openat</title></text><rect class="framebox" fill="white" height="20" id="framebox-37" stroke="rgb(0,0,180)" stroke-width="1" width="54" x="2467" y="60"><title>openat</title></rect><text fill="black" pointer-events="none" x="2469" y="75">openat<title>openat</title></text><rect class="framebox" fill="white" height="20" id="framebox-38" stroke="rgb(0,0,180)" stroke-width="1" width="45" x="2539" y="60"><title>write</title></rect><text fill="black" pointer-events="none" x="2541" y="75">write<title>write</title></text><line stroke="black" stroke-width="2" x1="2533" x2="2533" y1="50" y2="80" /><line stroke="black" stroke-width="2" x1="2590" x2="2590" y1="50" y2="80" /><line stroke="black" stroke-width="2" x1="2533" x2="2542" y1="50" y2="50" /><line stroke="black" stroke-width="2" x1="2590" x2="2581" y1="50" y2="50" /><text fill="black" x="2595" y="70">x 2</text><rect class="framebox" fill="white" height="20" id="framebox-39" stroke="rgb(0,0,180)" stroke-width="1" width="54" x="2638" y="60"><title>openat</title></rect><text fill="black" pointer-events="none" x="2640" y="75">openat<title>openat</title></text><rect class="framebox" fill="white" height="20" id="framebox-40" stroke="rgb(0,0,180)" stroke-width="1" width="81" x="2710" y="60"><title>fdatasync</title></rect><text fill="black" pointer-events="none" x="2712" y="75">fdatasync<title>fdatasync</title></text><rect class="framebox" fill="white" height="20" id="framebox-41" stroke="rgb(0,0,180)" stroke-width="1" width="45" x="2809" y="60"><title>close</title></rect><text fill="black" pointer-events="none" x="2811" y="75">close<title>close</title></text><rect class="framebox" fill="white" height="20" id="framebox-42" stroke="rgb(0,0,180)" stroke-width="1" width="81" x="2872" y="60"><title>fdatasync</title></rect><text fill="black" pointer-events="none" x="2874" y="75">fdatasync<title>fdatasync</title></text><rect class="framebox" fill="white" height="20" id="framebox-43" stroke="rgb(0,0,180)" stroke-width="1" width="54" x="3007" y="20"><title>openat</title></rect><text fill="black" pointer-events="none" x="3009" y="35">openat<title>openat</title></text><rect class="framebox" fill="white" height="20" id="framebox-44" stroke="rgb(0,0,180)" stroke-width="1" width="45" x="3079" y="20"><title>write</title></rect><text fill="black" pointer-events="none" x="3081" y="35">write<title>write</title></text><rect class="framebox" fill="white" height="20" id="framebox-45" stroke="rgb(0,0,180)" stroke-width="1" width="81" x="3142" y="20"><title>fdatasync</title></rect><text fill="black" pointer-events="none" x="3144" y="35">fdatasync<title>fdatasync</title></text><rect class="framebox" fill="white" height="20" id="framebox-46" stroke="rgb(0,0,180)" stroke-width="1" width="45" x="3241" y="20"><title>close</title></rect><text fill="black" pointer-events="none" x="3243" y="35">close<title>close</title></text><rect class="framebox" fill="white" height="20" id="framebox-47" stroke="rgb(255,85,0)" stroke-width="1" width="315" x="2989" y="40"><title>leveldb::WriteStringToFileSync~1</title></rect><text fill="black" pointer-events="none" x="2991" y="55">leveldb::WriteStringToFileSync~1<title>leveldb::WriteStringToFileSync~1</title></text><rect class="framebox" fill="white" height="20" id="framebox-48" stroke="rgb(0,0,180)" stroke-width="1" width="54" x="3322" y="40"><title>rename</title></rect><text fill="black" pointer-events="none" x="3324" y="55">rename<title>rename</title></text><rect class="framebox" fill="white" height="20" id="framebox-49" stroke="rgb(255,42,0)" stroke-width="1" width="423" x="2971" y="60"><title>leveldb::SetCurrentFile~1</title></rect><text fill="black" pointer-events="none" x="2973" y="75">leveldb::SetCurrentFile~1<title>leveldb::SetCurrentFile~1</title></text><rect class="framebox" fill="white" height="20" id="framebox-50" stroke="rgb(255,0,0)" stroke-width="1" width="963" x="2449" y="80"><title>leveldb::VersionSet::LogAndApply~1</title></rect><text fill="black" pointer-events="none" x="2451" y="95">leveldb::VersionSet::LogAndApply~1<title>leveldb::VersionSet::LogAndApply~1</title></text><rect class="framebox" fill="white" height="20" id="framebox-51" stroke="rgb(0,0,180)" stroke-width="1" width="54" x="3448" y="60"><title>openat</title></rect><text fill="black" pointer-events="none" x="3450" y="75">openat<title>openat</title></text><rect class="framebox" fill="white" height="20" id="framebox-52" stroke="rgb(0,0,180)" stroke-width="1" width="45" x="3520" y="60"><title>fstat</title></rect><text fill="black" pointer-events="none" x="3522" y="75">fstat<title>fstat</title></text><rect class="framebox" fill="white" height="20" id="framebox-53" stroke="rgb(0,0,180)" stroke-width="1" width="90" x="3583" y="60"><title>getdents64</title></rect><text fill="black" pointer-events="none" x="3585" y="75">getdents64<title>getdents64</title></text><line stroke="black" stroke-width="2" x1="3577" x2="3577" y1="50" y2="80" /><line stroke="black" stroke-width="2" x1="3679" x2="3679" y1="50" y2="80" /><line stroke="black" stroke-width="2" x1="3577" x2="3586" y1="50" y2="50" /><line stroke="black" stroke-width="2" x1="3679" x2="3670" y1="50" y2="50" /><text fill="black" x="3684" y="70">x 2</text><rect class="framebox" fill="white" height="20" id="framebox-54" stroke="rgb(0,0,180)" stroke-width="1" width="45" x="3727" y="60"><title>close</title></rect><text fill="black" pointer-events="none" x="3729" y="75">close<title>close</title></text><rect class="framebox" fill="white" height="20" id="framebox-55" stroke="rgb(0,0,180)" stroke-width="1" width="45" x="3808" y="40"><title>write</title></rect><text fill="black" pointer-events="none" x="3810" y="55">write<title>write</title></text><rect class="framebox" fill="white" height="20" id="framebox-56" stroke="rgb(255,42,0)" stroke-width="1" width="81" x="3790" y="60"><title>leveldb::PosixLogger::Logv~2</title></rect><text fill="black" pointer-events="none" x="3792" y="75">leveldb..<title>leveldb::PosixLogger::Logv~2</title></text><line stroke="black" stroke-width="2" x1="3784" x2="3784" y1="50" y2="80" /><line stroke="black" stroke-width="2" x1="3877" x2="3877" y1="50" y2="80" /><line stroke="black" stroke-width="2" x1="3784" x2="3793" y1="50" y2="50" /><line stroke="black" stroke-width="2" x1="3877" x2="3868" y1="50" y2="50" /><text fill="black" x="3882" y="70">x 3</text><rect class="framebox" fill="white" height="20" id="framebox-57" stroke="rgb(255,0,0)" stroke-width="1" width="495" x="3430" y="80"><title>leveldb::DBImpl::RemoveObsoleteFiles~1</title></rect><text fill="black" pointer-events="none" x="3432" y="95">leveldb::DBImpl::RemoveObsoleteFiles~1<title>leveldb::DBImpl::RemoveObsoleteFiles~1</title></text><rect class="framebox" fill="white" height="20" id="framebox-58" stroke="rgb(0,0,180)" stroke-width="1" width="36" x="3943" y="80"><title>mmap</title></rect><text fill="black" pointer-events="none" x="3945" y="95">mmap<title>mmap</title></text><rect class="framebox" fill="white" height="20" id="framebox-59" stroke="rgb(85,0,0)" stroke-width="1" width="3744" x="253" y="100"><title>leveldb::DB::Open~1</title></rect><text fill="black" pointer-events="none" x="255" y="115">leveldb::DB::Open~1<title>leveldb::DB::Open~1</title></text><rect class="framebox" fill="white" height="20" id="framebox-60" stroke="rgb(0,0,180)" stroke-width="1" width="63" x="4051" y="60"><title>pread64</title></rect><text fill="black" pointer-events="none" x="4053" y="75">pread64<title>pread64</title></text><rect class="framebox" fill="white" height="20" id="framebox-61" stroke="rgb(255,0,0)" stroke-width="1" width="99" x="4033" y="80"><title>leveldb::IteratorWrapper::Seek~2</title></rect><text fill="black" pointer-events="none" x="4035" y="95">leveldb::..<title>leveldb::IteratorWrapper::Seek~2</title></text><line stroke="black" stroke-width="2" x1="4027" x2="4027" y1="70" y2="100" /><line stroke="black" stroke-width="2" x1="4138" x2="4138" y1="70" y2="100" /><line stroke="black" stroke-width="2" x1="4027" x2="4036" y1="70" y2="70" /><line stroke="black" stroke-width="2" x1="4138" x2="4129" y1="70" y2="70" /><text fill="black" x="4143" y="90">x 12</text><rect class="framebox" fill="white" height="20" id="framebox-62" stroke="rgb(0,0,180)" stroke-width="1" width="54" x="4231" y="40"><title>openat</title></rect><text fill="black" pointer-events="none" x="4233" y="55">openat<title>openat</title></text><rect class="framebox" fill="white" height="20" id="framebox-63" stroke="rgb(0,0,180)" stroke-width="1" width="63" x="4321" y="20"><title>pread64</title></rect><text fill="black" pointer-events="none" x="4323" y="35">pread64<title>pread64</title></text><line stroke="black" stroke-width="2" x1="4315" x2="4315" y1="10" y2="40" /><line stroke="black" stroke-width="2" x1="4390" x2="4390" y1="10" y2="40" /><line stroke="black" stroke-width="2" x1="4315" x2="4324" y1="10" y2="10" /><line stroke="black" stroke-width="2" x1="4390" x2="4381" y1="10" y2="10" /><text fill="black" x="4395" y="30">x 2</text><rect class="framebox" fill="white" height="20" id="framebox-64" stroke="rgb(255,85,0)" stroke-width="1" width="135" x="4303" y="40"><title>leveldb::Table::Open~1</title></rect><text fill="black" pointer-events="none" x="4305" y="55">leveldb::Tabl..<title>leveldb::Table::Open~1</title></text><rect class="framebox" fill="white" height="20" id="framebox-65" stroke="rgb(255,42,0)" stroke-width="1" width="243" x="4213" y="60"><title>leveldb::TableCache::FindTable~13</title></rect><text fill="black" pointer-events="none" x="4215" y="75">leveldb::TableCache::Find..<title>leveldb::TableCache::FindTable~13</title></text><rect class="framebox" fill="white" height="20" id="framebox-66" stroke="rgb(0,0,180)" stroke-width="1" width="63" x="4492" y="40"><title>pread64</title></rect><text fill="black" pointer-events="none" x="4494" y="55">pread64<title>pread64</title></text><rect class="framebox" fill="white" height="20" id="framebox-67" stroke="rgb(255,42,0)" stroke-width="1" width="99" x="4474" y="60"><title>leveldb::IteratorWrapper::Seek~40</title></rect><text fill="black" pointer-events="none" x="4476" y="75">leveldb::..<title>leveldb::IteratorWrapper::Seek~40</title></text><rect class="framebox" fill="white" height="20" id="framebox-68" stroke="rgb(255,0,0)" stroke-width="1" width="396" x="4195" y="80"><title>leveldb::IteratorWrapper::Seek~38</title></rect><text fill="black" pointer-events="none" x="4197" y="95">leveldb::IteratorWrapper::Seek~38<title>leveldb::IteratorWrapper::Seek~38</title></text><line stroke="black" stroke-width="2" x1="4189" x2="4189" y1="70" y2="100" /><line stroke="black" stroke-width="2" x1="4597" x2="4597" y1="70" y2="100" /><line stroke="black" stroke-width="2" x1="4189" x2="4198" y1="70" y2="70" /><line stroke="black" stroke-width="2" x1="4597" x2="4588" y1="70" y2="70" /><text fill="black" x="4602" y="90">x 2</text><rect class="framebox" fill="white" height="20" id="framebox-69" stroke="rgb(0,0,180)" stroke-width="1" width="54" x="4681" y="40"><title>openat</title></rect><text fill="black" pointer-events="none" x="4683" y="55">openat<title>openat</title></text><rect class="framebox" fill="white" height="20" id="framebox-70" stroke="rgb(0,0,180)" stroke-width="1" width="63" x="4771" y="20"><title>pread64</title></rect><text fill="black" pointer-events="none" x="4773" y="35">pread64<title>pread64</title></text><line stroke="black" stroke-width="2" x1="4765" x2="4765" y1="10" y2="40" /><line stroke="black" stroke-width="2" x1="4840" x2="4840" y1="10" y2="40" /><line stroke="black" stroke-width="2" x1="4765" x2="4774" y1="10" y2="10" /><line stroke="black" stroke-width="2" x1="4840" x2="4831" y1="10" y2="10" /><text fill="black" x="4845" y="30">x 2</text><rect class="framebox" fill="white" height="20" id="framebox-71" stroke="rgb(255,85,0)" stroke-width="1" width="135" x="4753" y="40"><title>leveldb::Table::Open~3</title></rect><text fill="black" pointer-events="none" x="4755" y="55">leveldb::Tabl..<title>leveldb::Table::Open~3</title></text><rect class="framebox" fill="white" height="20" id="framebox-72" stroke="rgb(255,42,0)" stroke-width="1" width="243" x="4663" y="60"><title>leveldb::TableCache::FindTable~15</title></rect><text fill="black" pointer-events="none" x="4665" y="75">leveldb::TableCache::Find..<title>leveldb::TableCache::FindTable~15</title></text><rect class="framebox" fill="white" height="20" id="framebox-73" stroke="rgb(0,0,180)" stroke-width="1" width="63" x="4924" y="60"><title>pread64</title></rect><text fill="black" pointer-events="none" x="4926" y="75">pread64<title>pread64</title></text><rect class="framebox" fill="white" height="20" id="framebox-74" stroke="rgb(255,0,0)" stroke-width="1" width="360" x="4645" y="80"><title>leveldb::IteratorWrapper::Next~192</title></rect><text fill="black" pointer-events="none" x="4647" y="95">leveldb::IteratorWrapper::Next~192<title>leveldb::IteratorWrapper::Next~192</title></text><rect class="framebox" fill="white" height="20" id="framebox-75" stroke="rgb(0,0,180)" stroke-width="1" width="63" x="5059" y="40"><title>pread64</title></rect><text fill="black" pointer-events="none" x="5061" y="55">pread64<title>pread64</title></text><rect class="framebox" fill="white" height="20" id="framebox-76" stroke="rgb(255,42,0)" stroke-width="1" width="99" x="5041" y="60"><title>leveldb::IteratorWrapper::Next~394</title></rect><text fill="black" pointer-events="none" x="5043" y="75">leveldb::..<title>leveldb::IteratorWrapper::Next~394</title></text><rect class="framebox" fill="white" height="20" id="framebox-77" stroke="rgb(255,0,0)" stroke-width="1" width="135" x="5023" y="80"><title>leveldb::IteratorWrapper::Next~393</title></rect><text fill="black" pointer-events="none" x="5025" y="95">leveldb::Iter..<title>leveldb::IteratorWrapper::Next~393</title></text><rect class="framebox" fill="white" height="20" id="framebox-78" stroke="rgb(0,0,180)" stroke-width="1" width="54" x="5212" y="40"><title>openat</title></rect><text fill="black" pointer-events="none" x="5214" y="55">openat<title>openat</title></text><rect class="framebox" fill="white" height="20" id="framebox-79" stroke="rgb(0,0,180)" stroke-width="1" width="63" x="5302" y="20"><title>pread64</title></rect><text fill="black" pointer-events="none" x="5304" y="35">pread64<title>pread64</title></text><line stroke="black" stroke-width="2" x1="5296" x2="5296" y1="10" y2="40" /><line stroke="black" stroke-width="2" x1="5371" x2="5371" y1="10" y2="40" /><line stroke="black" stroke-width="2" x1="5296" x2="5305" y1="10" y2="10" /><line stroke="black" stroke-width="2" x1="5371" x2="5362" y1="10" y2="10" /><text fill="black" x="5376" y="30">x 2</text><rect class="framebox" fill="white" height="20" id="framebox-80" stroke="rgb(255,85,0)" stroke-width="1" width="135" x="5284" y="40"><title>leveldb::Table::Open~4</title></rect><text fill="black" pointer-events="none" x="5286" y="55">leveldb::Tabl..<title>leveldb::Table::Open~4</title></text><rect class="framebox" fill="white" height="20" id="framebox-81" stroke="rgb(255,42,0)" stroke-width="1" width="243" x="5194" y="60"><title>leveldb::TableCache::FindTable~16</title></rect><text fill="black" pointer-events="none" x="5196" y="75">leveldb::TableCache::Find..<title>leveldb::TableCache::FindTable~16</title></text><rect class="framebox" fill="white" height="20" id="framebox-82" stroke="rgb(0,0,180)" stroke-width="1" width="63" x="5455" y="60"><title>pread64</title></rect><text fill="black" pointer-events="none" x="5457" y="75">pread64<title>pread64</title></text><rect class="framebox" fill="white" height="20" id="framebox-83" stroke="rgb(255,0,0)" stroke-width="1" width="360" x="5176" y="80"><title>leveldb::IteratorWrapper::Next~606</title></rect><text fill="black" pointer-events="none" x="5178" y="95">leveldb::IteratorWrapper::Next~606<title>leveldb::IteratorWrapper::Next~606</title></text><rect class="framebox" fill="white" height="20" id="framebox-84" stroke="rgb(0,0,180)" stroke-width="1" width="63" x="5590" y="40"><title>pread64</title></rect><text fill="black" pointer-events="none" x="5592" y="55">pread64<title>pread64</title></text><rect class="framebox" fill="white" height="20" id="framebox-85" stroke="rgb(255,42,0)" stroke-width="1" width="99" x="5572" y="60"><title>leveldb::IteratorWrapper::Next~825</title></rect><text fill="black" pointer-events="none" x="5574" y="75">leveldb::..<title>leveldb::IteratorWrapper::Next~825</title></text><rect class="framebox" fill="white" height="20" id="framebox-86" stroke="rgb(255,0,0)" stroke-width="1" width="135" x="5554" y="80"><title>leveldb::IteratorWrapper::Next~824</title></rect><text fill="black" pointer-events="none" x="5556" y="95">leveldb::Iter..<title>leveldb::IteratorWrapper::Next~824</title></text><rect class="framebox" fill="white" height="20" id="framebox-87" stroke="rgb(0,0,180)" stroke-width="1" width="54" x="5743" y="40"><title>openat</title></rect><text fill="black" pointer-events="none" x="5745" y="55">openat<title>openat</title></text><rect class="framebox" fill="white" height="20" id="framebox-88" stroke="rgb(0,0,180)" stroke-width="1" width="63" x="5833" y="20"><title>pread64</title></rect><text fill="black" pointer-events="none" x="5835" y="35">pread64<title>pread64</title></text><line stroke="black" stroke-width="2" x1="5827" x2="5827" y1="10" y2="40" /><line stroke="black" stroke-width="2" x1="5902" x2="5902" y1="10" y2="40" /><line stroke="black" stroke-width="2" x1="5827" x2="5836" y1="10" y2="10" /><line stroke="black" stroke-width="2" x1="5902" x2="5893" y1="10" y2="10" /><text fill="black" x="5907" y="30">x 2</text><rect class="framebox" fill="white" height="20" id="framebox-89" stroke="rgb(255,85,0)" stroke-width="1" width="135" x="5815" y="40"><title>leveldb::Table::Open~5</title></rect><text fill="black" pointer-events="none" x="5817" y="55">leveldb::Tabl..<title>leveldb::Table::Open~5</title></text><rect class="framebox" fill="white" height="20" id="framebox-90" stroke="rgb(255,42,0)" stroke-width="1" width="243" x="5725" y="60"><title>leveldb::TableCache::FindTable~17</title></rect><text fill="black" pointer-events="none" x="5727" y="75">leveldb::TableCache::Find..<title>leveldb::TableCache::FindTable~17</title></text><rect class="framebox" fill="white" height="20" id="framebox-91" stroke="rgb(0,0,180)" stroke-width="1" width="63" x="5986" y="60"><title>pread64</title></rect><text fill="black" pointer-events="none" x="5988" y="75">pread64<title>pread64</title></text><rect class="framebox" fill="white" height="20" id="framebox-92" stroke="rgb(255,0,0)" stroke-width="1" width="360" x="5707" y="80"><title>leveldb::IteratorWrapper::Next~1036</title></rect><text fill="black" pointer-events="none" x="5709" y="95">leveldb::IteratorWrapper::Next~1036<title>leveldb::IteratorWrapper::Next~1036</title></text><rect class="framebox" fill="white" height="20" id="framebox-93" stroke="rgb(85,0,0)" stroke-width="1" width="2070" x="4015" y="100"><title>do_ycsb~1</title></rect><text fill="black" pointer-events="none" x="4017" y="115">do_ycsb~1<title>do_ycsb~1</title></text><rect class="framebox" fill="white" height="20" id="framebox-94" stroke="rgb(0,0,180)" stroke-width="1" width="45" x="6103" y="100"><title>fstat</title></rect><text fill="black" pointer-events="none" x="6105" y="115">fstat<title>fstat</title></text><rect class="framebox" fill="white" height="20" id="framebox-95" stroke="rgb(0,0,180)" stroke-width="1" width="45" x="6166" y="100"><title>write</title></rect><text fill="black" pointer-events="none" x="6168" y="115">write<title>write</title></text><line stroke="black" stroke-width="2" x1="6160" x2="6160" y1="90" y2="120" /><line stroke="black" stroke-width="2" x1="6217" x2="6217" y1="90" y2="120" /><line stroke="black" stroke-width="2" x1="6160" x2="6169" y1="90" y2="90" /><line stroke="black" stroke-width="2" x1="6217" x2="6208" y1="90" y2="90" /><text fill="black" x="6222" y="110">x 3</text><rect class="framebox" fill="white" height="20" id="framebox-96" stroke="rgb(0,0,180)" stroke-width="1" width="45" x="6283" y="80"><title>write</title></rect><text fill="black" pointer-events="none" x="6285" y="95">write<title>write</title></text><line stroke="black" stroke-width="2" x1="6277" x2="6277" y1="70" y2="100" /><line stroke="black" stroke-width="2" x1="6334" x2="6334" y1="70" y2="100" /><line stroke="black" stroke-width="2" x1="6277" x2="6286" y1="70" y2="70" /><line stroke="black" stroke-width="2" x1="6334" x2="6325" y1="70" y2="70" /><text fill="black" x="6339" y="90">x 48</text><rect class="framebox" fill="white" height="20" id="framebox-97" stroke="rgb(85,0,0)" stroke-width="1" width="126" x="6265" y="100"><title>leveldb_stats~1</title></rect><text fill="black" pointer-events="none" x="6267" y="115">leveldb_stat..<title>leveldb_stats~1</title></text><rect class="framebox" fill="white" height="20" id="framebox-98" stroke="rgb(0,0,180)" stroke-width="1" width="45" x="6427" y="80"><title>fcntl</title></rect><text fill="black" pointer-events="none" x="6429" y="95">fcntl<title>fcntl</title></text><rect class="framebox" fill="white" height="20" id="framebox-99" stroke="rgb(0,0,180)" stroke-width="1" width="45" x="6490" y="80"><title>close</title></rect><text fill="black" pointer-events="none" x="6492" y="95">close<title>close</title></text><line stroke="black" stroke-width="2" x1="6484" x2="6484" y1="70" y2="100" /><line stroke="black" stroke-width="2" x1="6541" x2="6541" y1="70" y2="100" /><line stroke="black" stroke-width="2" x1="6484" x2="6493" y1="70" y2="70" /><line stroke="black" stroke-width="2" x1="6541" x2="6532" y1="70" y2="70" /><text fill="black" x="6546" y="90">x 3</text><rect class="framebox" fill="white" height="20" id="framebox-100" stroke="rgb(0,0,180)" stroke-width="1" width="45" x="6607" y="60"><title>close</title></rect><text fill="black" pointer-events="none" x="6609" y="75">close<title>close</title></text><line stroke="black" stroke-width="2" x1="6601" x2="6601" y1="50" y2="80" /><line stroke="black" stroke-width="2" x1="6658" x2="6658" y1="50" y2="80" /><line stroke="black" stroke-width="2" x1="6601" x2="6610" y1="50" y2="50" /><line stroke="black" stroke-width="2" x1="6658" x2="6649" y1="50" y2="50" /><text fill="black" x="6663" y="70">x 20</text><rect class="framebox" fill="white" height="20" id="framebox-101" stroke="rgb(255,0,0)" stroke-width="1" width="126" x="6589" y="80"><title>leveldb::TableCache::~TableCache~1</title></rect><text fill="black" pointer-events="none" x="6591" y="95">leveldb::Tab..<title>leveldb::TableCache::~TableCache~1</title></text><rect class="framebox" fill="white" height="20" id="framebox-102" stroke="rgb(0,0,180)" stroke-width="1" width="45" x="6733" y="80"><title>close</title></rect><text fill="black" pointer-events="none" x="6735" y="95">close<title>close</title></text><rect class="framebox" fill="white" height="20" id="framebox-103" stroke="rgb(85,0,0)" stroke-width="1" width="387" x="6409" y="100"><title>leveldb::DBImpl::~DBImpl~1</title></rect><text fill="black" pointer-events="none" x="6411" y="115">leveldb::DBImpl::~DBImpl~1<title>leveldb::DBImpl::~DBImpl~1</title></text><rect class="framebox" fill="white" height="20" id="framebox-104" stroke="rgb(42,0,0)" stroke-width="1" width="6804" x="10" y="120"><title>main~1</title></rect><text fill="black" pointer-events="none" x="12" y="135">main~1<title>main~1</title></text></svg>