<?xml version="1.0" encoding="utf-8" ?>
<svg baseProfile="full" height="160" style="font-family: monospace;" version="1.1" width="5356" xmlns="http://www.w3.org/2000/svg" xmlns:ev="http://www.w3.org/2001/xml-events" xmlns:xlink="http://www.w3.org/1999/xlink"><defs /><rect fill="white" height="160" stroke="grey" stroke-width="1" width="5356" x="0" y="0" /><rect class="framebox" fill="white" height="20" id="framebox-0" stroke="rgb(0,0,180)" stroke-width="1" width="54" x="28" y="100"><title>openat</title></rect><text fill="black" pointer-events="none" x="30" y="115">openat<title>openat</title></text><rect class="framebox" fill="white" height="20" id="framebox-1" stroke="rgb(0,0,180)" stroke-width="1" width="36" x="100" y="100"><title>read</title></rect><text fill="black" pointer-events="none" x="102" y="115">read<title>read</title></text><line stroke="black" stroke-width="2" x1="94" x2="94" y1="90" y2="120" /><line stroke="black" stroke-width="2" x1="142" x2="142" y1="90" y2="120" /><line stroke="black" stroke-width="2" x1="94" x2="103" y1="90" y2="90" /><line stroke="black" stroke-width="2" x1="142" x2="133" y1="90" y2="90" /><text fill="black" x="147" y="110">x 2</text><rect class="framebox" fill="white" height="20" id="framebox-2" stroke="rgb(0,0,180)" stroke-width="1" width="45" x="190" y="100"><title>close</title></rect><text fill="black" pointer-events="none" x="192" y="115">close<title>close</title></text><rect class="framebox" fill="white" height="20" id="framebox-3" stroke="rgb(0,0,180)" stroke-width="1" width="54" x="289" y="60"><title>rename</title></rect><text fill="black" pointer-events="none" x="291" y="75">rename<title>rename</title></text><rect class="framebox" fill="white" height="20" id="framebox-4" stroke="rgb(0,0,180)" stroke-width="1" width="54" x="361" y="60"><title>openat</title></rect><text fill="black" pointer-events="none" x="363" y="75">openat<title>openat</title></text><rect class="framebox" fill="white" height="20" id="framebox-5" stroke="rgb(0,0,180)" stroke-width="1" width="45" x="433" y="60"><title>fcntl</title></rect><text fill="black" pointer-events="none" x="435" y="75">fcntl<title>fcntl</title></text><rect class="framebox" fill="white" height="20" id="framebox-6" stroke="rgb(255,0,0)" stroke-width="1" width="225" x="271" y="80"><title>leveldb::SanitizeOptions~1</title></rect><text fill="black" pointer-events="none" x="273" y="95">leveldb::SanitizeOption..<title>leveldb::SanitizeOptions~1</title></text><rect class="framebox" fill="white" height="20" id="framebox-7" stroke="rgb(0,0,180)" stroke-width="1" width="54" x="532" y="60"><title>openat</title></rect><text fill="black" pointer-events="none" x="534" y="75">openat<title>openat</title></text><rect class="framebox" fill="white" height="20" id="framebox-8" stroke="rgb(0,0,180)" stroke-width="1" width="45" x="604" y="60"><title>fcntl</title></rect><text fill="black" pointer-events="none" x="606" y="75">fcntl<title>fcntl</title></text><rect class="framebox" fill="white" height="20" id="framebox-9" stroke="rgb(0,0,180)" stroke-width="1" width="54" x="667" y="60"><title>access</title></rect><text fill="black" pointer-events="none" x="669" y="75">access<title>access</title></text><rect class="framebox" fill="white" height="20" id="framebox-10" stroke="rgb(0,0,180)" stroke-width="1" width="54" x="775" y="20"><title>openat</title></rect><text fill="black" pointer-events="none" x="777" y="35">openat<title>openat</title></text><rect class="framebox" fill="white" height="20" id="framebox-11" stroke="rgb(0,0,180)" stroke-width="1" width="36" x="847" y="20"><title>read</title></rect><text fill="black" pointer-events="none" x="849" y="35">read<title>read</title></text><line stroke="black" stroke-width="2" x1="841" x2="841" y1="10" y2="40" /><line stroke="black" stroke-width="2" x1="889" x2="889" y1="10" y2="40" /><line stroke="black" stroke-width="2" x1="841" x2="850" y1="10" y2="10" /><line stroke="black" stroke-width="2" x1="889" x2="880" y1="10" y2="10" /><text fill="black" x="894" y="30">x 2</text><rect class="framebox" fill="white" height="20" id="framebox-12" stroke="rgb(0,0,180)" stroke-width="1" width="45" x="937" y="20"><title>close</title></rect><text fill="black" pointer-events="none" x="939" y="35">close<title>close</title></text><rect class="framebox" fill="white" height="20" id="framebox-13" stroke="rgb(255,85,0)" stroke-width="1" width="243" x="757" y="40"><title>leveldb::ReadFileToString~1</title></rect><text fill="black" pointer-events="none" x="759" y="55">leveldb::ReadFileToString..<title>leveldb::ReadFileToString~1</title></text><rect class="framebox" fill="white" height="20" id="framebox-14" stroke="rgb(0,0,180)" stroke-width="1" width="54" x="1018" y="40"><title>openat</title></rect><text fill="black" pointer-events="none" x="1020" y="55">openat<title>openat</title></text><rect class="framebox" fill="white" height="20" id="framebox-15" stroke="rgb(0,0,180)" stroke-width="1" width="36" x="1090" y="40"><title>read</title></rect><text fill="black" pointer-events="none" x="1092" y="55">read<title>read</title></text><rect class="framebox" fill="white" height="20" id="framebox-16" stroke="rgb(0,0,180)" stroke-width="1" width="45" x="1144" y="40"><title>close</title></rect><text fill="black" pointer-events="none" x="1146" y="55">close<title>close</title></text><rect class="framebox" fill="white" height="20" id="framebox-17" stroke="rgb(255,42,0)" stroke-width="1" width="468" x="739" y="60"><title>leveldb::VersionSet::Recover~1</title></rect><text fill="black" pointer-events="none" x="741" y="75">leveldb::VersionSet::Recover~1<title>leveldb::VersionSet::Recover~1</title></text><rect class="framebox" fill="white" height="20" id="framebox-18" stroke="rgb(0,0,180)" stroke-width="1" width="54" x="1225" y="60"><title>openat</title></rect><text fill="black" pointer-events="none" x="1227" y="75">openat<title>openat</title></text><rect class="framebox" fill="white" height="20" id="framebox-19" stroke="rgb(0,0,180)" stroke-width="1" width="45" x="1297" y="60"><title>fstat</title></rect><text fill="black" pointer-events="none" x="1299" y="75">fstat<title>fstat</title></text><rect class="framebox" fill="white" height="20" id="framebox-20" stroke="rgb(0,0,180)" stroke-width="1" width="90" x="1360" y="60"><title>getdents64</title></rect><text fill="black" pointer-events="none" x="1362" y="75">getdents64<title>getdents64</title></text><line stroke="black" stroke-width="2" x1="1354" x2="1354" y1="50" y2="80" /><line stroke="black" stroke-width="2" x1="1456" x2="1456" y1="50" y2="80" /><line stroke="black" stroke-width="2" x1="1354" x2="1363" y1="50" y2="50" /><line stroke="black" stroke-width="2" x1="1456" x2="1447" y1="50" y2="50" /><text fill="black" x="1461" y="70">x 2</text><rect class="framebox" fill="white" height="20" id="framebox-21" stroke="rgb(0,0,180)" stroke-width="1" width="45" x="1504" y="60"><title>close</title></rect><text fill="black" pointer-events="none" x="1506" y="75">close<title>close</title></text><rect class="framebox" fill="white" height="20" id="framebox-22" stroke="rgb(0,0,180)" stroke-width="1" width="54" x="1585" y="40"><title>openat</title></rect><text fill="black" pointer-events="none" x="1587" y="55">openat<title>openat</title></text><rect class="framebox" fill="white" height="20" id="framebox-23" stroke="rgb(0,0,180)" stroke-width="1" width="54" x="1675" y="20"><title>openat</title></rect><text fill="black" pointer-events="none" x="1677" y="35">openat<title>openat</title></text><rect class="framebox" fill="white" height="20" id="framebox-24" stroke="rgb(0,0,180)" stroke-width="1" width="45" x="1747" y="20"><title>fstat</title></rect><text fill="black" pointer-events="none" x="1749" y="35">fstat<title>fstat</title></text><line stroke="black" stroke-width="2" x1="1741" x2="1741" y1="10" y2="40" /><line stroke="black" stroke-width="2" x1="1798" x2="1798" y1="10" y2="40" /><line stroke="black" stroke-width="2" x1="1741" x2="1750" y1="10" y2="10" /><line stroke="black" stroke-width="2" x1="1798" x2="1789" y1="10" y2="10" /><text fill="black" x="1803" y="30">x 2</text><rect class="framebox" fill="white" height="20" id="framebox-25" stroke="rgb(0,0,180)" stroke-width="1" width="36" x="1846" y="20"><title>read</title></rect><text fill="black" pointer-events="none" x="1848" y="35">read<title>read</title></text><rect class="framebox" fill="white" height="20" id="framebox-26" stroke="rgb(0,0,180)" stroke-width="1" width="45" x="1900" y="20"><title>lseek</title></rect><text fill="black" pointer-events="none" x="1902" y="35">lseek<title>lseek</title></text><rect class="framebox" fill="white" height="20" id="framebox-27" stroke="rgb(0,0,180)" stroke-width="1" width="36" x="1963" y="20"><title>read</title></rect><text fill="black" pointer-events="none" x="1965" y="35">read<title>read</title></text><rect class="framebox" fill="white" height="20" id="framebox-28" stroke="rgb(0,0,180)" stroke-width="1" width="45" x="2017" y="20"><title>close</title></rect><text fill="black" pointer-events="none" x="2019" y="35">close<title>close</title></text><rect class="framebox" fill="white" height="20" id="framebox-29" stroke="rgb(0,0,180)" stroke-width="1" width="45" x="2080" y="20"><title>fstat</title></rect><text fill="black" pointer-events="none" x="2082" y="35">fstat<title>fstat</title></text><rect class="framebox" fill="white" height="20" id="framebox-30" stroke="rgb(0,0,180)" stroke-width="1" width="45" x="2143" y="20"><title>write</title></rect><text fill="black" pointer-events="none" x="2145" y="35">write<title>write</title></text><rect class="framebox" fill="white" height="20" id="framebox-31" stroke="rgb(255,85,0)" stroke-width="1" width="549" x="1657" y="40"><title>leveldb::PosixLogger::Logv~1</title></rect><text fill="black" pointer-events="none" x="1659" y="55">leveldb::PosixLogger::Logv~1<title>leveldb::PosixLogger::Logv~1</title></text><rect class="framebox" fill="white" height="20" id="framebox-32" stroke="rgb(0,0,180)" stroke-width="1" width="36" x="2224" y="40"><title>read</title></rect><text fill="black" pointer-events="none" x="2226" y="55">read<title>read</title></text><rect class="framebox" fill="white" height="20" id="framebox-33" stroke="rgb(0,0,180)" stroke-width="1" width="45" x="2278" y="40"><title>close</title></rect><text fill="black" pointer-events="none" x="2280" y="55">close<title>close</title></text><rect class="framebox" fill="white" height="20" id="framebox-34" stroke="rgb(255,42,0)" stroke-width="1" width="774" x="1567" y="60"><title>leveldb::DBImpl::RecoverLogFile~1</title></rect><text fill="black" pointer-events="none" x="1569" y="75">leveldb::DBImpl::RecoverLogFile~1<title>leveldb::DBImpl::RecoverLogFile~1</title></text><rect class="framebox" fill="white" height="20" id="framebox-35" stroke="rgb(255,0,0)" stroke-width="1" width="1845" x="514" y="80"><title>leveldb::DBImpl::Recover~1</title></rect><text fill="black" pointer-events="none" x="516" y="95">leveldb::DBImpl::Recover~1<title>leveldb::DBImpl::Recover~1</title></text><rect class="framebox" fill="white" height="20" id="framebox-36" stroke="rgb(0,0,180)" stroke-width="1" width="54" x="2377" y="80"><title>openat</title></rect><text fill="black" pointer-events="none" x="2379" y="95">openat<title>openat</title></text><rect class="framebox" fill="white" height="20" id="framebox-37" stroke="rgb(0,0,180)" stroke-width="1" width="54" x="2467" y="60"><title>openat</title></rect><text fill="black" pointer-events="none" x="2469" y="75">openat<title>openat</title></text><rect class="framebox" fill="white" height="20" id="framebox-38" stroke="rgb(0,0,180)" stroke-width="1" width="45" x="2539" y="60"><title>write</title></rect><text fill="black" pointer-events="none" x="2541" y="75">write<title>write</title></text><line stroke="black" stroke-width="2" x1="2533" x2="2533" y1="50" y2="80" /><line stroke="black" stroke-width="2" x1="2590" x2="2590" y1="50" y2="80" /><line stroke="black" stroke-width="2" x1="2533" x2="2542" y1="50" y2="50" /><line stroke="black" stroke-width="2" x1="2590" x2="2581" y1="50" y2="50" /><text fill="black" x="2595" y="70">x 2</text><rect class="framebox" fill="white" height="20" id="framebox-39" stroke="rgb(0,0,180)" stroke-width="1" width="54" x="2638" y="60"><title>openat</title></rect><text fill="black" pointer-events="none" x="2640" y="75">openat<title>openat</title></text><rect class="framebox" fill="white" height="20" id="framebox-40" stroke="rgb(0,0,180)" stroke-width="1" width="81" x="2710" y="60"><title>fdatasync</title></rect><text fill="black" pointer-events="none" x="2712" y="75">fdatasync<title>fdatasync</title></text><rect class="framebox" fill="white" height="20" id="framebox-41" stroke="rgb(0,0,180)" stroke-width="1" width="45" x="2809" y="60"><title>close</title></rect><text fill="black" pointer-events="none" x="2811" y="75">close<title>close</title></text><rect class="framebox" fill="white" height="20" id="framebox-42" stroke="rgb(0,0,180)" stroke-width="1" width="81" x="2872" y="60"><title>fdatasync</title></rect><text fill="black" pointer-events="none" x="2874" y="75">fdatasync<title>fdatasync</title></text><rect class="framebox" fill="white" height="20" id="framebox-43" stroke="rgb(0,0,180)" stroke-width="1" width="54" x="3007" y="20"><title>openat</title></rect><text fill="black" pointer-events="none" x="3009" y="35">openat<title>openat</title></text><rect class="framebox" fill="white" height="20" id="framebox-44" stroke="rgb(0,0,180)" stroke-width="1" width="45" x="3079" y="20"><title>write</title></rect><text fill="black" pointer-events="none" x="3081" y="35">write<title>write</title></text><rect class="framebox" fill="white" height="20" id="framebox-45" stroke="rgb(0,0,180)" stroke-width="1" width="81" x="3142" y="20"><title>fdatasync</title></rect><text fill="black" pointer-events="none" x="3144" y="35">fdatasync<title>fdatasync</title></text><rect class="framebox" fill="white" height="20" id="framebox-46" stroke="rgb(0,0,180)" stroke-width="1" width="45" x="3241" y="20"><title>close</title></rect><text fill="black" pointer-events="none" x="3243" y="35">close<title>close</title></text><rect class="framebox" fill="white" height="20" id="framebox-47" stroke="rgb(255,85,0)" stroke-width="1" width="315" x="2989" y="40"><title>leveldb::WriteStringToFileSync~1</title></rect><text fill="black" pointer-events="none" x="2991" y="55">leveldb::WriteStringToFileSync~1<title>leveldb::WriteStringToFileSync~1</title></text><rect class="framebox" fill="white" height="20" id="framebox-48" stroke="rgb(0,0,180)" stroke-width="1" width="54" x="3322" y="40"><title>rename</title></rect><text fill="black" pointer-events="none" x="3324" y="55">rename<title>rename</title></text><rect class="framebox" fill="white" height="20" id="framebox-49" stroke="rgb(255,42,0)" stroke-width="1" width="423" x="2971" y="60"><title>leveldb::SetCurrentFile~1</title></rect><text fill="black" pointer-events="none" x="2973" y="75">leveldb::SetCurrentFile~1<title>leveldb::SetCurrentFile~1</title></text><rect class="framebox" fill="white" height="20" id="framebox-50" stroke="rgb(255,0,0)" stroke-width="1" width="963" x="2449" y="80"><title>leveldb::VersionSet::LogAndApply~1</title></rect><text fill="black" pointer-events="none" x="2451" y="95">leveldb::VersionSet::LogAndApply~1<title>leveldb::VersionSet::LogAndApply~1</title></text><rect class="framebox" fill="white" height="20" id="framebox-51" stroke="rgb(0,0,180)" stroke-width="1" width="54" x="3448" y="60"><title>openat</title></rect><text fill="black" pointer-events="none" x="3450" y="75">openat<title>openat</title></text><rect class="framebox" fill="white" height="20" id="framebox-52" stroke="rgb(0,0,180)" stroke-width="1" width="45" x="3520" y="60"><title>fstat</title></rect><text fill="black" pointer-events="none" x="3522" y="75">fstat<title>fstat</title></text><rect class="framebox" fill="white" height="20" id="framebox-53" stroke="rgb(0,0,180)" stroke-width="1" width="90" x="3583" y="60"><title>getdents64</title></rect><text fill="black" pointer-events="none" x="3585" y="75">getdents64<title>getdents64</title></text><line stroke="black" stroke-width="2" x1="3577" x2="3577" y1="50" y2="80" /><line stroke="black" stroke-width="2" x1="3679" x2="3679" y1="50" y2="80" /><line stroke="black" stroke-width="2" x1="3577" x2="3586" y1="50" y2="50" /><line stroke="black" stroke-width="2" x1="3679" x2="3670" y1="50" y2="50" /><text fill="black" x="3684" y="70">x 2</text><rect class="framebox" fill="white" height="20" id="framebox-54" stroke="rgb(0,0,180)" stroke-width="1" width="45" x="3727" y="60"><title>close</title></rect><text fill="black" pointer-events="none" x="3729" y="75">close<title>close</title></text><rect class="framebox" fill="white" height="20" id="framebox-55" stroke="rgb(0,0,180)" stroke-width="1" width="45" x="3808" y="40"><title>write</title></rect><text fill="black" pointer-events="none" x="3810" y="55">write<title>write</title></text><rect class="framebox" fill="white" height="20" id="framebox-56" stroke="rgb(255,42,0)" stroke-width="1" width="81" x="3790" y="60"><title>leveldb::PosixLogger::Logv~2</title></rect><text fill="black" pointer-events="none" x="3792" y="75">leveldb..<title>leveldb::PosixLogger::Logv~2</title></text><line stroke="black" stroke-width="2" x1="3784" x2="3784" y1="50" y2="80" /><line stroke="black" stroke-width="2" x1="3877" x2="3877" y1="50" y2="80" /><line stroke="black" stroke-width="2" x1="3784" x2="3793" y1="50" y2="50" /><line stroke="black" stroke-width="2" x1="3877" x2="3868" y1="50" y2="50" /><text fill="black" x="3882" y="70">x 3</text><rect class="framebox" fill="white" height="20" id="framebox-57" stroke="rgb(255,0,0)" stroke-width="1" width="495" x="3430" y="80"><title>leveldb::DBImpl::RemoveObsoleteFiles~1</title></rect><text fill="black" pointer-events="none" x="3432" y="95">leveldb::DBImpl::RemoveObsoleteFiles~1<title>leveldb::DBImpl::RemoveObsoleteFiles~1</title></text><rect class="framebox" fill="white" height="20" id="framebox-58" stroke="rgb(0,0,180)" stroke-width="1" width="36" x="3943" y="80"><title>mmap</title></rect><text fill="black" pointer-events="none" x="3945" y="95">mmap<title>mmap</title></text><rect class="framebox" fill="white" height="20" id="framebox-59" stroke="rgb(85,0,0)" stroke-width="1" width="3744" x="253" y="100"><title>leveldb::DB::Open~1</title></rect><text fill="black" pointer-events="none" x="255" y="115">leveldb::DB::Open~1<title>leveldb::DB::Open~1</title></text><rect class="framebox" fill="white" height="20" id="framebox-60" stroke="rgb(0,0,180)" stroke-width="1" width="63" x="4051" y="60"><title>pread64</title></rect><text fill="black" pointer-events="none" x="4053" y="75">pread64<title>pread64</title></text><rect class="framebox" fill="white" height="20" id="framebox-61" stroke="rgb(255,0,0)" stroke-width="1" width="99" x="4033" y="80"><title>leveldb::TableCache::Get~1</title></rect><text fill="black" pointer-events="none" x="4035" y="95">leveldb::..<title>leveldb::TableCache::Get~1</title></text><line stroke="black" stroke-width="2" x1="4027" x2="4027" y1="70" y2="100" /><line stroke="black" stroke-width="2" x1="4138" x2="4138" y1="70" y2="100" /><line stroke="black" stroke-width="2" x1="4027" x2="4036" y1="70" y2="70" /><line stroke="black" stroke-width="2" x1="4138" x2="4129" y1="70" y2="70" /><text fill="black" x="4143" y="90">x 11</text><rect class="framebox" fill="white" height="20" id="framebox-62" stroke="rgb(0,0,180)" stroke-width="1" width="54" x="4231" y="40"><title>openat</title></rect><text fill="black" pointer-events="none" x="4233" y="55">openat<title>openat</title></text><rect class="framebox" fill="white" height="20" id="framebox-63" stroke="rgb(0,0,180)" stroke-width="1" width="63" x="4321" y="20"><title>pread64</title></rect><text fill="black" pointer-events="none" x="4323" y="35">pread64<title>pread64</title></text><line stroke="black" stroke-width="2" x1="4315" x2="4315" y1="10" y2="40" /><line stroke="black" stroke-width="2" x1="4390" x2="4390" y1="10" y2="40" /><line stroke="black" stroke-width="2" x1="4315" x2="4324" y1="10" y2="10" /><line stroke="black" stroke-width="2" x1="4390" x2="4381" y1="10" y2="10" /><text fill="black" x="4395" y="30">x 2</text><rect class="framebox" fill="white" height="20" id="framebox-64" stroke="rgb(255,85,0)" stroke-width="1" width="135" x="4303" y="40"><title>leveldb::Table::Open~1</title></rect><text fill="black" pointer-events="none" x="4305" y="55">leveldb::Tabl..<title>leveldb::Table::Open~1</title></text><rect class="framebox" fill="white" height="20" id="framebox-65" stroke="rgb(255,42,0)" stroke-width="1" width="243" x="4213" y="60"><title>leveldb::TableCache::FindTable~12</title></rect><text fill="black" pointer-events="none" x="4215" y="75">leveldb::TableCache::Find..<title>leveldb::TableCache::FindTable~12</title></text><rect class="framebox" fill="white" height="20" id="framebox-66" stroke="rgb(0,0,180)" stroke-width="1" width="63" x="4474" y="60"><title>pread64</title></rect><text fill="black" pointer-events="none" x="4476" y="75">pread64<title>pread64</title></text><rect class="framebox" fill="white" height="20" id="framebox-67" stroke="rgb(255,0,0)" stroke-width="1" width="360" x="4195" y="80"><title>leveldb::TableCache::Get~12</title></rect><text fill="black" pointer-events="none" x="4197" y="95">leveldb::TableCache::Get~12<title>leveldb::TableCache::Get~12</title></text><line stroke="black" stroke-width="2" x1="4189" x2="4189" y1="70" y2="100" /><line stroke="black" stroke-width="2" x1="4561" x2="4561" y1="70" y2="100" /><line stroke="black" stroke-width="2" x1="4189" x2="4198" y1="70" y2="70" /><line stroke="black" stroke-width="2" x1="4561" x2="4552" y1="70" y2="70" /><text fill="black" x="4566" y="90">x 2</text><rect class="framebox" fill="white" height="20" id="framebox-68" stroke="rgb(85,0,0)" stroke-width="1" width="594" x="4015" y="100"><title>leveldb::Version::ForEachOverlapping~1</title></rect><text fill="black" pointer-events="none" x="4017" y="115">leveldb::Version::ForEachOverlapping~1<title>leveldb::Version::ForEachOverlapping~1</title></text><rect class="framebox" fill="white" height="20" id="framebox-69" stroke="rgb(0,0,180)" stroke-width="1" width="45" x="4627" y="100"><title>fstat</title></rect><text fill="black" pointer-events="none" x="4629" y="115">fstat<title>fstat</title></text><rect class="framebox" fill="white" height="20" id="framebox-70" stroke="rgb(0,0,180)" stroke-width="1" width="45" x="4690" y="100"><title>write</title></rect><text fill="black" pointer-events="none" x="4692" y="115">write<title>write</title></text><line stroke="black" stroke-width="2" x1="4684" x2="4684" y1="90" y2="120" /><line stroke="black" stroke-width="2" x1="4741" x2="4741" y1="90" y2="120" /><line stroke="black" stroke-width="2" x1="4684" x2="4693" y1="90" y2="90" /><line stroke="black" stroke-width="2" x1="4741" x2="4732" y1="90" y2="90" /><text fill="black" x="4746" y="110">x 3</text><rect class="framebox" fill="white" height="20" id="framebox-71" stroke="rgb(0,0,180)" stroke-width="1" width="45" x="4807" y="80"><title>write</title></rect><text fill="black" pointer-events="none" x="4809" y="95">write<title>write</title></text><line stroke="black" stroke-width="2" x1="4801" x2="4801" y1="70" y2="100" /><line stroke="black" stroke-width="2" x1="4858" x2="4858" y1="70" y2="100" /><line stroke="black" stroke-width="2" x1="4801" x2="4810" y1="70" y2="70" /><line stroke="black" stroke-width="2" x1="4858" x2="4849" y1="70" y2="70" /><text fill="black" x="4863" y="90">x 46</text><rect class="framebox" fill="white" height="20" id="framebox-72" stroke="rgb(85,0,0)" stroke-width="1" width="126" x="4789" y="100"><title>leveldb_stats~1</title></rect><text fill="black" pointer-events="none" x="4791" y="115">leveldb_stat..<title>leveldb_stats~1</title></text><rect class="framebox" fill="white" height="20" id="framebox-73" stroke="rgb(0,0,180)" stroke-width="1" width="45" x="4951" y="80"><title>fcntl</title></rect><text fill="black" pointer-events="none" x="4953" y="95">fcntl<title>fcntl</title></text><rect class="framebox" fill="white" height="20" id="framebox-74" stroke="rgb(0,0,180)" stroke-width="1" width="45" x="5014" y="80"><title>close</title></rect><text fill="black" pointer-events="none" x="5016" y="95">close<title>close</title></text><line stroke="black" stroke-width="2" x1="5008" x2="5008" y1="70" y2="100" /><line stroke="black" stroke-width="2" x1="5065" x2="5065" y1="70" y2="100" /><line stroke="black" stroke-width="2" x1="5008" x2="5017" y1="70" y2="70" /><line stroke="black" stroke-width="2" x1="5065" x2="5056" y1="70" y2="70" /><text fill="black" x="5070" y="90">x 3</text><rect class="framebox" fill="white" height="20" id="framebox-75" stroke="rgb(0,0,180)" stroke-width="1" width="45" x="5131" y="60"><title>close</title></rect><text fill="black" pointer-events="none" x="5133" y="75">close<title>close</title></text><line stroke="black" stroke-width="2" x1="5125" x2="5125" y1="50" y2="80" /><line stroke="black" stroke-width="2" x1="5182" x2="5182" y1="50" y2="80" /><line stroke="black" stroke-width="2" x1="5125" x2="5134" y1="50" y2="50" /><line stroke="black" stroke-width="2" x1="5182" x2="5173" y1="50" y2="50" /><text fill="black" x="5187" y="70">x 15</text><rect class="framebox" fill="white" height="20" id="framebox-76" stroke="rgb(255,0,0)" stroke-width="1" width="126" x="5113" y="80"><title>leveldb::TableCache::~TableCache~1</title></rect><text fill="black" pointer-events="none" x="5115" y="95">leveldb::Tab..<title>leveldb::TableCache::~TableCache~1</title></text><rect class="framebox" fill="white" height="20" id="framebox-77" stroke="rgb(0,0,180)" stroke-width="1" width="45" x="5257" y="80"><title>close</title></rect><text fill="black" pointer-events="none" x="5259" y="95">close<title>close</title></text><rect class="framebox" fill="white" height="20" id="framebox-78" stroke="rgb(85,0,0)" stroke-width="1" width="387" x="4933" y="100"><title>leveldb::DBImpl::~DBImpl~1</title></rect><text fill="black" pointer-events="none" x="4935" y="115">leveldb::DBImpl::~DBImpl~1<title>leveldb::DBImpl::~DBImpl~1</title></text><rect class="framebox" fill="white" height="20" id="framebox-79" stroke="rgb(42,0,0)" stroke-width="1" width="5328" x="10" y="120"><title>main~1</title></rect><text fill="black" pointer-events="none" x="12" y="135">main~1<title>main~1</title></text></svg>